Kavivanar-Regular.ufo
<glyph name="exclam" format="1">
  <advance width="199"/>
  <unicode hex="0021"/>
  <outline>
    <contour>
      <point x="156" y="738"/>
      <point x="182" y="755"/>
      <point x="190" y="757" type="qcurve" smooth="yes"/>
      <point x="208" y="762"/>
      <point x="207" y="746" type="qcurve" smooth="yes"/>
      <point x="151" y="172" type="line" smooth="yes"/>
      <point x="150" y="160"/>
      <point x="126" y="128"/>
      <point x="100" y="111"/>
      <point x="92" y="109" type="qcurve" smooth="yes"/>
      <point x="74" y="104"/>
      <point x="75" y="120" type="qcurve" smooth="yes"/>
      <point x="131" y="694" type="line" smooth="yes"/>
      <point x="132" y="706"/>
    </contour>
    <contour>
      <point x="83" y="-19"/>
      <point x="58" y="1"/>
      <point x="55" y="45"/>
      <point x="83" y="67"/>
      <point x="121" y="67"/>
      <point x="149" y="45"/>
      <point x="149" y="3"/>
      <point x="121" y="-19"/>
    </contour>
  </outline>
</glyph>
<glyph name="quotedbl" format="1">
  <advance width="237"/>
  <unicode hex="0022"/>
  <outline>
    <contour>
      <point x="239.538" y="708.041" type="qcurve" smooth="yes"/>
      <point x="249.708" y="714.937"/>
      <point x="266.56" y="719.239"/>
      <point x="275.674" y="713.269"/>
      <point x="274.995" y="705.764" type="qcurve" smooth="yes"/>
      <point x="255.994" y="495.763" type="line" smooth="yes"/>
      <point x="254.958" y="484.308"/>
      <point x="230.984" y="452.484"/>
      <point x="215.463" y="441.959" type="qcurve" smooth="yes"/>
      <point x="205.293" y="435.063"/>
      <point x="188.441" y="430.761"/>
      <point x="179.327" y="436.731"/>
      <point x="180.006" y="444.236" type="qcurve" smooth="yes"/>
      <point x="199.007" y="654.237" type="line" smooth="yes"/>
      <point x="200.043" y="665.692"/>
      <point x="224.017" y="697.516"/>
    </contour>
    <contour>
      <point x="122.707" y="702.155" type="qcurve" smooth="yes"/>
      <point x="132.873" y="709.018"/>
      <point x="149.675" y="713.231"/>
      <point x="158.707" y="707.174"/>
      <point x="157.982" y="699.638" type="qcurve" smooth="yes"/>
      <point x="137.982" y="491.637" type="line" smooth="yes"/>
      <point x="136.876" y="480.135"/>
      <point x="112.809" y="448.317"/>
      <point x="97.293" y="437.845" type="qcurve" smooth="yes"/>
      <point x="87.1265" y="430.982"/>
      <point x="70.3254" y="426.769"/>
      <point x="61.2929" y="432.826"/>
      <point x="62.0176" y="440.362" type="qcurve" smooth="yes"/>
      <point x="82.0176" y="648.362" type="line" smooth="yes"/>
      <point x="83.1235" y="659.864"/>
      <point x="107.191" y="691.682"/>
    </contour>
  </outline>
</glyph>
<glyph name="dollar" format="1">
  <advance width="624"/>
  <unicode hex="0024"/>
  <outline>
    <contour>
      <point x="578.679" y="525.518"/>
      <point x="551.153" y="516.639"/>
      <point x="547.183" y="524.137" type="qcurve" smooth="yes"/>
      <point x="513.006" y="588.676"/>
      <point x="454.431" y="630.933" type="qcurve" smooth="yes"/>
      <point x="393.341" y="674.998"/>
      <point x="324.746" y="682.105" type="qcurve" smooth="yes"/>
      <point x="282.682" y="686.462"/>
      <point x="247.184" y="675.403" type="qcurve" smooth="yes"/>
      <point x="220.034" y="666.944"/>
      <point x="208.047" y="654.451" type="qcurve" smooth="yes"/>
      <point x="194.866" y="640.723"/>
      <point x="189.706" y="612.981" type="qcurve" smooth="yes"/>
      <point x="182.527" y="574.388"/>
      <point x="199.137" y="535.878" type="qcurve" smooth="yes"/>
      <point x="217.029" y="494.396"/>
      <point x="258.966" y="464.262" type="qcurve" smooth="yes"/>
      <point x="290.827" y="441.366"/>
      <point x="345.212" y="421.643" type="qcurve" smooth="yes"/>
      <point x="347.504" y="420.811"/>
      <point x="420.279" y="395.7"/>
      <point x="438.809" y="387.889" type="qcurve" smooth="yes"/>
      <point x="491.956" y="365.484"/>
      <point x="525.152" y="334.552" type="qcurve" smooth="yes"/>
      <point x="574.878" y="288.214"/>
      <point x="584.275" y="225.167" type="qcurve" smooth="yes"/>
      <point x="595.012" y="153.139"/>
      <point x="549.314" y="83.9795" type="qcurve" smooth="yes"/>
      <point x="522.627" y="43.5878"/>
      <point x="445.892" y="-14.338"/>
      <point x="408.672" y="-27.4883" type="qcurve" smooth="yes"/>
      <point x="345.994" y="-49.6333"/>
      <point x="277.815" y="-37.8682" type="qcurve" smooth="yes"/>
      <point x="202.862" y="-24.9322"/>
      <point x="139.742" y="24.6582" type="qcurve" smooth="yes"/>
      <point x="79.2672" y="72.1766"/>
      <point x="45.0557" y="141.884" type="qcurve" smooth="yes"/>
      <point x="41.2867" y="149.563"/>
      <point x="57.6819" y="180.269"/>
      <point x="87.8669" y="207.326"/>
      <point x="115.175" y="215.794"/>
      <point x="118.944" y="208.115" type="qcurve" smooth="yes"/>
      <point x="151.455" y="141.872"/>
      <point x="209.016" y="96.6436" type="qcurve" smooth="yes"/>
      <point x="268.526" y="49.8891"/>
      <point x="338.184" y="37.8672" type="qcurve" smooth="yes"/>
      <point x="396.422" y="27.8177"/>
      <point x="444.738" y="44.8887" type="qcurve" smooth="yes"/>
      <point x="478.66" y="56.8734"/>
      <point x="491.962" y="77.0049" type="qcurve" smooth="yes"/>
      <point x="501.069" y="90.787"/>
      <point x="512.245" y="139.899"/>
      <point x="508.443" y="165.401" type="qcurve" smooth="yes"/>
      <point x="500.116" y="221.265"/>
      <point x="454.848" y="263.449" type="qcurve" smooth="yes"/>
      <point x="423.81" y="292.37"/>
      <point x="373.561" y="313.553" type="qcurve" smooth="yes"/>
      <point x="360.376" y="319.11"/>
      <point x="329.467" y="330.215"/>
      <point x="291.803" y="342.985"/>
      <point x="280.908" y="346.937" type="qcurve" smooth="yes"/>
      <point x="224.082" y="367.546"/>
      <point x="190.255" y="391.854" type="qcurve" smooth="yes"/>
      <point x="144.643" y="424.627"/>
      <point x="105.102" y="516.297"/>
      <point x="114.371" y="566.132" type="qcurve" smooth="yes"/>
      <point x="125.575" y="626.361"/>
      <point x="176.188" y="679.087" type="qcurve" smooth="yes"/>
      <point x="224.664" y="729.591"/>
      <point x="286.282" y="748.788" type="qcurve" smooth="yes"/>
      <point x="332.894" y="763.311"/>
      <point x="383.255" y="758.096" type="qcurve" smooth="yes"/>
      <point x="457.966" y="750.355"/>
      <point x="523.165" y="703.323" type="qcurve" smooth="yes"/>
      <point x="584.817" y="658.849"/>
      <point x="620.818" y="590.864" type="qcurve" smooth="yes"/>
      <point x="624.789" y="583.367"/>
      <point x="608.76" y="552.777"/>
    </contour>
    <contour>
      <point x="401.002" y="826.354" type="qcurve" smooth="yes"/>
      <point x="411.163" y="833.157"/>
      <point x="427.874" y="837.216"/>
      <point x="436.764" y="831.008"/>
      <point x="435.961" y="823.419" type="qcurve" smooth="yes"/>
      <point x="341.96" y="-64.5811" type="line" smooth="yes"/>
      <point x="340.734" y="-76.1637"/>
      <point x="316.505" y="-107.969"/>
      <point x="300.998" y="-118.353" type="qcurve" smooth="yes"/>
      <point x="290.838" y="-125.156"/>
      <point x="274.127" y="-129.215"/>
      <point x="265.236" y="-123.007"/>
      <point x="266.039" y="-115.418" type="qcurve" smooth="yes"/>
      <point x="360.04" y="772.582" type="line" smooth="yes"/>
      <point x="361.266" y="784.165"/>
      <point x="385.495" y="815.97"/>
    </contour>
    <contour>
      <point x="580.001" y="526.371"/>
      <point x="551.971" y="516.507"/>
      <point x="547.517" y="523.561" type="qcurve" smooth="yes"/>
      <point x="509.225" y="584.184"/>
      <point x="454.417" y="630.911" type="qcurve"/>
      <point x="393.867" y="667.519"/>
      <point x="324.503" y="682.084" type="qcurve"/>
      <point x="285.557" y="683.58"/>
      <point x="247.441" y="675.338" type="qcurve"/>
      <point x="226.004" y="666.384"/>
      <point x="208.938" y="653.894" type="qcurve"/>
      <point x="196.965" y="635.43"/>
      <point x="189.848" y="612.774" type="qcurve"/>
      <point x="187.349" y="573.632"/>
      <point x="199.173" y="535.93" type="qcurve"/>
      <point x="222.532" y="495.097"/>
      <point x="258.988" y="464.273" type="qcurve"/>
      <point x="300.362" y="438.951"/>
      <point x="345.219" y="421.643" type="qcurve" smooth="yes"/>
      <point x="392.064" y="405.648"/>
      <point x="438.816" y="387.893" type="qcurve" smooth="yes"/>
      <point x="485.113" y="366.285"/>
      <point x="524.661" y="334.975" type="qcurve" smooth="yes"/>
      <point x="525.245" y="334.512"/>
      <point x="525.726" y="333.959" type="qcurve" smooth="yes"/>
      <point x="566.893" y="286.808"/>
      <point x="583.946" y="226.71" type="qcurve" smooth="yes"/>
      <point x="584.399" y="225.113"/>
      <point x="584.436" y="223.196" type="qcurve" smooth="yes"/>
      <point x="585.714" y="156.057"/>
      <point x="554.255" y="92.5" type="qcurve" smooth="yes"/>
      <point x="549.661" y="83.2166"/>
      <point x="541.466" y="73.5889" type="qcurve" smooth="yes"/>
      <point x="486.359" y="8.85509"/>
      <point x="413.605" y="-25.4443" type="qcurve" smooth="yes"/>
      <point x="409.036" y="-27.5982"/>
      <point x="405.036" y="-28.5859" type="qcurve" smooth="yes"/>
      <point x="342.348" y="-44.0604"/>
      <point x="278.865" y="-38.0078" type="qcurve" smooth="yes"/>
      <point x="277.73" y="-37.8988"/>
      <point x="276.727" y="-37.6299" type="qcurve" smooth="yes"/>
      <point x="203.392" y="-17.9355"/>
      <point x="140.254" y="24.2871" type="qcurve" smooth="yes"/>
      <point x="139.732" y="24.6363"/>
      <point x="139.27" y="25.0596" type="qcurve" smooth="yes"/>
      <point x="83.6493" y="76.1367"/>
      <point x="45.3721" y="141.296" type="qcurve" smooth="yes"/>
      <point x="41.1189" y="148.536"/>
      <point x="56.626" y="178.953"/>
      <point x="86.5525" y="206.49"/>
      <point x="114.374" y="215.943"/>
      <point x="118.628" y="208.703" type="qcurve" smooth="yes"/>
      <point x="155.394" y="146.116"/>
      <point x="209.03" y="96.6631" type="qcurve"/>
      <point x="269.219" y="56.6142"/>
      <point x="338.265" y="37.9004" type="qcurve"/>
      <point x="392.102" y="32.975"/>
      <point x="444.238" y="44.9922" type="qcurve"/>
      <point x="472.249" y="58.9927"/>
      <point x="491.623" y="78.459" type="qcurve"/>
      <point x="508.634" y="118.893"/>
      <point x="508.315" y="165.453" type="qcurve"/>
      <point x="492.366" y="220.084"/>
      <point x="454.759" y="263.486" type="qcurve"/>
      <point x="417.277" y="293.014"/>
      <point x="373.556" y="313.548" type="qcurve" smooth="yes"/>
      <point x="327.255" y="331.111"/>
      <point x="280.901" y="346.938" type="qcurve" smooth="yes"/>
      <point x="233.572" y="365.2"/>
      <point x="190.759" y="391.52" type="qcurve" smooth="yes"/>
      <point x="190.239" y="391.837"/>
      <point x="189.771" y="392.23" type="qcurve" smooth="yes"/>
      <point x="150.482" y="425.208"/>
      <point x="125.306" y="469.592" type="qcurve" smooth="yes"/>
      <point x="124.831" y="470.43"/>
      <point x="124.517" y="471.412" type="qcurve" smooth="yes"/>
      <point x="110.23" y="516.127"/>
      <point x="114.025" y="563.565" type="qcurve" smooth="yes"/>
      <point x="114.243" y="566.289"/>
      <point x="115.179" y="569.456" type="qcurve" smooth="yes"/>
      <point x="130.968" y="622.887"/>
      <point x="168.688" y="670.506" type="qcurve" smooth="yes"/>
      <point x="175.757" y="679.431"/>
      <point x="184.555" y="687.031" type="qcurve" smooth="yes"/>
      <point x="230.379" y="726.619"/>
      <point x="282.967" y="747.606" type="qcurve" smooth="yes"/>
      <point x="286.113" y="748.861"/>
      <point x="288.917" y="749.504" type="qcurve" smooth="yes"/>
      <point x="335.327" y="760.169"/>
      <point x="382.312" y="758.162" type="qcurve" smooth="yes"/>
      <point x="383.505" y="758.111"/>
      <point x="384.573" y="757.893" type="qcurve" smooth="yes"/>
      <point x="458.288" y="742.8"/>
      <point x="522.614" y="703.689" type="qcurve" smooth="yes"/>
      <point x="523.181" y="703.344"/>
      <point x="523.673" y="702.927" type="qcurve" smooth="yes"/>
      <point x="580.587" y="654.606"/>
      <point x="620.484" y="591.44" type="qcurve" smooth="yes"/>
      <point x="624.939" y="584.388"/>
      <point x="609.809" y="554.101"/>
    </contour>
  </outline>
</glyph>
<glyph name="percent" format="1">
  <advance width="778"/>
  <unicode hex="0025"/>
  <outline>
    <contour>
      <point x="776" y="703"/>
      <point x="765" y="675"/>
      <point x="751" y="660" type="qcurve" smooth="yes"/>
      <point x="121" y="-2" type="line" smooth="yes"/>
      <point x="107" y="-17"/>
      <point x="77" y="-31"/>
      <point x="64" y="-21"/>
      <point x="75" y="7"/>
      <point x="89" y="22" type="qcurve" smooth="yes"/>
      <point x="719" y="684" type="line" smooth="yes"/>
      <point x="733" y="699"/>
      <point x="763" y="713"/>
    </contour>
    <contour>
      <point x="283" y="697" type="qcurve" smooth="yes"/>
      <point x="437" y="645"/>
      <point x="344" y="467" type="qcurve" smooth="yes"/>
      <point x="326" y="433"/>
      <point x="268" y="367"/>
      <point x="196" y="336"/>
      <point x="145" y="342"/>
      <point x="116" y="355" type="qcurve" smooth="yes"/>
      <point x="7" y="407"/>
      <point x="58" y="530" type="qcurve" smooth="yes"/>
      <point x="82" y="589"/>
      <point x="116" y="630" type="qcurve" smooth="yes"/>
      <point x="196" y="725"/>
    </contour>
    <contour>
      <point x="219" y="623" type="qcurve" smooth="yes"/>
      <point x="175" y="637"/>
      <point x="160" y="618" type="qcurve" smooth="yes"/>
      <point x="144" y="599"/>
      <point x="128" y="562" type="qcurve" smooth="yes"/>
      <point x="91" y="472"/>
      <point x="182" y="429" type="qcurve" smooth="yes"/>
      <point x="208" y="417"/>
      <point x="249" y="414"/>
      <point x="257" y="419" type="qcurve" smooth="yes"/>
      <point x="264" y="423" type="line" smooth="yes"/>
      <point x="270" y="430"/>
      <point x="278" y="445" type="qcurve" smooth="yes"/>
      <point x="347" y="579"/>
    </contour>
    <contour>
      <point x="697" y="333" type="qcurve" smooth="yes"/>
      <point x="851" y="281"/>
      <point x="758" y="103" type="qcurve" smooth="yes"/>
      <point x="740" y="69"/>
      <point x="682" y="3"/>
      <point x="610" y="-28"/>
      <point x="559" y="-22"/>
      <point x="530" y="-9" type="qcurve" smooth="yes"/>
      <point x="421" y="43"/>
      <point x="472" y="166" type="qcurve" smooth="yes"/>
      <point x="496" y="225"/>
      <point x="530" y="266" type="qcurve" smooth="yes"/>
      <point x="610" y="361"/>
    </contour>
    <contour>
      <point x="633" y="259" type="qcurve" smooth="yes"/>
      <point x="589" y="273"/>
      <point x="574" y="254" type="qcurve" smooth="yes"/>
      <point x="558" y="235"/>
      <point x="542" y="198" type="qcurve" smooth="yes"/>
      <point x="505" y="108"/>
      <point x="596" y="65" type="qcurve" smooth="yes"/>
      <point x="622" y="53"/>
      <point x="663" y="50"/>
      <point x="671" y="55" type="qcurve" smooth="yes"/>
      <point x="678" y="59" type="line" smooth="yes"/>
      <point x="684" y="66"/>
      <point x="692" y="81" type="qcurve" smooth="yes"/>
      <point x="761" y="215"/>
    </contour>
  </outline>
</glyph>
<glyph name="ampersand" format="1">
  <advance width="687"/>
  <unicode hex="0026"/>
  <outline>
    <contour>
      <point x="530.335" y="175.806" type="qcurve"/>
      <point x="559.96" y="243.1"/>
      <point x="575.218" y="337.914" type="qcurve" smooth="yes"/>
      <point x="577.157" y="349.962"/>
      <point x="602.311" y="381.654"/>
      <point x="633.18" y="401.333"/>
      <point x="652.72" y="398.134"/>
      <point x="650.781" y="386.086" type="qcurve" smooth="yes"/>
      <point x="626.729" y="236.618"/>
      <point x="564.868" y="138.949" type="qcurve"/>
      <point x="612.61" y="88.689"/>
      <point x="666.333" y="35.377" type="qcurve" smooth="yes"/>
      <point x="672.133" y="29.6216"/>
      <point x="659.631" y="0.364383"/>
      <point x="630.762" y="-28.5401"/>
      <point x="601.466" y="-41.1323"/>
      <point x="595.666" y="-35.377" type="qcurve" smooth="yes"/>
      <point x="545.679" y="14.2259"/>
      <point x="501.362" y="60.6621" type="qcurve"/>
      <point x="406.816" y="-30.9752"/>
      <point x="280.505" y="-38.0479" type="qcurve" smooth="yes"/>
      <point x="33.5051" y="-51.7123"/>
      <point x="40.9326" y="153.108" type="qcurve" smooth="yes"/>
      <point x="42.9147" y="207.743"/>
      <point x="103.118" y="317.794"/>
      <point x="164.407" y="361.085" type="qcurve" smooth="yes"/>
      <point x="194.255" y="382.167"/>
      <point x="231.051" y="398.565" type="qcurve"/>
      <point x="210.364" y="435.177"/>
      <point x="188.448" y="485.043"/>
      <point x="175.89" y="543.033"/>
      <point x="188.714" y="596.507"/>
      <point x="207.411" y="624.203" type="qcurve" smooth="yes"/>
      <point x="242.091" y="675.573"/>
      <point x="333.763" y="715.137"/>
      <point x="388.851" y="720.002" type="qcurve" smooth="yes"/>
      <point x="485.059" y="728.145"/>
      <point x="553.565" y="632.88"/>
      <point x="522.718" y="530.626" type="qcurve" smooth="yes"/>
      <point x="507.886" y="483.836"/>
      <point x="414.251" y="404.308"/>
      <point x="359.116" y="381.243" type="qcurve"/>
      <point x="424.304" y="290.55"/>
    </contour>
    <contour>
      <point x="326.014" y="429.955" type="qcurve"/>
      <point x="339.001" y="433.605"/>
      <point x="350.862" y="437.412" type="qcurve" smooth="yes"/>
      <point x="387.36" y="449.125"/>
      <point x="435.251" y="472.968"/>
      <point x="440.948" y="479.034" type="qcurve" smooth="yes"/>
      <point x="446.645" y="485.099" type="line" smooth="yes"/>
      <point x="448.176" y="487.88"/>
      <point x="449.282" y="491.374" type="qcurve" smooth="yes"/>
      <point x="474.6" y="575.297"/>
      <point x="420.111" y="651.02"/>
      <point x="337.108" y="643.994" type="qcurve" smooth="yes"/>
      <point x="287.688" y="639.629"/>
      <point x="262.23" y="626.15" type="qcurve"/>
      <point x="253.867" y="603.336"/>
      <point x="280.885" y="503.097"/>
      <point x="318.432" y="442.053" type="qcurve" smooth="yes"/>
      <point x="321.927" y="436.37"/>
    </contour>
    <contour>
      <point x="261.152" y="349.586" type="qcurve"/>
      <point x="249.226" y="346.325"/>
      <point x="238.234" y="342.741" type="qcurve" smooth="yes"/>
      <point x="191.035" y="327.352"/>
      <point x="162.441" y="307.156" type="qcurve" smooth="yes"/>
      <point x="119.605" y="276.899"/>
      <point x="117.065" y="206.891" type="qcurve" smooth="yes"/>
      <point x="113.781" y="116.325"/>
      <point x="220.829" y="31.8153"/>
      <point x="333.496" y="38.0488" type="qcurve" smooth="yes"/>
      <point x="424.15" y="43.1249"/>
      <point x="473.855" y="89.7744" type="qcurve"/>
      <point x="341.185" y="231.634"/>
      <point x="269.069" y="337.767" type="qcurve" smooth="yes"/>
      <point x="265.22" y="343.43"/>
    </contour>
  </outline>
</glyph>
<glyph name="quotesingle" format="1">
  <advance width="130"/>
  <unicode hex="0027"/>
  <outline>
    <contour>
      <point x="133.082" y="706.407" type="qcurve" smooth="yes"/>
      <point x="143.241" y="713.195"/>
      <point x="159.928" y="717.211"/>
      <point x="168.779" y="710.962"/>
      <point x="167.954" y="703.358" type="qcurve" smooth="yes"/>
      <point x="144.955" y="491.359" type="line" smooth="yes"/>
      <point x="143.696" y="479.755"/>
      <point x="119.424" y="447.953"/>
      <point x="103.919" y="437.594" type="qcurve" smooth="yes"/>
      <point x="93.7601" y="430.807"/>
      <point x="77.0737" y="426.791"/>
      <point x="68.2219" y="433.039"/>
      <point x="69.0469" y="440.643" type="qcurve" smooth="yes"/>
      <point x="92.0469" y="652.642" type="line" smooth="yes"/>
      <point x="93.3059" y="664.246"/>
      <point x="117.578" y="696.048"/>
    </contour>
  </outline>
</glyph>
<glyph name="parenleft" format="1">
  <advance width="311"/>
  <unicode hex="0028"/>
  <outline>
    <contour>
      <point x="249.22" y="-80.699"/>
      <point x="218.144" y="-98.385"/>
      <point x="209.824" y="-95.3447" type="qcurve" smooth="yes"/>
      <point x="6.17027" y="-20.9134"/>
      <point x="34.0059" y="284.24" type="qcurve" smooth="yes"/>
      <point x="50.1783" y="462.628"/>
      <point x="112.424" y="573.841" type="qcurve" smooth="yes"/>
      <point x="150.987" y="642.74"/>
      <point x="269.334" y="739.736"/>
      <point x="332.796" y="757.158" type="qcurve" smooth="yes"/>
      <point x="345.827" y="760.735"/>
      <point x="352.394" y="743.996"/>
      <point x="335.403" y="713.718"/>
      <point x="304.235" y="686.619"/>
      <point x="291.204" y="683.042" type="qcurve" smooth="yes"/>
      <point x="247.481" y="671.039"/>
      <point x="198.193" y="630.611"/>
      <point x="176.306" y="591.505" type="qcurve" smooth="yes"/>
      <point x="124.843" y="499.56"/>
      <point x="109.994" y="335.76" type="qcurve" smooth="yes"/>
      <point x="83.8282" y="48.912"/>
      <point x="274.175" y="-20.6553" type="qcurve" smooth="yes"/>
      <point x="282.495" y="-23.6961"/>
      <point x="275.509" y="-50.1879"/>
    </contour>
  </outline>
</glyph>
<glyph name="parenright" format="1">
  <advance width="323"/>
  <unicode hex="0029"/>
  <outline>
    <contour>
      <point x="109" y="743"/>
      <point x="140" y="761"/>
      <point x="148" y="757" type="qcurve" smooth="yes"/>
      <point x="352" y="677"/>
      <point x="326" y="354" type="qcurve" smooth="yes"/>
      <point x="303" y="77"/>
      <point x="152" y="-41" type="qcurve" smooth="yes"/>
      <point x="93" y="-87"/>
      <point x="30" y="-103" type="qcurve" smooth="yes"/>
      <point x="17" y="-106"/>
      <point x="12" y="-89"/>
      <point x="29" y="-59"/>
      <point x="61" y="-32"/>
      <point x="74" y="-29" type="qcurve" smooth="yes"/>
      <point x="118" y="-18"/>
      <point x="166" y="20"/>
      <point x="187" y="56" type="qcurve" smooth="yes"/>
      <point x="237" y="143"/>
      <point x="250" y="302" type="qcurve" smooth="yes"/>
      <point x="275" y="608"/>
      <point x="84" y="683" type="qcurve" smooth="yes"/>
      <point x="76" y="686"/>
      <point x="83" y="713"/>
    </contour>
  </outline>
</glyph>
<glyph name="asterisk" format="1">
  <advance width="383"/>
  <unicode hex="002A"/>
  <outline>
    <contour>
      <point x="233" y="693"/>
      <point x="259" y="710"/>
      <point x="267" y="713" type="qcurve" smooth="yes"/>
      <point x="286" y="718"/>
      <point x="285" y="702" type="qcurve" smooth="yes"/>
      <point x="277" y="561" type="line"/>
      <point x="409" y="627" type="line" smooth="yes"/>
      <point x="424" y="634"/>
      <point x="438" y="626"/>
      <point x="428" y="598"/>
      <point x="400" y="568"/>
      <point x="385" y="560" type="qcurve" smooth="yes"/>
      <point x="318" y="526" type="line"/>
      <point x="416" y="473" type="line" smooth="yes"/>
      <point x="423" y="469"/>
      <point x="415" y="441"/>
      <point x="388" y="411"/>
      <point x="357" y="395"/>
      <point x="350" y="399" type="qcurve" smooth="yes"/>
      <point x="270" y="442" type="line"/>
      <point x="267" y="380" type="line" smooth="yes"/>
      <point x="266" y="369"/>
      <point x="243" y="337"/>
      <point x="217" y="320"/>
      <point x="209" y="317" type="qcurve" smooth="yes"/>
      <point x="190" y="312"/>
      <point x="191" y="328" type="qcurve" smooth="yes"/>
      <point x="199" y="467" type="line"/>
      <point x="67" y="401" type="line" smooth="yes"/>
      <point x="52" y="394"/>
      <point x="38" y="402"/>
      <point x="48" y="429"/>
      <point x="76" y="460"/>
      <point x="91" y="467" type="qcurve" smooth="yes"/>
      <point x="160" y="502" type="line"/>
      <point x="60" y="557" type="line" smooth="yes"/>
      <point x="53" y="561"/>
      <point x="61" y="589"/>
      <point x="88" y="619"/>
      <point x="119" y="635"/>
      <point x="126" y="630" type="qcurve" smooth="yes"/>
      <point x="205" y="587" type="line"/>
      <point x="209" y="650" type="line" smooth="yes"/>
      <point x="210" y="661"/>
    </contour>
  </outline>
</glyph>
<glyph name="plus" format="1">
  <advance width="399"/>
  <unicode hex="002B"/>
  <outline>
    <contour>
      <point x="37.502" y="329.672" type="qcurve" smooth="yes"/>
      <point x="48.6738" y="345.227"/>
      <point x="80.5217" y="367.944"/>
      <point x="91.3467" y="368.078" type="qcurve" smooth="yes"/>
      <point x="413.346" y="372.077" type="line" smooth="yes"/>
      <point x="420.438" y="372.165"/>
      <point x="425.268" y="362.009"/>
      <point x="419.818" y="344.52"/>
      <point x="412.498" y="334.328" type="qcurve" smooth="yes"/>
      <point x="401.326" y="318.773"/>
      <point x="369.479" y="296.057"/>
      <point x="358.653" y="295.922" type="qcurve" smooth="yes"/>
      <point x="36.6543" y="291.924" type="line" smooth="yes"/>
      <point x="29.5615" y="291.836"/>
      <point x="24.7316" y="301.991"/>
      <point x="30.1822" y="319.48"/>
    </contour>
    <contour>
      <point x="242.273" y="531.041" type="qcurve" smooth="yes"/>
      <point x="252.447" y="537.989"/>
      <point x="269.379" y="542.43"/>
      <point x="278.619" y="536.595"/>
      <point x="278.011" y="529.138" type="qcurve" smooth="yes"/>
      <point x="250.012" y="185.958" type="line" smooth="yes"/>
      <point x="249.083" y="174.577"/>
      <point x="225.255" y="142.744"/>
      <point x="209.728" y="132.14" type="qcurve" smooth="yes"/>
      <point x="199.553" y="125.192"/>
      <point x="182.621" y="120.751"/>
      <point x="173.381" y="126.586"/>
      <point x="173.989" y="134.043" type="qcurve" smooth="yes"/>
      <point x="201.989" y="477.223" type="line" smooth="yes"/>
      <point x="202.918" y="488.604"/>
      <point x="226.745" y="520.437"/>
    </contour>
  </outline>
</glyph>
<glyph name="comma" format="1">
  <advance width="206"/>
  <unicode hex="002C"/>
  <outline>
    <contour>
      <point x="110" y="131"/>
      <point x="137" y="139"/>
      <point x="140" y="131" type="qcurve" smooth="yes"/>
      <point x="193" y="5"/>
      <point x="74" y="-117" type="qcurve" smooth="yes"/>
      <point x="60" y="-132"/>
      <point x="30" y="-145"/>
      <point x="18" y="-134"/>
      <point x="30" y="-105"/>
      <point x="45" y="-90" type="qcurve" smooth="yes"/>
      <point x="60" y="-74"/>
      <point x="79" y="-33"/>
      <point x="82" y="30"/>
      <point x="66" y="65" type="qcurve" smooth="yes"/>
      <point x="63" y="73"/>
      <point x="80" y="104"/>
    </contour>
  </outline>
</glyph>
<glyph name="hyphen" format="1">
  <advance width="336"/>
  <unicode hex="002D"/>
  <outline>
    <contour>
      <point x="30" y="193" type="qcurve" smooth="yes"/>
      <point x="33" y="202"/>
      <point x="51" y="228"/>
      <point x="83" y="250"/>
      <point x="94" y="250" type="qcurve" smooth="yes"/>
      <point x="325" y="249" type="line" smooth="yes"/>
      <point x="340" y="249"/>
      <point x="333" y="230" type="qcurve" smooth="yes"/>
      <point x="325" y="205"/>
      <point x="280" y="173"/>
      <point x="269" y="173" type="qcurve" smooth="yes"/>
      <point x="38" y="174" type="line" smooth="yes"/>
      <point x="24" y="174"/>
    </contour>
  </outline>
</glyph>
<glyph name="period" format="1">
  <advance width="201"/>
  <unicode hex="002E"/>
  <outline>
    <contour>
      <point x="74" y="91" type="qcurve" smooth="yes"/>
      <point x="113" y="136"/>
      <point x="146" y="89" type="qcurve" smooth="yes"/>
      <point x="174" y="50"/>
      <point x="141" y="13" type="qcurve" smooth="yes"/>
      <point x="102" y="-31"/>
      <point x="46" y="58"/>
    </contour>
  </outline>
</glyph>
<glyph name="slash" format="1">
  <advance width="307"/>
  <unicode hex="002F"/>
  <outline>
    <contour>
      <point x="345.142" y="747.97"/>
      <point x="359.071" y="738.303"/>
      <point x="353.99" y="724.484" type="qcurve" smooth="yes"/>
      <point x="89.9893" y="6.4834" type="line" smooth="yes"/>
      <point x="84.9082" y="-7.33594"/>
      <point x="56.2646" y="-37.6855"/>
      <point x="26.8584" y="-51.9707"/>
      <point x="12.9287" y="-42.3037"/>
      <point x="18.0098" y="-28.4844" type="qcurve" smooth="yes"/>
      <point x="282.01" y="689.517" type="line" smooth="yes"/>
      <point x="287.092" y="703.336"/>
      <point x="315.736" y="733.686"/>
    </contour>
  </outline>
</glyph>
<glyph name="zero" format="1">
  <advance width="602"/>
  <unicode hex="0030"/>
  <outline>
    <contour>
      <point x="403" y="759" type="qcurve" smooth="yes"/>
      <point x="621" y="733"/>
      <point x="577" y="349" type="qcurve" smooth="yes"/>
      <point x="566" y="256"/>
      <point x="523" y="121"/>
      <point x="481" y="67" type="qcurve" smooth="yes"/>
      <point x="388" y="-54"/>
      <point x="255" y="-38" type="qcurve" smooth="yes"/>
      <point x="48" y="-14"/>
      <point x="85" y="333" type="qcurve" smooth="yes"/>
      <point x="97" y="443"/>
      <point x="144" y="597"/>
      <point x="190" y="656" type="qcurve" smooth="yes"/>
      <point x="281" y="774"/>
    </contour>
    <contour>
      <point x="344" y="683" type="qcurve" smooth="yes"/>
      <point x="270" y="692"/>
      <point x="239" y="651" type="qcurve" smooth="yes"/>
      <point x="216" y="621"/>
      <point x="171" y="479"/>
      <point x="161" y="383" type="qcurve" smooth="yes"/>
      <point x="126" y="59"/>
      <point x="313" y="38" type="qcurve" smooth="yes"/>
      <point x="397" y="28"/>
      <point x="432" y="72" type="qcurve" smooth="yes"/>
      <point x="453" y="99"/>
      <point x="492" y="218"/>
      <point x="501" y="299" type="qcurve" smooth="yes"/>
      <point x="543" y="659"/>
    </contour>
  </outline>
</glyph>
<glyph name="one" format="1">
  <advance width="243"/>
  <unicode hex="0031"/>
  <outline>
    <contour>
      <point x="70" y="591"/>
      <point x="83" y="621"/>
      <point x="98" y="635" type="qcurve" smooth="yes"/>
      <point x="200" y="735" type="line"/>
      <point x="223" y="756" type="line"/>
      <point x="253" y="778"/>
      <point x="251" y="746" type="qcurve" smooth="yes"/>
      <point x="191" y="26" type="line" smooth="yes"/>
      <point x="190" y="15"/>
      <point x="166" y="-17"/>
      <point x="141" y="-35"/>
      <point x="132" y="-37" type="qcurve" smooth="yes"/>
      <point x="114" y="-42"/>
      <point x="115" y="-26" type="qcurve" smooth="yes"/>
      <point x="171" y="651" type="line"/>
      <point x="124" y="605" type="line" smooth="yes"/>
      <point x="109" y="591"/>
      <point x="81" y="579"/>
    </contour>
  </outline>
</glyph>
<glyph name="two" format="1">
  <advance width="593"/>
  <unicode hex="0032"/>
  <outline>
    <contour>
      <point x="50" y="15" type="line"/>
      <point x="379" y="336" type="line"/>
      <point x="553" y="539"/>
      <point x="494" y="619" type="qcurve" smooth="yes"/>
      <point x="456" y="671"/>
      <point x="333" y="682" type="qcurve" smooth="yes"/>
      <point x="259" y="688"/>
      <point x="195" y="602"/>
      <point x="172" y="524" type="qcurve" smooth="yes"/>
      <point x="168" y="511"/>
      <point x="141" y="479"/>
      <point x="111" y="463"/>
      <point x="94" y="470"/>
      <point x="98" y="483" type="qcurve" smooth="yes"/>
      <point x="127" y="582"/>
      <point x="223" y="710"/>
      <point x="336" y="763"/>
      <point x="394" y="758" type="qcurve" smooth="yes"/>
      <point x="658" y="736"/>
      <point x="553" y="514" type="qcurve" smooth="yes"/>
      <point x="512" y="428"/>
      <point x="416" y="316" type="qcurve" smooth="yes"/>
      <point x="413" y="312"/>
      <point x="409" y="309" type="qcurve" smooth="yes"/>
      <point x="131" y="39" type="line"/>
      <point x="224" y="39"/>
      <point x="527" y="38" type="qcurve" smooth="yes"/>
      <point x="542" y="38"/>
      <point x="535" y="19" type="qcurve" smooth="yes"/>
      <point x="527" y="-6"/>
      <point x="482" y="-38"/>
      <point x="471" y="-38" type="qcurve" smooth="yes"/>
      <point x="61" y="-37"/>
      <point x="37" y="-38" type="qcurve" smooth="yes"/>
      <point x="36" y="-38"/>
      <point x="47" y="2" type="qcurve" smooth="yes"/>
    </contour>
  </outline>
</glyph>
<glyph name="three" format="1">
  <advance width="568"/>
  <unicode hex="0033"/>
  <outline>
    <contour>
      <point x="117" y="553"/>
      <point x="106" y="565"/>
      <point x="125" y="608"/>
      <point x="144" y="634" type="qcurve" smooth="yes"/>
      <point x="234" y="759"/>
      <point x="393" y="758" type="qcurve" smooth="yes"/>
      <point x="601" y="757"/>
      <point x="544" y="552" type="qcurve" smooth="yes"/>
      <point x="515" y="446"/>
      <point x="435" y="383" type="qcurve"/>
      <point x="563" y="340"/>
      <point x="533" y="191" type="qcurve" smooth="yes"/>
      <point x="519" y="124"/>
      <point x="483" y="74" type="qcurve" smooth="yes"/>
      <point x="402" y="-39"/>
      <point x="261" y="-38" type="qcurve" smooth="yes"/>
      <point x="75" y="-37"/>
      <point x="64" y="123" type="qcurve" smooth="yes"/>
      <point x="63" y="133"/>
      <point x="85" y="165"/>
      <point x="110" y="185"/>
      <point x="119" y="188" type="qcurve" smooth="yes"/>
      <point x="139" y="195"/>
      <point x="140" y="181" type="qcurve" smooth="yes"/>
      <point x="150" y="39"/>
      <point x="317" y="38" type="qcurve" smooth="yes"/>
      <point x="353" y="38"/>
      <point x="379" y="45" type="qcurve" smooth="yes"/>
      <point x="417" y="56"/>
      <point x="448" y="99"/>
      <point x="457" y="145" type="qcurve" smooth="yes"/>
      <point x="476" y="235"/>
      <point x="370" y="326"/>
      <point x="241" y="324" type="qcurve" smooth="yes"/>
      <point x="238" y="324"/>
      <point x="235" y="325"/>
      <point x="234" y="325" type="qcurve" smooth="yes"/>
      <point x="220" y="326"/>
      <point x="227" y="345" type="qcurve" smooth="yes"/>
      <point x="236" y="371"/>
      <point x="281" y="402"/>
      <point x="292" y="401" type="qcurve" smooth="yes"/>
      <point x="355" y="397"/>
      <point x="427" y="426"/>
      <point x="458" y="468"/>
      <point x="470" y="510" type="qcurve" smooth="yes"/>
      <point x="493" y="595"/>
      <point x="429" y="681"/>
      <point x="337" y="682" type="qcurve" smooth="yes"/>
      <point x="276" y="682"/>
      <point x="209" y="652"/>
      <point x="188" y="623"/>
      <point x="175" y="593"/>
      <point x="145" y="564"/>
    </contour>
  </outline>
</glyph>
<glyph name="four" format="1">
  <advance width="606"/>
  <unicode hex="0034"/>
  <outline>
    <contour>
      <point x="432.815" y="225.078" type="line"/>
      <point x="557.574" y="225.078" type="line" smooth="yes"/>
      <point x="564.603" y="225.078"/>
      <point x="569.261" y="214.77"/>
      <point x="563.641" y="197.191"/>
      <point x="556.261" y="186.999" type="qcurve" smooth="yes"/>
      <point x="544.996" y="171.443"/>
      <point x="513.153" y="148.92"/>
      <point x="502.425" y="148.92" type="qcurve" smooth="yes"/>
      <point x="425.624" y="148.92" type="line"/>
      <point x="413.985" y="25.6758" type="line" smooth="yes"/>
      <point x="412.901" y="14.1878"/>
      <point x="388.862" y="-17.6318"/>
      <point x="373.344" y="-28.1201" type="qcurve" smooth="yes"/>
      <point x="363.176" y="-34.9927"/>
      <point x="346.36" y="-39.2333"/>
      <point x="337.303" y="-33.2028"/>
      <point x="338.014" y="-25.6758" type="qcurve" smooth="yes"/>
      <point x="354.501" y="148.921" type="line"/>
      <point x="76.4268" y="148.922" type="line" smooth="yes"/>
      <point x="70.6386" y="148.922"/>
      <point x="65.3108" y="157.097"/>
      <point x="68.4013" y="172.68"/>
      <point x="74.5166" y="182.269" type="qcurve" smooth="yes"/>
      <point x="414.516" y="715.368" type="line" smooth="yes"/>
      <point x="426.364" y="733.947"/>
      <point x="448.981" y="753.879"/>
      <point x="464.331" y="755.785"/>
      <point x="476.296" y="752.384"/>
      <point x="479.141" y="749.08" type="qcurve" smooth="yes"/>
      <point x="481.985" y="745.775" type="line"/>
    </contour>
    <contour>
      <point x="361.692" y="225.078" type="line"/>
      <point x="397.657" y="605.94" type="line"/>
      <point x="154.753" y="225.079" type="line"/>
    </contour>
  </outline>
</glyph>
<glyph name="five" format="1">
  <advance width="600"/>
  <unicode hex="0035"/>
  <outline>
    <contour>
      <point x="109.318" y="181.378"/>
      <point x="135.129" y="187.196"/>
      <point x="137.597" y="178.391" type="qcurve" smooth="yes"/>
      <point x="179.573" y="28.6172"/>
      <point x="330.387" y="38.042" type="qcurve" smooth="yes"/>
      <point x="402.285" y="42.4502"/>
      <point x="440.607" y="68.707" type="qcurve" smooth="yes"/>
      <point x="450.29" y="75.3408"/>
      <point x="468.644" y="99.8604"/>
      <point x="489.233" y="162.99"/>
      <point x="491.961" y="205.659" type="qcurve" smooth="yes"/>
      <point x="501.501" y="355.91"/>
      <point x="336.078" y="430.253"/>
      <point x="158.308" y="356.709" type="qcurve" smooth="yes"/>
      <point x="146.734" y="351.941"/>
      <point x="134.416" y="358.756"/>
      <point x="136.379" y="368.822" type="qcurve" smooth="yes"/>
      <point x="200.381" y="696.923" type="line" smooth="yes"/>
      <point x="200.927" y="699.412"/>
      <point x="203.338" y="707.675"/>
      <point x="213.539" y="728.796"/>
      <point x="226.798" y="744.938"/>
      <point x="251.051" y="758.18"/>
      <point x="265.575" y="758.18" type="qcurve" smooth="yes"/>
      <point x="571.575" y="758.18" type="line" smooth="yes"/>
      <point x="578.604" y="758.18"/>
      <point x="583.263" y="747.871"/>
      <point x="577.643" y="730.293"/>
      <point x="570.262" y="720.101" type="qcurve" smooth="yes"/>
      <point x="558.997" y="704.545"/>
      <point x="527.154" y="682.022"/>
      <point x="516.426" y="682.022" type="qcurve" smooth="yes"/>
      <point x="263.672" y="682.021" type="line"/>
      <point x="216.027" y="437.774" type="line"/>
      <point x="399.748" y="508.228"/>
      <point x="578.142" y="417.466"/>
      <point x="568.039" y="258.342" type="qcurve" smooth="yes"/>
      <point x="557.682" y="96.3174"/>
      <point x="436.312" y="13.1582" type="qcurve" smooth="yes"/>
      <point x="369.843" y="-32.3867"/>
      <point x="277.614" y="-38.042" type="qcurve" smooth="yes"/>
      <point x="108.429" y="-48.6152"/>
      <point x="62.4033" y="115.608" type="qcurve" smooth="yes"/>
      <point x="59.9355" y="124.414"/>
      <point x="78.6016" y="155.73"/>
    </contour>
  </outline>
</glyph>
<glyph name="six" format="1">
  <advance width="596"/>
  <unicode hex="0036"/>
  <outline>
    <contour>
      <point x="157.349" y="364.222" type="qcurve"/>
      <point x="257.866" y="468.098"/>
      <point x="386.41" y="462.059" type="qcurve" smooth="yes"/>
      <point x="625.413" y="450.426"/>
      <point x="554.173" y="178.224" type="qcurve" smooth="yes"/>
      <point x="539.54" y="122.19"/>
      <point x="507.614" y="77.9541" type="qcurve" smooth="yes"/>
      <point x="423.875" y="-38.0791"/>
      <point x="276.427" y="-38.0791" type="qcurve" smooth="yes"/>
      <point x="58.6634" y="-38.0791"/>
      <point x="78.0352" y="272.87" type="qcurve" smooth="yes"/>
      <point x="80.5655" y="313.494"/>
      <point x="87.1455" y="359.436" type="qcurve" smooth="yes"/>
      <point x="111.06" y="527.974"/>
      <point x="173.527" y="623.832" type="qcurve" smooth="yes"/>
      <point x="211.18" y="681.611"/>
      <point x="313.518" y="751.28"/>
      <point x="362.706" y="757.974" type="qcurve" smooth="yes"/>
      <point x="556.984" y="784.409"/>
      <point x="589.794" y="624.268" type="qcurve" smooth="yes"/>
      <point x="591.693" y="614.996"/>
      <point x="572.089" y="583.486"/>
      <point x="541.211" y="558.505"/>
      <point x="516.105" y="553.846"/>
      <point x="514.206" y="563.118" type="qcurve" smooth="yes"/>
      <point x="485.016" y="705.591"/>
      <point x="313.292" y="682.225" type="qcurve" smooth="yes"/>
      <point x="279.819" y="677.671"/>
      <point x="246.692" y="655.063"/>
      <point x="231.526" y="631.791" type="qcurve" smooth="yes"/>
      <point x="184.23" y="559.213"/>
      <point x="162.854" y="408.564" type="qcurve" smooth="yes"/>
      <point x="159.627" y="386.038"/>
    </contour>
    <contour>
      <point x="152.688" y="289.492" type="qcurve" smooth="yes"/>
      <point x="149.113" y="38.0791"/>
      <point x="331.575" y="38.0791" type="qcurve" smooth="yes"/>
      <point x="370.054" y="38.0787"/>
      <point x="427.767" y="54.3763"/>
      <point x="449.165" y="69.741"/>
      <point x="454.896" y="77.6836" type="qcurve" smooth="yes"/>
      <point x="470.191" y="98.8742"/>
      <point x="479.826" y="135.775" type="qcurve" smooth="yes"/>
      <point x="542.587" y="375.574"/>
      <point x="329.589" y="385.94" type="qcurve" smooth="yes"/>
      <point x="225.233" y="390.843"/>
      <point x="172.379" y="319.687" type="qcurve" smooth="yes"/>
      <point x="163.605" y="307.876"/>
      <point x="155.159" y="293.469" type="qcurve" smooth="yes"/>
      <point x="154.295" y="291.994"/>
    </contour>
  </outline>
</glyph>
<glyph name="seven" format="1">
  <advance width="536"/>
  <unicode hex="0037"/>
  <outline>
    <contour>
      <point x="114.738" y="720.1" type="qcurve" smooth="yes"/>
      <point x="126.003" y="735.655"/>
      <point x="157.846" y="758.179"/>
      <point x="168.573" y="758.179" type="qcurve" smooth="yes"/>
      <point x="557.574" y="758.18" type="line" smooth="yes"/>
      <point x="565.982" y="758.18"/>
      <point x="568.981" y="742.438"/>
      <point x="563.791" y="732.462" type="qcurve" smooth="yes"/>
      <point x="212.79" y="12.3613" type="line" smooth="yes"/>
      <point x="205.619" y="-2.35156"/>
      <point x="175.248" y="-30.9668"/>
      <point x="147.641" y="-41.0664"/>
      <point x="138.038" y="-27.0752"/>
      <point x="145.209" y="-12.3613" type="qcurve" smooth="yes"/>
      <point x="483.675" y="682.021" type="line"/>
      <point x="113.425" y="682.021" type="line" smooth="yes"/>
      <point x="106.396" y="682.021"/>
      <point x="101.737" y="692.329"/>
      <point x="107.357" y="709.907"/>
    </contour>
  </outline>
</glyph>
<glyph name="eight" format="1">
  <advance width="582"/>
  <unicode hex="0038"/>
  <outline>
    <contour>
      <point x="327.729" y="676.924" type="qcurve" smooth="yes"/>
      <point x="295.02" y="676.372"/>
      <point x="247.446" y="662.129"/>
      <point x="234.373" y="652.093"/>
      <point x="231.594" y="648.16" type="qcurve" smooth="yes"/>
      <point x="208.673" y="615.73"/>
      <point x="205.053" y="546.011" type="qcurve" smooth="yes"/>
      <point x="198.364" y="417.202"/>
      <point x="333.173" y="404.004" type="qcurve" smooth="yes"/>
      <point x="367.427" y="400.666"/>
      <point x="429.386" y="408.363"/>
      <point x="457.503" y="418.327"/>
      <point x="461.481" y="421.734" type="qcurve" smooth="yes"/>
      <point x="462.561" y="422.996"/>
      <point x="468.185" y="433.647"/>
      <point x="477.223" y="462.006"/>
      <point x="479.063" y="477.979" type="qcurve" smooth="yes"/>
      <point x="490.921" y="579.871"/>
      <point x="415.627" y="678.334"/>
    </contour>
    <contour>
      <point x="382.271" y="753.076" type="qcurve" smooth="yes"/>
      <point x="581.457" y="756.272"/>
      <point x="554.937" y="528.384" type="qcurve" smooth="yes"/>
      <point x="547.689" y="465.501"/>
      <point x="510.813" y="417.423" type="qcurve" smooth="yes"/>
      <point x="485.532" y="384.462"/>
      <point x="425.319" y="342.78"/>
      <point x="367.219" y="327.953"/>
      <point x="303.558" y="323.614"/>
      <point x="274.828" y="327.997" type="qcurve" smooth="yes"/>
      <point x="121.168" y="343.04"/>
      <point x="128.947" y="492.854" type="qcurve" smooth="yes"/>
      <point x="133.68" y="583.961"/>
      <point x="177.7" y="646.244" type="qcurve" smooth="yes"/>
      <point x="251.651" y="750.874"/>
    </contour>
    <contour>
      <point x="287.464" y="326.921" type="qcurve" smooth="yes"/>
      <point x="249.018" y="326.921"/>
      <point x="191.38" y="311.014"/>
      <point x="171.942" y="297.393"/>
      <point x="167.685" y="291.448" type="qcurve" smooth="yes"/>
      <point x="157.557" y="277.307"/>
      <point x="139.373" y="213.783"/>
      <point x="138.068" y="172.975" type="qcurve" smooth="yes"/>
      <point x="135.773" y="106.403"/>
      <point x="219.875" y="38.5562"/>
      <point x="308.671" y="38.0781" type="qcurve" smooth="yes"/>
      <point x="353.222" y="37.8556"/>
      <point x="421.344" y="55.4388"/>
      <point x="446.22" y="71.563"/>
      <point x="451.229" y="78.4775" type="qcurve" smooth="yes"/>
      <point x="466.863" y="100.056"/>
      <point x="474.349" y="139.657" type="qcurve" smooth="yes"/>
      <point x="510.507" y="327.867"/>
    </contour>
    <contour>
      <point x="342.536" y="403.079" type="qcurve" smooth="yes"/>
      <point x="591.494" y="404.135"/>
      <point x="549.645" y="186.301" type="qcurve" smooth="yes"/>
      <point x="538.267" y="126.118"/>
      <point x="503.724" y="78.4385" type="qcurve" smooth="yes"/>
      <point x="418.709" y="-38.9056"/>
      <point x="253.328" y="-38.0791" type="qcurve" smooth="yes"/>
      <point x="56.5509" y="-37.0201"/>
      <point x="61.9307" y="119.05" type="qcurve" smooth="yes"/>
      <point x="65.2132" y="221.713"/>
      <point x="114.531" y="290.573" type="qcurve" smooth="yes"/>
      <point x="195.109" y="403.079"/>
    </contour>
  </outline>
</glyph>
<glyph name="nine" format="1">
  <advance width="573"/>
  <unicode hex="0039"/>
  <outline>
    <contour>
      <point x="470.572" y="324.964" type="qcurve"/>
      <point x="373.684" y="238.293"/>
      <point x="256.58" y="252.023" type="qcurve" smooth="yes"/>
      <point x="82.29" y="272.093"/>
      <point x="93.958" y="455.609" type="qcurve" smooth="yes"/>
      <point x="97.6738" y="519.03"/>
      <point x="124.447" y="614.008"/>
      <point x="155.357" y="656.818" type="qcurve" smooth="yes"/>
      <point x="228.979" y="758.784"/>
      <point x="342.649" y="758.18" type="qcurve" smooth="yes"/>
      <point x="611.629" y="757.082"/>
      <point x="553.485" y="411.681" type="qcurve" smooth="yes"/>
      <point x="550.46" y="393.711"/>
      <point x="546.551" y="374.834" type="qcurve" smooth="yes"/>
      <point x="505.278" y="175.816"/>
      <point x="432.747" y="75.6104" type="qcurve" smooth="yes"/>
      <point x="392.354" y="19.8057"/>
      <point x="294.649" y="-38.0781"/>
      <point x="251.427" y="-38.0781" type="qcurve" smooth="yes"/>
      <point x="116.752" y="-38.0801"/>
      <point x="51.043" y="44.3164" type="qcurve" smooth="yes"/>
      <point x="45.9219" y="50.7383"/>
      <point x="59.7754" y="80.5508"/>
      <point x="89.1523" y="108.888"/>
      <point x="117.835" y="120.104"/>
      <point x="122.956" y="113.683" type="qcurve" smooth="yes"/>
      <point x="183.247" y="38.0791"/>
      <point x="306.575" y="38.0791" type="qcurve" smooth="yes"/>
      <point x="336.11" y="38.0791"/>
      <point x="365.866" y="55.7734"/>
      <point x="380.2" y="75.5771" type="qcurve" smooth="yes"/>
      <point x="433.702" y="149.492"/>
    </contour>
    <contour>
      <point x="483.302" y="400.611" type="qcurve"/>
      <point x="516.694" y="681.087"/>
      <point x="287.354" y="682.021" type="qcurve" smooth="yes"/>
      <point x="226.309" y="682.347"/>
      <point x="208.05" y="657.052" type="qcurve" smooth="yes"/>
      <point x="196.018" y="640.388"/>
      <point x="173.098" y="560.55"/>
      <point x="170.045" y="508.443" type="qcurve" smooth="yes"/>
      <point x="159.71" y="345.906"/>
      <point x="315.421" y="327.978" type="qcurve" smooth="yes"/>
      <point x="418.953" y="315.839"/>
      <point x="471.433" y="383.797" type="qcurve" smooth="yes"/>
      <point x="477.385" y="391.504"/>
    </contour>
  </outline>
</glyph>
<glyph name="colon" format="1">
  <advance width="223"/>
  <unicode hex="003A"/>
  <outline>
    <contour>
      <point x="91" y="164" type="qcurve" smooth="yes"/>
      <point x="130" y="209"/>
      <point x="163" y="162" type="qcurve" smooth="yes"/>
      <point x="191" y="123"/>
      <point x="158" y="86" type="qcurve" smooth="yes"/>
      <point x="119" y="42"/>
      <point x="63" y="131"/>
    </contour>
    <contour>
      <point x="116" y="464" type="qcurve" smooth="yes"/>
      <point x="155" y="509"/>
      <point x="188" y="462" type="qcurve" smooth="yes"/>
      <point x="216" y="423"/>
      <point x="183" y="386" type="qcurve" smooth="yes"/>
      <point x="144" y="342"/>
      <point x="88" y="431"/>
    </contour>
  </outline>
</glyph>
<glyph name="semicolon" format="1">
  <advance width="206"/>
  <unicode hex="003B"/>
  <outline>
    <contour>
      <point x="110" y="131"/>
      <point x="137" y="139"/>
      <point x="140" y="131" type="qcurve" smooth="yes"/>
      <point x="193" y="5"/>
      <point x="74" y="-117" type="qcurve" smooth="yes"/>
      <point x="60" y="-132"/>
      <point x="30" y="-145"/>
      <point x="18" y="-134"/>
      <point x="30" y="-105"/>
      <point x="45" y="-90" type="qcurve" smooth="yes"/>
      <point x="60" y="-74"/>
      <point x="79" y="-33"/>
      <point x="82" y="30"/>
      <point x="66" y="65" type="qcurve" smooth="yes"/>
      <point x="63" y="73"/>
      <point x="80" y="104"/>
    </contour>
    <contour>
      <point x="116" y="464" type="qcurve" smooth="yes"/>
      <point x="155" y="509"/>
      <point x="188" y="462" type="qcurve" smooth="yes"/>
      <point x="216" y="423"/>
      <point x="183" y="386" type="qcurve" smooth="yes"/>
      <point x="144" y="342"/>
      <point x="88" y="431"/>
    </contour>
  </outline>
</glyph>
<glyph name="less" format="1">
  <advance width="517"/>
  <unicode hex="003C"/>
  <outline>
    <contour>
      <point x="526.906" y="404.026"/>
      <point x="496.625" y="375.284"/>
      <point x="482.756" y="370.1" type="qcurve" smooth="yes"/>
      <point x="173.568" y="254.515" type="line"/>
      <point x="501.579" y="118.187" type="line" smooth="yes"/>
      <point x="509.632" y="114.84"/>
      <point x="502.022" y="87.9986"/>
      <point x="475.404" y="57.6155"/>
      <point x="444.474" y="40.4663"/>
      <point x="436.421" y="43.8135" type="qcurve" smooth="yes"/>
      <point x="39.4219" y="208.813" type="line" smooth="yes"/>
      <point x="9.50702" y="221.246"/>
      <point x="81.457" y="276.133" type="qcurve" smooth="yes"/>
      <point x="89.2461" y="281.901"/>
      <point x="89.2461" y="281.901" type="qcurve"/>
      <point x="517.245" y="441.902" type="line" smooth="yes"/>
      <point x="531.114" y="447.087"/>
      <point x="540.996" y="433.359"/>
    </contour>
  </outline>
</glyph>
<glyph name="equal" format="1">
  <advance width="380"/>
  <unicode hex="003D"/>
  <outline>
    <contour>
      <point x="50.8135" y="162.104" type="qcurve" smooth="yes"/>
      <point x="62.1067" y="177.659"/>
      <point x="93.9478" y="200.122"/>
      <point x="104.646" y="200.079" type="qcurve" smooth="yes"/>
      <point x="359.645" y="199.079" type="line" smooth="yes"/>
      <point x="366.654" y="199.051"/>
      <point x="371.259" y="188.696"/>
      <point x="365.586" y="171.09"/>
      <point x="358.187" y="160.897" type="qcurve" smooth="yes"/>
      <point x="346.893" y="145.342"/>
      <point x="315.052" y="122.879"/>
      <point x="304.354" y="122.921" type="qcurve" smooth="yes"/>
      <point x="49.3545" y="123.922" type="line" smooth="yes"/>
      <point x="42.3457" y="123.949"/>
      <point x="37.7412" y="134.305"/>
      <point x="43.4141" y="151.911"/>
    </contour>
    <contour>
      <point x="60.7383" y="281" type="qcurve" smooth="yes"/>
      <point x="72.0031" y="296.555"/>
      <point x="103.846" y="319.078"/>
      <point x="114.574" y="319.078" type="qcurve" smooth="yes"/>
      <point x="369.574" y="319.078" type="line" smooth="yes"/>
      <point x="376.604" y="319.078"/>
      <point x="381.262" y="308.77"/>
      <point x="375.642" y="291.192"/>
      <point x="368.262" y="281" type="qcurve" smooth="yes"/>
      <point x="356.997" y="265.444"/>
      <point x="325.154" y="242.921"/>
      <point x="314.426" y="242.921" type="qcurve" smooth="yes"/>
      <point x="59.4258" y="242.921" type="line" smooth="yes"/>
      <point x="52.3964" y="242.921"/>
      <point x="47.7376" y="253.229"/>
      <point x="53.3576" y="270.808"/>
    </contour>
  </outline>
</glyph>
<glyph name="greater" format="1">
  <advance width="487"/>
  <unicode hex="003E"/>
  <outline>
    <contour>
      <point x="55" y="437"/>
      <point x="86" y="454"/>
      <point x="94" y="450" type="qcurve" smooth="yes"/>
      <point x="487" y="283" type="line"/>
      <point x="494" y="252"/>
      <point x="466" y="227" type="qcurve" smooth="yes"/>
      <point x="455" y="217"/>
      <point x="438" y="210" type="qcurve" smooth="yes"/>
      <point x="18" y="43" type="line" smooth="yes"/>
      <point x="4" y="37"/>
      <point x="-7" y="51"/>
      <point x="6" y="80"/>
      <point x="36" y="109"/>
      <point x="50" y="115" type="qcurve" smooth="yes"/>
      <point x="357" y="236" type="line"/>
      <point x="28" y="376" type="line" smooth="yes"/>
      <point x="20" y="379"/>
      <point x="28" y="406"/>
    </contour>
  </outline>
</glyph>
<glyph name="question" format="1">
  <advance width="554"/>
  <unicode hex="003F"/>
  <outline>
    <contour>
      <point x="142" y="517"/>
      <point x="116" y="499"/>
      <point x="107" y="497" type="qcurve" smooth="yes"/>
      <point x="88" y="492"/>
      <point x="90" y="508" type="qcurve" smooth="yes"/>
      <point x="96" y="596"/>
      <point x="143" y="657" type="qcurve" smooth="yes"/>
      <point x="201" y="732"/>
      <point x="278" y="751" type="qcurve" smooth="yes"/>
      <point x="354" y="770"/>
      <point x="429" y="758" type="qcurve" smooth="yes"/>
      <point x="567" y="743"/>
      <point x="554" y="546" type="qcurve" smooth="yes"/>
      <point x="548" y="463"/>
      <point x="471" y="337"/>
      <point x="353" y="265"/>
      <point x="287" y="252" type="qcurve"/>
      <point x="286" y="207" type="line" smooth="yes"/>
      <point x="286" y="196"/>
      <point x="263" y="164"/>
      <point x="237" y="146"/>
      <point x="229" y="143" type="qcurve" smooth="yes"/>
      <point x="210" y="137"/>
      <point x="210" y="153" type="qcurve" smooth="yes"/>
      <point x="212" y="255" type="line" smooth="yes"/>
      <point x="212" y="278"/>
      <point x="245" y="311"/>
      <point x="260" y="315" type="qcurve" smooth="yes"/>
      <point x="276" y="320" type="line"/>
      <point x="350" y="325"/>
      <point x="432" y="363"/>
      <point x="446" y="383" type="qcurve" smooth="yes"/>
      <point x="473" y="422"/>
      <point x="478" y="493" type="qcurve" smooth="yes"/>
      <point x="490" y="669"/>
      <point x="371" y="682" type="qcurve" smooth="yes"/>
      <point x="313" y="690"/>
      <point x="272" y="682" type="qcurve" smooth="yes"/>
      <point x="205" y="669"/>
      <point x="192" y="652" type="qcurve" smooth="yes"/>
      <point x="184" y="642"/>
      <point x="168" y="593"/>
      <point x="166" y="560" type="qcurve" smooth="yes"/>
      <point x="165" y="549"/>
    </contour>
    <contour>
      <point x="234" y="100"/>
      <point x="259" y="118"/>
      <point x="268" y="121" type="qcurve" smooth="yes"/>
      <point x="287" y="126"/>
      <point x="286" y="111" type="qcurve" smooth="yes"/>
      <point x="282" y="27" type="line" smooth="yes"/>
      <point x="281" y="16"/>
      <point x="258" y="-16"/>
      <point x="233" y="-34"/>
      <point x="224" y="-37" type="qcurve" smooth="yes"/>
      <point x="205" y="-42"/>
      <point x="206" y="-27" type="qcurve" smooth="yes"/>
      <point x="210" y="57" type="line" smooth="yes"/>
      <point x="210" y="68"/>
    </contour>
  </outline>
</glyph>
<glyph name="at" format="1">
  <advance width="831"/>
  <unicode hex="0040"/>
  <outline>
    <contour>
      <point x="633.535" y="468.051"/>
      <point x="651.347" y="462.738"/>
      <point x="648.379" y="450.058" type="qcurve" smooth="yes"/>
      <point x="582.667" y="169.287" type="line"/>
      <point x="574.316" y="110.2"/>
      <point x="631.877" y="106.03" type="qcurve" smooth="yes"/>
      <point x="673.547" y="102.533"/>
      <point x="694.751" y="116.337" type="qcurve" smooth="yes"/>
      <point x="697.818" y="119.131"/>
      <point x="707.567" y="132.543"/>
      <point x="728.773" y="193.298"/>
      <point x="734.096" y="235.053" type="qcurve" smooth="yes"/>
      <point x="755.311" y="403.334"/>
      <point x="610.289" y="563.045"/>
      <point x="442.288" y="555.634" type="qcurve" smooth="yes"/>
      <point x="340.652" y="551.025"/>
      <point x="273.855" y="510.003" type="qcurve" smooth="yes"/>
      <point x="174.614" y="449.055"/>
      <point x="138.629" y="264.228" type="qcurve" smooth="yes"/>
      <point x="93.6035" y="29.5166"/>
      <point x="242.385" y="-49.1934" type="qcurve" smooth="yes"/>
      <point x="431.677" y="-150.085"/>
      <point x="606.241" y="-57.29" type="qcurve" smooth="yes"/>
      <point x="621.224" y="-49.3252"/>
      <point x="636.859" y="-57.1406"/>
      <point x="628.493" y="-83.8652"/>
      <point x="600.743" y="-114.744"/>
      <point x="585.76" y="-122.709" type="qcurve" smooth="yes"/>
      <point x="380.322" y="-231.915"/>
      <point x="175.615" y="-122.807" type="qcurve" smooth="yes"/>
      <point x="14.3965" y="-37.5176"/>
      <point x="63.3623" y="217.733" type="qcurve" smooth="yes"/>
      <point x="111.168" y="463.276"/>
      <point x="285.851" y="570.556" type="qcurve" smooth="yes"/>
      <point x="376.708" y="626.355"/>
      <point x="495.711" y="631.751" type="qcurve" smooth="yes"/>
      <point x="674.711" y="639.648"/>
      <point x="832.69" y="465.668"/>
      <point x="809.906" y="284.948" type="qcurve" smooth="yes"/>
      <point x="800.688" y="212.633"/>
      <point x="746.408" y="97.1445"/>
      <point x="686.714" y="58.2871" type="qcurve" smooth="yes"/>
      <point x="635.324" y="24.8359"/>
      <point x="574.123" y="29.9707" type="qcurve" smooth="yes"/>
      <point x="494.234" y="35.7588"/>
      <point x="507.177" y="121.653" type="qcurve" smooth="yes"/>
      <point x="507.345" y="122.766"/>
      <point x="507.62" y="123.941" type="qcurve" smooth="yes"/>
      <point x="573.62" y="405.942" type="line" smooth="yes"/>
      <point x="576.588" y="418.623"/>
      <point x="602.994" y="450.029"/>
    </contour>
    <contour>
      <point x="580.71" y="205.938"/>
      <point x="584.578" y="186.935"/>
      <point x="574.996" y="171.545" type="qcurve" smooth="yes"/>
      <point x="551.144" y="133.237"/>
      <point x="524.595" y="103.039" type="qcurve" smooth="yes"/>
      <point x="404.77" y="-33.2529"/>
      <point x="280.261" y="20.8828" type="qcurve" smooth="yes"/>
      <point x="181.326" y="64.3682"/>
      <point x="234.034" y="251.537" type="qcurve" smooth="yes"/>
      <point x="244.601" y="288.26"/>
      <point x="262.371" y="319.416" type="qcurve" smooth="yes"/>
      <point x="291.826" y="371.062"/>
      <point x="385.77" y="441.311"/>
      <point x="433.458" y="453.233" type="qcurve" smooth="yes"/>
      <point x="544.279" y="481.762"/>
      <point x="624.565" y="395.136" type="qcurve" smooth="yes"/>
      <point x="630.123" y="389.141"/>
      <point x="617.133" y="359.676"/>
      <point x="588.073" y="330.968"/>
      <point x="558.991" y="318.867"/>
      <point x="553.434" y="324.863" type="qcurve" smooth="yes"/>
      <point x="481.721" y="402.238"/>
      <point x="390.543" y="378.767" type="qcurve" smooth="yes"/>
      <point x="359.344" y="370.967"/>
      <point x="335.302" y="352.937"/>
      <point x="325.638" y="335.993" type="qcurve" smooth="yes"/>
      <point x="315.248" y="317.773"/>
      <point x="307.966" y="292.463" type="qcurve" smooth="yes"/>
      <point x="262.673" y="131.631"/>
      <point x="345.759" y="95.1113" type="qcurve" smooth="yes"/>
      <point x="431.15" y="57.9844"/>
      <point x="485.447" y="119.743" type="qcurve" smooth="yes"/>
      <point x="499.863" y="136.141"/>
      <point x="515.003" y="160.456" type="qcurve" smooth="yes"/>
      <point x="524.585" y="175.846"/>
      <point x="556.202" y="201.408"/>
    </contour>
  </outline>
</glyph>
<glyph name="A" format="1">
  <advance width="650"/>
  <unicode hex="0041"/>
  <outline>
    <contour>
      <point x="181.738" y="235.999" type="qcurve" smooth="yes"/>
      <point x="193.003" y="251.555"/>
      <point x="224.846" y="274.078"/>
      <point x="235.574" y="274.078" type="qcurve" smooth="yes"/>
      <point x="533.574" y="274.078" type="line" smooth="yes"/>
      <point x="540.604" y="274.078"/>
      <point x="545.262" y="263.77"/>
      <point x="539.642" y="246.191"/>
      <point x="532.261" y="235.999" type="qcurve" smooth="yes"/>
      <point x="520.996" y="220.443"/>
      <point x="489.153" y="197.921"/>
      <point x="478.425" y="197.921" type="qcurve" smooth="yes"/>
      <point x="180.426" y="197.921" type="line" smooth="yes"/>
      <point x="173.396" y="197.921"/>
      <point x="168.737" y="208.229"/>
      <point x="174.357" y="225.807"/>
    </contour>
    <contour>
      <point x="55.6553" y="-41.127"/>
      <point x="44.9258" y="-28.2129"/>
      <point x="51.5771" y="-13.6982" type="qcurve" smooth="yes"/>
      <point x="381.578" y="706.403" type="line"/>
      <point x="381.578" y="706.403"/>
      <point x="411.966" y="740.617" type="qcurve" smooth="yes"/>
      <point x="448.505" y="776.069"/>
      <point x="453.786" y="750.715" type="qcurve" smooth="yes"/>
      <point x="603.785" y="30.6143" type="line" smooth="yes"/>
      <point x="605.712" y="21.3643"/>
      <point x="586.152" y="-10.1377"/>
      <point x="555.28" y="-35.1504"/>
      <point x="530.141" y="-39.8652"/>
      <point x="528.214" y="-30.6152" type="qcurve" smooth="yes"/>
      <point x="394.434" y="611.623" type="line"/>
      <point x="120.422" y="13.6963" type="line" smooth="yes"/>
      <point x="113.77" y="-0.818359"/>
      <point x="83.7793" y="-29.9355"/>
    </contour>
  </outline>
</glyph>
<glyph name="B" format="1">
  <advance width="600"/>
  <unicode hex="0042"/>
  <outline>
    <contour>
      <point x="170.355" y="401.624" type="line"/>
      <point x="343.489" y="394.055" type="line" smooth="yes"/>
      <point x="380.408" y="391.712"/>
      <point x="410.25" y="390.238" type="qcurve" smooth="yes"/>
      <point x="424.279" y="391.444"/>
      <point x="436.668" y="397.666" type="qcurve" smooth="yes"/>
      <point x="451.714" y="405.222"/>
      <point x="469.642" y="423.254" type="qcurve" smooth="yes"/>
      <point x="492.635" y="446.086"/>
      <point x="491.925" y="490.044" type="qcurve" smooth="yes"/>
      <point x="491.015" y="523.743"/>
      <point x="473.407" y="555.56" type="qcurve" smooth="yes"/>
      <point x="456.212" y="584.866"/>
      <point x="425.551" y="607.766" type="qcurve" smooth="yes"/>
      <point x="378.188" y="642.657"/>
      <point x="291.456" y="660.2" type="qcurve" smooth="yes"/>
      <point x="249.118" y="668.539"/>
      <point x="193.927" y="675.401" type="qcurve"/>
    </contour>
    <contour>
      <point x="355.303" y="314.029" type="qcurve" smooth="yes"/>
      <point x="352.206" y="313.922"/>
      <point x="350.427" y="313.922" type="qcurve" smooth="yes"/>
      <point x="268.495" y="313.922"/>
      <point x="163.13" y="317.707" type="qcurve"/>
      <point x="138.969" y="37.0811" type="line"/>
      <point x="254.1" y="26.6995"/>
      <point x="340.757" y="37.8809" type="qcurve" smooth="yes"/>
      <point x="405.302" y="46.8459"/>
      <point x="446.578" y="68.8184" type="qcurve" smooth="yes"/>
      <point x="465.382" y="79.5051"/>
      <point x="479.638" y="94.7874"/>
      <point x="486.688" y="112.261" type="qcurve" smooth="yes"/>
      <point x="501.029" y="146.517"/>
      <point x="493.297" y="186.502" type="qcurve" smooth="yes"/>
      <point x="485.669" y="227.909"/>
      <point x="455.938" y="262.47" type="qcurve" smooth="yes"/>
      <point x="415.257" y="310.117"/>
      <point x="390.591" y="312.542" type="qcurve" smooth="yes"/>
      <point x="374.126" y="313.113"/>
    </contour>
    <contour>
      <point x="479.177" y="377.141" type="qcurve"/>
      <point x="501.33" y="362.909"/>
      <point x="527.467" y="332.299" type="qcurve" smooth="yes"/>
      <point x="560.333" y="294.093"/>
      <point x="568.95" y="247.324" type="qcurve" smooth="yes"/>
      <point x="578.973" y="195.484"/>
      <point x="557.312" y="143.739" type="qcurve" smooth="yes"/>
      <point x="541.34" y="104.156"/>
      <point x="470.981" y="28.3717"/>
      <point x="427.72" y="4.27441" type="qcurve" smooth="yes"/>
      <point x="369.899" y="-26.9574"/>
      <point x="291.241" y="-37.8818" type="qcurve" smooth="yes"/>
      <point x="195.805" y="-50.196"/>
      <point x="70.833" y="-38.0039" type="qcurve" smooth="yes"/>
      <point x="61.0348" y="-37.0491"/>
      <point x="61.9971" y="-25.8604" type="qcurve" smooth="yes"/>
      <point x="123.996" y="694.24" type="line" smooth="yes"/>
      <point x="124.796" y="697.022"/>
      <point x="128.003" y="706.203"/>
      <point x="139.9" y="729.313"/>
      <point x="154.003" y="746.491"/>
      <point x="177.836" y="759.394"/>
      <point x="191.155" y="758.104" type="qcurve" smooth="yes"/>
      <point x="285.848" y="748.937"/>
      <point x="352.514" y="735.808" type="qcurve" smooth="yes"/>
      <point x="443.813" y="717.341"/>
      <point x="494.484" y="680.011" type="qcurve" smooth="yes"/>
      <point x="527.789" y="655.136"/>
      <point x="546.779" y="622.77" type="qcurve" smooth="yes"/>
      <point x="566.986" y="586.255"/>
      <point x="568.074" y="545.955" type="qcurve" smooth="yes"/>
      <point x="569.367" y="465.914"/>
      <point x="497.874" y="394.916" type="qcurve" smooth="yes"/>
      <point x="488.949" y="385.94"/>
    </contour>
  </outline>
</glyph>
<glyph name="C" format="1">
  <advance width="674"/>
  <unicode hex="0043"/>
  <outline>
    <contour>
      <point x="602.431" y="488.938" type="qcurve" smooth="yes"/>
      <point x="592.261" y="482.048"/>
      <point x="575.419" y="477.763"/>
      <point x="566.319" y="483.748"/>
      <point x="567.007" y="491.26" type="qcurve" smooth="yes"/>
      <point x="570.878" y="533.541"/>
      <point x="553.455" y="573.427" type="qcurve" smooth="yes"/>
      <point x="535.736" y="613.995"/>
      <point x="500.458" y="641.42" type="qcurve" smooth="yes"/>
      <point x="465.794" y="668.361"/>
      <point x="422.145" y="676.299" type="qcurve" smooth="yes"/>
      <point x="381.286" y="683.729"/>
      <point x="341.031" y="672.896" type="qcurve" smooth="yes"/>
      <point x="276.584" y="655.548"/>
      <point x="234.552" y="593.143" type="qcurve" smooth="yes"/>
      <point x="190.489" y="527.724"/>
      <point x="167.396" y="428.122" type="qcurve" smooth="yes"/>
      <point x="150.723" y="356.229"/>
      <point x="153.329" y="294.118" type="qcurve" smooth="yes"/>
      <point x="156.424" y="220.371"/>
      <point x="186.806" y="163.386" type="qcurve" smooth="yes"/>
      <point x="218.977" y="103.051"/>
      <point x="333.105" y="35.9336"/>
      <point x="398.966" y="38.0684" type="qcurve" smooth="yes"/>
      <point x="462.304" y="40.1211"/>
      <point x="507.885" y="72.4795" type="qcurve" smooth="yes"/>
      <point x="541.675" y="96.4658"/>
      <point x="559.396" y="141.528" type="qcurve" smooth="yes"/>
      <point x="564.911" y="155.554"/>
      <point x="593.956" y="185.604"/>
      <point x="623.047" y="199.062"/>
      <point x="636.121" y="188.498"/>
      <point x="630.605" y="174.473" type="qcurve" smooth="yes"/>
      <point x="614.01" y="132.271"/>
      <point x="549.043" y="49.1631"/>
      <point x="506.313" y="18.8291" type="qcurve" smooth="yes"/>
      <point x="430.045" y="-35.3125"/>
      <point x="345.033" y="-38.0693" type="qcurve" smooth="yes"/>
      <point x="271.047" y="-40.4678"/>
      <point x="208.551" y="-3.71484" type="qcurve" smooth="yes"/>
      <point x="147.567" y="32.1475"/>
      <point x="113.194" y="96.6133" type="qcurve" smooth="yes"/>
      <point x="80.5439" y="157.854"/>
      <point x="77.2021" y="237.517" type="qcurve" smooth="yes"/>
      <point x="74.3604" y="305.202"/>
      <point x="92.6064" y="383.879" type="qcurve" smooth="yes"/>
      <point x="119.73" y="500.859"/>
      <point x="178.137" y="587.572" type="qcurve" smooth="yes"/>
      <point x="216.536" y="644.584"/>
      <point x="326.392" y="731.877"/>
      <point x="382.969" y="747.105" type="qcurve" smooth="yes"/>
      <point x="434.038" y="760.85"/>
      <point x="531.488" y="743.13"/>
      <point x="569.664" y="713.458" type="qcurve" smooth="yes"/>
      <point x="608.223" y="683.483"/>
      <point x="627.693" y="638.901" type="qcurve" smooth="yes"/>
      <point x="647.618" y="593.291"/>
      <point x="642.991" y="542.739" type="qcurve" smooth="yes"/>
      <point x="641.941" y="531.276"/>
      <point x="617.95" y="499.453"/>
    </contour>
  </outline>
</glyph>
<glyph name="D" format="1">
  <advance width="643"/>
  <unicode hex="0044"/>
  <outline>
    <contour>
      <point x="128.13" y="37.4434" type="line"/>
      <point x="274.481" y="29.8369"/>
      <point x="459.727" y="90.2451"/>
      <point x="495.463" y="138.199" type="qcurve" smooth="yes"/>
      <point x="546.773" y="207.049"/>
      <point x="550.931" y="333.045" type="qcurve" smooth="yes"/>
      <point x="556.354" y="507.449"/>
      <point x="378.025" y="682.021"/>
      <point x="190.945" y="683.63" type="qcurve"/>
    </contour>
    <contour>
      <point x="51.0195" y="-25.6152" type="qcurve" smooth="yes"/>
      <point x="121.021" y="694.486" type="line" smooth="yes"/>
      <point x="121.427" y="696.943"/>
      <point x="123.408" y="705.138"/>
      <point x="132.713" y="726.33"/>
      <point x="145.568" y="742.864"/>
      <point x="170.174" y="757.251"/>
      <point x="185.442" y="758.146" type="qcurve" smooth="yes"/>
      <point x="411.445" y="771.389"/>
      <point x="633.245" y="585.636"/>
      <point x="627.068" y="386.955" type="qcurve" smooth="yes"/>
      <point x="622.119" y="236.976"/>
      <point x="545.531" y="134.875" type="qcurve" smooth="yes"/>
      <point x="465.2" y="27.7861"/>
      <point x="224.6" y="-48.1846"/>
      <point x="60.3789" y="-38.0479" type="qcurve" smooth="yes"/>
      <point x="49.873" y="-37.4004"/>
    </contour>
  </outline>
</glyph>
<glyph name="E" format="1">
  <advance width="576"/>
  <unicode hex="0045"/>
  <outline>
    <contour>
      <point x="581" y="758" type="line" smooth="yes"/>
      <point x="591" y="758"/>
      <point x="591" y="748" type="qcurve" smooth="yes"/>
      <point x="591" y="737"/>
      <point x="568" y="705"/>
      <point x="536" y="682"/>
      <point x="525" y="682" type="qcurve" smooth="yes"/>
      <point x="188" y="682" type="line"/>
      <point x="164" y="402" type="line"/>
      <point x="334" y="402"/>
      <point x="505" y="402" type="qcurve" smooth="yes"/>
      <point x="520" y="402"/>
      <point x="513" y="383" type="qcurve" smooth="yes"/>
      <point x="505" y="358"/>
      <point x="460" y="326"/>
      <point x="449" y="326" type="qcurve" smooth="yes"/>
      <point x="303" y="326"/>
      <point x="157" y="326" type="qcurve"/>
      <point x="133" y="38" type="line"/>
      <point x="325" y="38"/>
      <point x="518" y="38" type="qcurve" smooth="yes"/>
      <point x="533" y="38"/>
      <point x="526" y="19" type="qcurve" smooth="yes"/>
      <point x="518" y="-6"/>
      <point x="473" y="-38"/>
      <point x="462" y="-38" type="qcurve" smooth="yes"/>
      <point x="69" y="-38" type="line" smooth="yes"/>
      <point x="62" y="-39"/>
      <point x="55" y="-32"/>
      <point x="56" y="-24" type="qcurve" smooth="yes"/>
      <point x="117" y="694" type="line" smooth="yes"/>
      <point x="118" y="705"/>
      <point x="130" y="722" type="qcurve" smooth="yes"/>
      <point x="152" y="751"/>
      <point x="176" y="757" type="qcurve" smooth="yes"/>
      <point x="181" y="758"/>
      <point x="185" y="758"/>
      <point x="187" y="758" type="qcurve" smooth="yes"/>
    </contour>
  </outline>
</glyph>
<glyph name="F" format="1">
  <advance width="581"/>
  <unicode hex="0046"/>
  <outline>
    <contour>
      <point x="117" y="694" type="line" smooth="yes"/>
      <point x="118" y="705"/>
      <point x="152" y="751"/>
      <point x="176" y="757" type="qcurve" smooth="yes"/>
      <point x="181" y="758"/>
      <point x="185" y="758"/>
      <point x="187" y="758" type="qcurve" smooth="yes"/>
      <point x="581" y="758" type="line" smooth="yes"/>
      <point x="596" y="758"/>
      <point x="589" y="739" type="qcurve" smooth="yes"/>
      <point x="581" y="714"/>
      <point x="536" y="682"/>
      <point x="525" y="682" type="qcurve" smooth="yes"/>
      <point x="188" y="682" type="line"/>
      <point x="164" y="402" type="line"/>
      <point x="334" y="402"/>
      <point x="505" y="402" type="qcurve" smooth="yes"/>
      <point x="520" y="402"/>
      <point x="513" y="383" type="qcurve" smooth="yes"/>
      <point x="505" y="358"/>
      <point x="460" y="326"/>
      <point x="449" y="326" type="qcurve" smooth="yes"/>
      <point x="303" y="326"/>
      <point x="157" y="326" type="qcurve"/>
      <point x="132" y="28" type="line"/>
      <point x="133" y="7"/>
      <point x="102" y="-20" type="qcurve" smooth="yes"/>
      <point x="91" y="-30"/>
      <point x="64" y="-41"/>
      <point x="55" y="-32"/>
      <point x="56" y="-24" type="qcurve" smooth="yes"/>
    </contour>
  </outline>
</glyph>
<glyph name="G" format="1">
  <advance width="637"/>
  <unicode hex="0047"/>
  <outline>
    <contour>
      <point x="554" y="59" type="line"/>
      <point x="457" y="-37"/>
      <point x="337" y="-38" type="qcurve" smooth="yes"/>
      <point x="267" y="-38"/>
      <point x="147" y="32"/>
      <point x="114" y="95" type="qcurve" smooth="yes"/>
      <point x="77" y="165"/>
      <point x="77" y="256" type="qcurve" smooth="yes"/>
      <point x="77" y="315"/>
      <point x="93" y="384" type="qcurve" smooth="yes"/>
      <point x="137" y="578"/>
      <point x="260" y="682" type="qcurve" smooth="yes"/>
      <point x="349" y="757"/>
      <point x="444" y="757" type="qcurve" smooth="yes"/>
      <point x="511" y="757"/>
      <point x="558" y="723" type="qcurve" smooth="yes"/>
      <point x="644" y="661"/>
      <point x="644" y="562" type="qcurve" smooth="yes"/>
      <point x="644" y="553"/>
      <point x="642" y="531"/>
      <point x="618" y="499"/>
      <point x="592" y="482"/>
      <point x="575" y="478"/>
      <point x="566" y="484"/>
      <point x="568" y="499"/>
      <point x="568" y="506" type="qcurve" smooth="yes"/>
      <point x="568" y="543"/>
      <point x="533" y="620"/>
      <point x="495" y="647" type="qcurve" smooth="yes"/>
      <point x="447" y="681"/>
      <point x="389" y="681" type="qcurve" smooth="yes"/>
      <point x="321" y="681"/>
      <point x="274" y="641" type="qcurve" smooth="yes"/>
      <point x="253" y="623"/>
      <point x="231" y="589" type="qcurve" smooth="yes"/>
      <point x="190" y="524"/>
      <point x="153" y="366"/>
      <point x="153" y="311" type="qcurve" smooth="yes"/>
      <point x="153" y="227"/>
      <point x="186" y="165" type="qcurve" smooth="yes"/>
      <point x="253" y="38"/>
      <point x="392" y="38" type="qcurve" smooth="yes"/>
      <point x="460" y="38"/>
      <point x="508" y="73" type="qcurve" smooth="yes"/>
      <point x="542" y="97"/>
      <point x="559" y="142" type="qcurve" smooth="yes"/>
      <point x="560" y="145"/>
      <point x="563" y="148" type="qcurve"/>
      <point x="577" y="299" type="line"/>
      <point x="340" y="302" type="line" smooth="yes"/>
      <point x="325" y="302"/>
      <point x="332" y="321" type="qcurve" smooth="yes"/>
      <point x="340" y="346"/>
      <point x="385" y="378"/>
      <point x="396" y="378" type="qcurve" smooth="yes"/>
      <point x="644" y="375" type="line" smooth="yes"/>
      <point x="655" y="375"/>
      <point x="654" y="363" type="qcurve" smooth="yes"/>
      <point x="622" y="26" type="line" smooth="yes"/>
      <point x="621" y="15"/>
      <point x="597" y="-18"/>
      <point x="571" y="-35"/>
      <point x="563" y="-37" type="qcurve" smooth="yes"/>
      <point x="545" y="-42"/>
      <point x="546" y="-26" type="qcurve" smooth="yes"/>
    </contour>
  </outline>
</glyph>
<glyph name="H" format="1">
  <advance width="578"/>
  <unicode hex="0048"/>
  <outline>
    <contour>
      <point x="140" y="737"/>
      <point x="166" y="755"/>
      <point x="174" y="757" type="qcurve" smooth="yes"/>
      <point x="192" y="762"/>
      <point x="191" y="746" type="qcurve" smooth="yes"/>
      <point x="162" y="400" type="line"/>
      <point x="480" y="400" type="line"/>
      <point x="505" y="694" type="line" smooth="yes"/>
      <point x="506" y="705"/>
      <point x="530" y="737"/>
      <point x="556" y="755"/>
      <point x="564" y="757" type="qcurve" smooth="yes"/>
      <point x="582" y="762"/>
      <point x="581" y="746" type="qcurve" smooth="yes"/>
      <point x="520" y="26" type="line" smooth="yes"/>
      <point x="519" y="15"/>
      <point x="495" y="-17"/>
      <point x="469" y="-35"/>
      <point x="461" y="-37" type="qcurve" smooth="yes"/>
      <point x="443" y="-42"/>
      <point x="444" y="-26" type="qcurve" smooth="yes"/>
      <point x="474" y="324" type="line"/>
      <point x="155" y="324" type="line"/>
      <point x="130" y="26" type="line" smooth="yes"/>
      <point x="129" y="15"/>
      <point x="105" y="-17"/>
      <point x="79" y="-35"/>
      <point x="71" y="-37" type="qcurve" smooth="yes"/>
      <point x="53" y="-42"/>
      <point x="54" y="-26" type="qcurve" smooth="yes"/>
      <point x="115" y="694" type="line" smooth="yes"/>
      <point x="116" y="706"/>
    </contour>
  </outline>
</glyph>
<glyph name="I" format="1">
  <advance width="247"/>
  <unicode hex="0049"/>
  <outline>
    <contour>
      <point x="158" y="737"/>
      <point x="184" y="755"/>
      <point x="192" y="757" type="qcurve" smooth="yes"/>
      <point x="210" y="762"/>
      <point x="209" y="746" type="qcurve" smooth="yes"/>
      <point x="148" y="26" type="line" smooth="yes"/>
      <point x="147" y="15"/>
      <point x="123" y="-17"/>
      <point x="97" y="-35"/>
      <point x="89" y="-37" type="qcurve" smooth="yes"/>
      <point x="71" y="-42"/>
      <point x="72" y="-26" type="qcurve" smooth="yes"/>
      <point x="133" y="694" type="line" smooth="yes"/>
      <point x="134" y="706"/>
    </contour>
  </outline>
</glyph>
<glyph name="J" format="1">
  <advance width="484"/>
  <unicode hex="004A"/>
  <outline>
    <contour>
      <point x="459.186" y="748.576" type="qcurve" smooth="yes"/>
      <point x="469.342" y="755.343"/>
      <point x="485.996" y="759.305"/>
      <point x="494.798" y="753.003"/>
      <point x="493.945" y="745.381" type="qcurve" smooth="yes"/>
      <point x="429.952" y="173.333" type="line" smooth="yes"/>
      <point x="422.595" y="104.825"/>
      <point x="387.11" y="55.2812" type="qcurve" smooth="yes"/>
      <point x="319.673" y="-38.875"/>
      <point x="206.313" y="-38.0781" type="qcurve" smooth="yes"/>
      <point x="37.3926" y="-37.0156"/>
      <point x="29.9404" y="121.617" type="qcurve" smooth="yes"/>
      <point x="29.4531" y="131.987"/>
      <point x="51.2607" y="163.791"/>
      <point x="66.8086" y="175.386" type="qcurve" smooth="yes"/>
      <point x="76.9961" y="182.982"/>
      <point x="94.8877" y="189.214"/>
      <point x="105.742" y="185.179"/>
      <point x="106.062" y="178.384" type="qcurve" smooth="yes"/>
      <point x="112.607" y="39.0156"/>
      <point x="261.688" y="38.0791" type="qcurve" smooth="yes"/>
      <point x="280.343" y="37.9482"/>
      <point x="314.814" y="44.9375"/>
      <point x="330.552" y="51.3857"/>
      <point x="333.215" y="53.4277" type="qcurve" smooth="yes"/>
      <point x="334.965" y="55.5625"/>
      <point x="341.981" y="69.9395"/>
      <point x="352.028" y="103.849"/>
      <point x="354.044" y="122.616" type="qcurve" smooth="yes"/>
      <point x="418.055" y="694.819" type="line" smooth="yes"/>
      <point x="419.356" y="706.452"/>
      <point x="443.685" y="738.248"/>
    </contour>
  </outline>
</glyph>
<glyph name="L" format="1">
  <advance width="541"/>
  <unicode hex="004C"/>
  <outline>
    <contour>
      <point x="67.7383" y="-0.000976562" type="qcurve" smooth="yes"/>
      <point x="79.0029" y="15.5547"/>
      <point x="110.846" y="38.0781"/>
      <point x="121.574" y="38.0781" type="qcurve" smooth="yes"/>
      <point x="484.574" y="38.0781" type="line" smooth="yes"/>
      <point x="491.604" y="38.0781"/>
      <point x="496.262" y="27.7695"/>
      <point x="490.642" y="10.1914"/>
      <point x="483.261" y="-0.000976562" type="qcurve" smooth="yes"/>
      <point x="471.996" y="-15.5566"/>
      <point x="440.153" y="-38.0801"/>
      <point x="429.425" y="-38.0801" type="qcurve" smooth="yes"/>
      <point x="66.4258" y="-38.0801" type="line" smooth="yes"/>
      <point x="59.3965" y="-38.0801"/>
      <point x="54.7373" y="-27.7715"/>
      <point x="60.3574" y="-10.1934"/>
    </contour>
    <contour>
      <point x="157.365" y="748.023" type="qcurve" smooth="yes"/>
      <point x="167.538" y="754.953"/>
      <point x="184.441" y="759.346"/>
      <point x="193.638" y="753.464"/>
      <point x="193.005" y="745.989" type="qcurve" smooth="yes"/>
      <point x="132.005" y="25.8887" type="line" smooth="yes"/>
      <point x="131.039" y="14.4824"/>
      <point x="107.16" y="-17.3477"/>
      <point x="91.6338" y="-27.9248" type="qcurve" smooth="yes"/>
      <point x="81.4619" y="-34.8545"/>
      <point x="64.5576" y="-39.2471"/>
      <point x="55.3613" y="-33.3652"/>
      <point x="55.9941" y="-25.8906" type="qcurve" smooth="yes"/>
      <point x="116.994" y="694.21" type="line" smooth="yes"/>
      <point x="117.961" y="705.617"/>
      <point x="141.84" y="737.447"/>
    </contour>
  </outline>
</glyph>
<glyph name="M" format="1">
  <advance width="735"/>
  <unicode hex="004D"/>
  <outline>
    <contour>
      <point x="646.593" y="-27.9521" type="qcurve" smooth="yes"/>
      <point x="636.421" y="-34.874"/>
      <point x="619.529" y="-39.2441"/>
      <point x="610.353" y="-33.3408"/>
      <point x="610.996" y="-25.8594" type="qcurve" smooth="yes"/>
      <point x="664.066" y="590.511" type="line"/>
      <point x="416.647" y="156.314" type="line" smooth="yes"/>
      <point x="415.146" y="154.045"/>
      <point x="409.81" y="146.728"/>
      <point x="395.183" y="127.594"/>
      <point x="380.816" y="114.364"/>
      <point x="364.919" y="103.171"/>
      <point x="351.528" y="106.218"/>
      <point x="347.775" y="115.513" type="qcurve" smooth="yes"/>
      <point x="171.749" y="551.463" type="line"/>
      <point x="116.965" y="25.458" type="line" smooth="yes"/>
      <point x="115.76" y="13.8896"/>
      <point x="91.5596" y="-17.918"/>
      <point x="76.0508" y="-28.3174" type="qcurve" smooth="yes"/>
      <point x="65.8887" y="-35.1309"/>
      <point x="49.1621" y="-39.2168"/>
      <point x="40.2471" y="-33.0361"/>
      <point x="41.0361" y="-25.457" type="qcurve" smooth="yes"/>
      <point x="116.035" y="694.642" type="line" smooth="yes"/>
      <point x="117.267" y="706.468"/>
      <point x="154.861" y="735.44"/>
      <point x="173.043" y="744.014" type="qcurve" smooth="yes"/>
      <point x="191.225" y="752.587" type="line"/>
      <point x="403.304" y="227.347" type="line"/>
      <point x="679.353" y="711.786" type="line" smooth="yes"/>
      <point x="688.813" y="728.39"/>
      <point x="710.122" y="747.646"/>
      <point x="727.018" y="751.406"/>
      <point x="741.21" y="750.424"/>
      <point x="745.106" y="748.192" type="qcurve" smooth="yes"/>
      <point x="749.003" y="745.96" type="line"/>
      <point x="687.002" y="25.8594" type="line" smooth="yes"/>
      <point x="686.02" y="14.4414"/>
      <point x="662.117" y="-17.3877"/>
    </contour>
  </outline>
</glyph>
<glyph name="N" format="1">
  <advance width="607"/>
  <unicode hex="004E"/>
  <outline>
    <contour>
      <point x="105" y="-18"/>
      <point x="79" y="-35"/>
      <point x="71" y="-37" type="qcurve" smooth="yes"/>
      <point x="53" y="-42"/>
      <point x="54" y="-26" type="qcurve" smooth="yes"/>
      <point x="124" y="694" type="line"/>
      <point x="162" y="741"/>
      <point x="195" y="760"/>
      <point x="199" y="753" type="qcurve" smooth="yes"/>
      <point x="495" y="153" type="line"/>
      <point x="542" y="694" type="line" smooth="yes"/>
      <point x="543" y="705"/>
      <point x="567" y="738"/>
      <point x="593" y="755"/>
      <point x="601" y="757" type="qcurve" smooth="yes"/>
      <point x="619" y="762"/>
      <point x="618" y="746" type="qcurve" smooth="yes"/>
      <point x="555" y="26" type="line" smooth="yes"/>
      <point x="554" y="14"/>
      <point x="516" y="-16"/>
      <point x="498" y="-24" type="qcurve" smooth="yes"/>
      <point x="480" y="-33" type="line"/>
      <point x="183" y="570" type="line"/>
      <point x="130" y="26" type="line" smooth="yes"/>
      <point x="129" y="14"/>
    </contour>
  </outline>
</glyph>
<glyph name="O" format="1">
  <advance width="673"/>
  <unicode hex="004F"/>
  <outline>
    <contour>
      <point x="375.869" y="682.029" type="qcurve" smooth="yes"/>
      <point x="270.095" y="685.334"/>
      <point x="225.074" y="624.163" type="qcurve" smooth="yes"/>
      <point x="200.702" y="591.048"/>
      <point x="160.29" y="462.932"/>
      <point x="151.979" y="378.584" type="qcurve" smooth="yes"/>
      <point x="119.174" y="45.7204"/>
      <point x="360.13" y="38.0693" type="qcurve" smooth="yes"/>
      <point x="470.474" y="34.5664"/>
      <point x="514.847" y="95.002" type="qcurve" smooth="yes"/>
      <point x="536.565" y="124.582"/>
      <point x="572.743" y="237.543"/>
      <point x="580.023" y="311.417" type="qcurve" smooth="yes"/>
      <point x="615.826" y="674.286"/>
    </contour>
    <contour>
      <point x="432.13" y="758.17" type="qcurve" smooth="yes"/>
      <point x="694.173" y="749.712"/>
      <point x="655.979" y="362.584" type="qcurve" smooth="yes"/>
      <point x="639.255" y="192.905"/>
      <point x="566.559" y="93.8896" type="qcurve" smooth="yes"/>
      <point x="465.894" y="-43.2154"/>
      <point x="303.869" y="-38.0713" type="qcurve" smooth="yes"/>
      <point x="40.8281" y="-29.719"/>
      <point x="76.0234" y="327.416" type="qcurve" smooth="yes"/>
      <point x="85.4611" y="423.185"/>
      <point x="130.32" y="566.79"/>
      <point x="173.505" y="625.469" type="qcurve" smooth="yes"/>
      <point x="274.785" y="763.084"/>
    </contour>
  </outline>
</glyph>
<glyph name="P" format="1">
  <advance width="569"/>
  <unicode hex="0050"/>
  <outline>
    <contour>
      <point x="130.646" y="721.377"/>
      <point x="160.78" y="750.316"/>
      <point x="174.75" y="755.713" type="qcurve" smooth="yes"/>
      <point x="294.443" y="801.957"/>
      <point x="406.444" y="757.341" type="qcurve" smooth="yes"/>
      <point x="482.738" y="726.95"/>
      <point x="524.995" y="663.445" type="qcurve" smooth="yes"/>
      <point x="570.959" y="594.366"/>
      <point x="559.875" y="512.715" type="qcurve" smooth="yes"/>
      <point x="553.631" y="466.709"/>
      <point x="498.192" y="370.259"/>
      <point x="451.231" y="330.501" type="qcurve" smooth="yes"/>
      <point x="376.279" y="267.043"/>
      <point x="276.621" y="248.342" type="qcurve" smooth="yes"/>
      <point x="185.572" y="231.253"/>
      <point x="93.0488" y="253.29" type="qcurve" smooth="yes"/>
      <point x="83.9873" y="255.448"/>
      <point x="89.1745" y="280.878"/>
      <point x="114.462" y="311.689"/>
      <point x="145.89" y="330.869"/>
      <point x="154.951" y="328.711" type="qcurve" smooth="yes"/>
      <point x="241.045" y="308.206"/>
      <point x="323.38" y="323.659" type="qcurve" smooth="yes"/>
      <point x="396.309" y="337.345"/>
      <point x="437.912" y="372.568" type="qcurve" smooth="yes"/>
      <point x="476.213" y="404.995"/>
      <point x="484.124" y="463.284" type="qcurve" smooth="yes"/>
      <point x="493.599" y="533.077"/>
      <point x="452.246" y="595.228" type="qcurve" smooth="yes"/>
      <point x="412.826" y="654.469"/>
      <point x="341.556" y="682.857" type="qcurve" smooth="yes"/>
      <point x="290.494" y="702.072"/>
      <point x="186.251" y="701.672"/>
      <point x="141.251" y="684.286" type="qcurve" smooth="yes"/>
      <point x="127.281" y="678.889"/>
      <point x="116.96" y="692.198"/>
    </contour>
    <contour>
      <point x="94.4939" y="28.7788"/>
      <point x="123.499" y="41.2098"/>
      <point x="135.209" y="29.5006"/>
      <point x="122.779" y="0.495075"/>
      <point x="93.5039" y="-28.7795"/>
      <point x="64.4985" y="-41.2104"/>
      <point x="52.7892" y="-29.5004"/>
      <point x="65.2203" y="-0.494835"/>
    </contour>
    <contour>
      <point x="157.365" y="748.023" type="qcurve" smooth="yes"/>
      <point x="167.538" y="754.953"/>
      <point x="184.442" y="759.345"/>
      <point x="193.638" y="753.464"/>
      <point x="193.005" y="745.989" type="qcurve" smooth="yes"/>
      <point x="132.005" y="25.8896" type="line" smooth="yes"/>
      <point x="131.038" y="14.482"/>
      <point x="107.159" y="-17.3478"/>
      <point x="91.6338" y="-27.9238" type="qcurve" smooth="yes"/>
      <point x="81.461" y="-34.8535"/>
      <point x="64.5569" y="-39.2458"/>
      <point x="55.3607" y="-33.3639"/>
      <point x="55.9941" y="-25.8896" type="qcurve" smooth="yes"/>
      <point x="116.995" y="694.21" type="line" smooth="yes"/>
      <point x="117.961" y="705.617"/>
      <point x="141.839" y="737.447"/>
    </contour>
  </outline>
</glyph>
<glyph name="Q" format="1">
  <advance width="668"/>
  <unicode hex="0051"/>
  <outline>
    <contour>
      <point x="432" y="758" type="qcurve" smooth="yes"/>
      <point x="694" y="750"/>
      <point x="656" y="363" type="qcurve" smooth="yes"/>
      <point x="636" y="164"/>
      <point x="536" y="57" type="qcurve"/>
      <point x="636" y="-97" type="line" smooth="yes"/>
      <point x="641" y="-104"/>
      <point x="626" y="-134"/>
      <point x="596" y="-162"/>
      <point x="568" y="-172"/>
      <point x="564" y="-165" type="qcurve" smooth="yes"/>
      <point x="459" y="-3" type="line"/>
      <point x="390" y="-40"/>
      <point x="304" y="-38" type="qcurve" smooth="yes"/>
      <point x="41" y="-30"/>
      <point x="76" y="327" type="qcurve" smooth="yes"/>
      <point x="85" y="423"/>
      <point x="130" y="567"/>
      <point x="174" y="625" type="qcurve" smooth="yes"/>
      <point x="275" y="763"/>
    </contour>
    <contour>
      <point x="376" y="682" type="qcurve" smooth="yes"/>
      <point x="270" y="685"/>
      <point x="225" y="624" type="qcurve" smooth="yes"/>
      <point x="201" y="591"/>
      <point x="160" y="463"/>
      <point x="152" y="379" type="qcurve" smooth="yes"/>
      <point x="119" y="46"/>
      <point x="360" y="38" type="qcurve" smooth="yes"/>
      <point x="398" y="37"/>
      <point x="428" y="43" type="qcurve"/>
      <point x="412" y="69" type="line" smooth="yes"/>
      <point x="407" y="76"/>
      <point x="422" y="106"/>
      <point x="452" y="134"/>
      <point x="480" y="144"/>
      <point x="484" y="137" type="qcurve" smooth="yes"/>
      <point x="513" y="93" type="line"/>
      <point x="536" y="122"/>
      <point x="573" y="238"/>
      <point x="580" y="311" type="qcurve" smooth="yes"/>
      <point x="616" y="674"/>
    </contour>
  </outline>
</glyph>
<glyph name="R" format="1">
  <advance width="597"/>
  <unicode hex="0052"/>
  <outline>
    <contour>
      <point x="319" y="259" type="line"/>
      <point x="260" y="241"/>
      <point x="173" y="241"/>
      <point x="150" y="243" type="qcurve"/>
      <point x="132" y="26" type="line" smooth="yes"/>
      <point x="131" y="15"/>
      <point x="107" y="-17"/>
      <point x="81" y="-35"/>
      <point x="73" y="-37" type="qcurve" smooth="yes"/>
      <point x="55" y="-42"/>
      <point x="56" y="-26" type="qcurve" smooth="yes"/>
      <point x="117" y="694" type="line" smooth="yes"/>
      <point x="118" y="705"/>
      <point x="130" y="722" type="qcurve" smooth="yes"/>
      <point x="155" y="755"/>
      <point x="180" y="758" type="qcurve"/>
      <point x="239" y="782"/>
      <point x="364" y="782"/>
      <point x="419" y="757" type="qcurve" smooth="yes"/>
      <point x="491" y="724"/>
      <point x="562" y="608"/>
      <point x="562" y="545" type="qcurve" smooth="yes"/>
      <point x="562" y="426"/>
      <point x="451" y="331" type="qcurve" smooth="yes"/>
      <point x="429" y="312"/>
      <point x="405" y="298" type="qcurve"/>
      <point x="517" y="33" type="line" smooth="yes"/>
      <point x="520" y="25"/>
      <point x="503" y="-6"/>
      <point x="473" y="-33"/>
      <point x="446" y="-41"/>
      <point x="443" y="-33" type="qcurve" smooth="yes"/>
    </contour>
    <contour>
      <point x="381" y="340" type="qcurve"/>
      <point x="486" y="382"/>
      <point x="486" y="490" type="qcurve" smooth="yes"/>
      <point x="486" y="545"/>
      <point x="421" y="653"/>
      <point x="303" y="706"/>
      <point x="245" y="706" type="qcurve" smooth="yes"/>
      <point x="216" y="706"/>
      <point x="189" y="700" type="qcurve"/>
      <point x="158" y="328" type="line"/>
      <point x="262" y="303"/>
      <point x="357" y="332" type="qcurve"/>
      <point x="371" y="341"/>
    </contour>
  </outline>
</glyph>
<glyph name="S" format="1">
  <advance width="624"/>
  <unicode hex="0053"/>
  <outline>
    <contour>
      <point x="579" y="526"/>
      <point x="551" y="517"/>
      <point x="547" y="524" type="qcurve" smooth="yes"/>
      <point x="513" y="589"/>
      <point x="393" y="675"/>
      <point x="325" y="682" type="qcurve" smooth="yes"/>
      <point x="283" y="686"/>
      <point x="220" y="667"/>
      <point x="195" y="641"/>
      <point x="183" y="574"/>
      <point x="217" y="494"/>
      <point x="291" y="441"/>
      <point x="345" y="422" type="qcurve" smooth="yes"/>
      <point x="348" y="421"/>
      <point x="420" y="396"/>
      <point x="439" y="388" type="qcurve" smooth="yes"/>
      <point x="568" y="333"/>
      <point x="584" y="225" type="qcurve" smooth="yes"/>
      <point x="595" y="153"/>
      <point x="549" y="84" type="qcurve" smooth="yes"/>
      <point x="523" y="44"/>
      <point x="485" y="15" type="qcurve" smooth="yes"/>
      <point x="390" y="-57"/>
      <point x="278" y="-38" type="qcurve" smooth="yes"/>
      <point x="203" y="-25"/>
      <point x="79" y="72"/>
      <point x="45" y="142" type="qcurve" smooth="yes"/>
      <point x="41" y="150"/>
      <point x="58" y="180"/>
      <point x="88" y="207"/>
      <point x="115" y="216"/>
      <point x="119" y="208" type="qcurve" smooth="yes"/>
      <point x="152" y="142"/>
      <point x="269" y="50"/>
      <point x="396" y="28"/>
      <point x="479" y="57"/>
      <point x="492" y="77" type="qcurve" smooth="yes"/>
      <point x="516" y="114"/>
      <point x="508" y="167" type="qcurve" smooth="yes"/>
      <point x="494" y="262"/>
      <point x="374" y="314" type="qcurve" smooth="yes"/>
      <point x="356" y="322"/>
      <point x="320" y="333" type="qcurve" smooth="yes"/>
      <point x="227" y="365"/>
      <point x="145" y="425"/>
      <point x="105" y="516"/>
      <point x="126" y="626"/>
      <point x="175" y="678" type="qcurve" smooth="yes"/>
      <point x="264" y="770"/>
      <point x="383" y="758" type="qcurve" smooth="yes"/>
      <point x="458" y="750"/>
      <point x="585" y="659"/>
      <point x="621" y="591" type="qcurve" smooth="yes"/>
      <point x="625" y="584"/>
      <point x="609" y="553"/>
    </contour>
  </outline>
</glyph>
<glyph name="T" format="1">
  <advance width="527"/>
  <unicode hex="0054"/>
  <outline>
    <contour>
      <point x="34" y="701" type="qcurve" smooth="yes"/>
      <point x="37" y="710"/>
      <point x="55" y="736"/>
      <point x="87" y="758"/>
      <point x="98" y="758" type="qcurve" smooth="yes"/>
      <point x="551" y="758" type="line" smooth="yes"/>
      <point x="566" y="758"/>
      <point x="559" y="739" type="qcurve" smooth="yes"/>
      <point x="551" y="714"/>
      <point x="506" y="682"/>
      <point x="495" y="682" type="qcurve" smooth="yes"/>
      <point x="340" y="682" type="line"/>
      <point x="284" y="26" type="line" smooth="yes"/>
      <point x="283" y="15"/>
      <point x="259" y="-17"/>
      <point x="233" y="-35"/>
      <point x="225" y="-37" type="qcurve" smooth="yes"/>
      <point x="207" y="-42"/>
      <point x="208" y="-26" type="qcurve" smooth="yes"/>
      <point x="268" y="682" type="line"/>
      <point x="42" y="682" type="line" smooth="yes"/>
      <point x="28" y="682"/>
    </contour>
  </outline>
</glyph>
<glyph name="U" format="1">
  <advance width="620"/>
  <unicode hex="0055"/>
  <outline>
    <contour>
      <point x="596.525" y="748.132" type="qcurve" smooth="yes"/>
      <point x="606.695" y="755.03"/>
      <point x="623.551" y="759.339"/>
      <point x="632.671" y="753.375"/>
      <point x="631.995" y="745.872" type="qcurve" smooth="yes"/>
      <point x="580.995" y="179.772" type="line" smooth="yes"/>
      <point x="580.749" y="177.028"/>
      <point x="579.783" y="173.845" type="qcurve" smooth="yes"/>
      <point x="564.244" y="122.563"/>
      <point x="533.064" y="80.793" type="qcurve" smooth="yes"/>
      <point x="479.144" y="8.55788"/>
      <point x="339.68" y="-42.4856"/>
      <point x="255.494" y="-38.0547" type="qcurve" smooth="yes"/>
      <point x="50.1823" y="-26.4723"/>
      <point x="76.0342" y="174.611" type="qcurve"/>
      <point x="117.988" y="694.125" type="line" smooth="yes"/>
      <point x="118.907" y="705.5"/>
      <point x="142.72" y="737.333"/>
      <point x="158.249" y="747.944" type="qcurve" smooth="yes"/>
      <point x="168.424" y="754.897"/>
      <point x="185.362" y="759.351"/>
      <point x="194.614" y="753.529"/>
      <point x="194.013" y="746.076" type="qcurve" smooth="yes"/>
      <point x="151.966" y="225.398" type="line"/>
      <point x="128.557" y="48.4298"/>
      <point x="312.536" y="38.0518" type="qcurve" smooth="yes"/>
      <point x="384.692" y="34.2544"/>
      <point x="468.895" y="65.226"/>
      <point x="495.751" y="101.205"/>
      <point x="505.262" y="131.075" type="qcurve"/>
      <point x="556.005" y="694.328" type="line" smooth="yes"/>
      <point x="557.037" y="705.78"/>
      <point x="581.004" y="737.604"/>
    </contour>
  </outline>
</glyph>
<glyph name="V" format="1">
  <advance width="613"/>
  <unicode hex="0056"/>
  <outline>
    <contour>
      <point x="124" y="755"/>
      <point x="149" y="760"/>
      <point x="152" y="751" type="qcurve" smooth="yes"/>
      <point x="317" y="111" type="line"/>
      <point x="561" y="704" type="line" smooth="yes"/>
      <point x="567" y="718"/>
      <point x="596" y="748"/>
      <point x="625" y="761"/>
      <point x="637" y="750"/>
      <point x="631" y="736" type="qcurve" smooth="yes"/>
      <point x="335" y="16" type="line" smooth="yes"/>
      <point x="325" y="-9"/>
      <point x="289" y="-32"/>
      <point x="276" y="-32" type="qcurve" smooth="yes"/>
      <point x="262" y="-31" type="line"/>
      <point x="76" y="689" type="line" smooth="yes"/>
      <point x="74" y="698"/>
      <point x="93" y="729"/>
    </contour>
  </outline>
</glyph>
<glyph name="W" format="1">
  <advance width="899"/>
  <unicode hex="0057"/>
  <outline>
    <contour>
      <point x="931.004" y="761.053"/>
      <point x="945.061" y="751.52"/>
      <point x="940.044" y="737.732" type="qcurve" smooth="yes"/>
      <point x="678.045" y="17.6328" type="line"/>
      <point x="678.045" y="17.6328"/>
      <point x="645.425" y="-17.0742" type="qcurve" smooth="yes"/>
      <point x="608.86" y="-51.1904"/>
      <point x="604.258" y="-30.8154" type="qcurve" smooth="yes"/>
      <point x="487.65" y="485.347" type="line"/>
      <point x="297.408" y="15.9785" type="line"/>
      <point x="297.408" y="15.9785"/>
      <point x="265.379" y="-18.8037" type="qcurve" smooth="yes"/>
      <point x="228.658" y="-53.4766"/>
      <point x="224.182" y="-30.4521" type="qcurve" smooth="yes"/>
      <point x="84.1816" y="689.648" type="line" smooth="yes"/>
      <point x="82.3662" y="698.988"/>
      <point x="102.105" y="730.522"/>
      <point x="133.005" y="755.402"/>
      <point x="158.003" y="759.891"/>
      <point x="159.818" y="750.551" type="qcurve" smooth="yes"/>
      <point x="282.181" y="121.171" type="line"/>
      <point x="470.592" y="586.021" type="line" smooth="yes"/>
      <point x="480.43" y="610.294"/>
      <point x="517.005" y="633.691"/>
      <point x="530.374" y="633.254" type="qcurve" smooth="yes"/>
      <point x="543.742" y="632.816" type="line"/>
      <point x="658.229" y="126.042" type="line"/>
      <point x="867.954" y="702.467" type="line" smooth="yes"/>
      <point x="872.971" y="716.255"/>
      <point x="901.554" y="746.646"/>
    </contour>
  </outline>
</glyph>
<glyph name="X" format="1">
  <advance width="644"/>
  <unicode hex="0058"/>
  <outline>
    <contour>
      <point x="145" y="752"/>
      <point x="172" y="761"/>
      <point x="177" y="754" type="qcurve" smooth="yes"/>
      <point x="369" y="425" type="line"/>
      <point x="598" y="723" type="line" smooth="yes"/>
      <point x="610" y="739"/>
      <point x="641" y="759"/>
      <point x="658" y="757"/>
      <point x="659" y="752" type="qcurve" smooth="yes"/>
      <point x="663" y="740"/>
      <point x="646" y="718" type="qcurve" smooth="yes"/>
      <point x="391" y="386" type="line"/>
      <point x="597" y="34" type="line" smooth="yes"/>
      <point x="601" y="27"/>
      <point x="585" y="-4"/>
      <point x="555" y="-32"/>
      <point x="528" y="-41"/>
      <point x="523" y="-34" type="qcurve" smooth="yes"/>
      <point x="327" y="303" type="line"/>
      <point x="92" y="-2" type="line" smooth="yes"/>
      <point x="80" y="-18"/>
      <point x="49" y="-39"/>
      <point x="32" y="-37"/>
      <point x="31" y="-32" type="qcurve" smooth="yes"/>
      <point x="27" y="-20"/>
      <point x="44" y="2" type="qcurve" smooth="yes"/>
      <point x="304" y="342" type="line"/>
      <point x="103" y="686" type="line" smooth="yes"/>
      <point x="99" y="693"/>
      <point x="115" y="724"/>
    </contour>
  </outline>
</glyph>
<glyph name="Y" format="1">
  <advance width="539"/>
  <unicode hex="0059"/>
  <outline>
    <contour>
      <point x="291.476" y="287.999" type="qcurve" smooth="yes"/>
      <point x="301.646" y="294.907"/>
      <point x="318.517" y="299.241"/>
      <point x="327.66" y="293.302"/>
      <point x="326.997" y="285.808" type="qcurve" smooth="yes"/>
      <point x="303.999" y="25.8076" type="line" smooth="yes"/>
      <point x="302.987" y="14.3698"/>
      <point x="279.046" y="-17.4568"/>
      <point x="263.523" y="-27.999" type="qcurve" smooth="yes"/>
      <point x="253.353" y="-34.907"/>
      <point x="236.483" y="-39.2412"/>
      <point x="227.339" y="-33.3021"/>
      <point x="228.002" y="-25.8076" type="qcurve" smooth="yes"/>
      <point x="251.001" y="234.191" type="line" smooth="yes"/>
      <point x="252.012" y="245.63"/>
      <point x="275.953" y="277.456"/>
    </contour>
    <contour>
      <point x="83.3067" y="752.699"/>
      <point x="110.437" y="760.836"/>
      <point x="114.042" y="753.011" type="qcurve" smooth="yes"/>
      <point x="307.679" y="332.762" type="line"/>
      <point x="544.969" y="714.5" type="line" smooth="yes"/>
      <point x="554.534" y="729.887"/>
      <point x="586.144" y="755.477"/>
      <point x="610.68" y="760.053"/>
      <point x="614.595" y="741.087"/>
      <point x="605.03" y="725.7" type="qcurve" smooth="yes"/>
      <point x="319.03" y="265.6" type="line" smooth="yes"/>
      <point x="278.458" y="200.33"/>
      <point x="254.702" y="223.697" type="qcurve" smooth="yes"/>
      <point x="251.957" y="227.089"/>
      <point x="251.957" y="227.089" type="qcurve"/>
      <point x="39.959" y="687.189" type="line" smooth="yes"/>
      <point x="36.3532" y="695.015"/>
      <point x="53.0424" y="725.811"/>
    </contour>
  </outline>
</glyph>
<glyph name="Z" format="1">
  <advance width="627"/>
  <unicode hex="005A"/>
  <outline>
    <contour>
      <point x="143.739" y="720.101" type="qcurve" smooth="yes"/>
      <point x="155.003" y="735.656"/>
      <point x="186.847" y="758.18"/>
      <point x="197.574" y="758.18" type="qcurve" smooth="yes"/>
      <point x="635.574" y="758.179" type="line" smooth="yes"/>
      <point x="642.571" y="758.179"/>
      <point x="647.451" y="748.143"/>
      <point x="641.655" y="730.1"/>
      <point x="633.67" y="719.291" type="qcurve" smooth="yes"/>
      <point x="130.398" y="38.0781" type="line"/>
      <point x="583.574" y="38.0791" type="line" smooth="yes"/>
      <point x="590.604" y="38.0791"/>
      <point x="595.262" y="27.7705"/>
      <point x="589.642" y="10.1924"/>
      <point x="582.261" y="0" type="qcurve" smooth="yes"/>
      <point x="570.996" y="-15.5557"/>
      <point x="539.153" y="-38.0791"/>
      <point x="528.426" y="-38.0791" type="qcurve" smooth="yes"/>
      <point x="48.4248" y="-38.0791" type="line" smooth="yes"/>
      <point x="30.0088" y="-38.0791"/>
      <point x="42" y="-12.8389" type="qcurve" smooth="yes"/>
      <point x="45.1572" y="-6.19336"/>
      <point x="50.3301" y="0.808594" type="qcurve" smooth="yes"/>
      <point x="553.601" y="682.021" type="line"/>
      <point x="142.426" y="682.021" type="line" smooth="yes"/>
      <point x="135.396" y="682.021"/>
      <point x="130.738" y="692.33"/>
      <point x="136.358" y="709.908"/>
    </contour>
  </outline>
</glyph>
<glyph name="bracketleft" format="1">
  <advance width="363"/>
  <unicode hex="005B"/>
  <outline>
    <contour>
      <point x="325.262" y="720.101" type="qcurve" smooth="yes"/>
      <point x="313.997" y="704.545"/>
      <point x="282.154" y="682.021"/>
      <point x="271.426" y="682.021" type="qcurve" smooth="yes"/>
      <point x="185.32" y="682.021" type="line"/>
      <point x="128.089" y="38.0781" type="line"/>
      <point x="290.574" y="38.0791" type="line" smooth="yes"/>
      <point x="297.603" y="38.0791"/>
      <point x="302.262" y="27.7708"/>
      <point x="296.642" y="10.1924"/>
      <point x="289.262" y="0" type="qcurve" smooth="yes"/>
      <point x="277.997" y="-15.5552"/>
      <point x="246.154" y="-38.0781"/>
      <point x="235.426" y="-38.0781" type="qcurve" smooth="yes"/>
      <point x="61.4258" y="-38.0791" type="line" smooth="yes"/>
      <point x="49.9106" y="-38.0791"/>
      <point x="51.002" y="-25.7988" type="qcurve" smooth="yes"/>
      <point x="115.003" y="694.302" type="line" smooth="yes"/>
      <point x="117.194" y="718.951"/>
      <point x="149.98" y="750.889"/>
      <point x="165.278" y="754.534" type="qcurve" smooth="yes"/>
      <point x="180.575" y="758.179" type="line"/>
      <point x="326.574" y="758.179" type="line" smooth="yes"/>
      <point x="333.604" y="758.179"/>
      <point x="338.262" y="747.871"/>
      <point x="332.642" y="730.292"/>
    </contour>
  </outline>
</glyph>
<glyph name="backslash" format="1">
  <advance width="314"/>
  <unicode hex="005C"/>
  <outline>
    <contour>
      <point x="127.945" y="755.371"/>
      <point x="152.973" y="759.905"/>
      <point x="154.811" y="750.584" type="qcurve" smooth="yes"/>
      <point x="296.812" y="30.4854" type="line" smooth="yes"/>
      <point x="298.65" y="21.1631"/>
      <point x="278.946" y="-10.3652"/>
      <point x="248.053" y="-35.2715"/>
      <point x="223.026" y="-39.8057"/>
      <point x="221.188" y="-30.4834" type="qcurve" smooth="yes"/>
      <point x="79.1865" y="689.615" type="line" smooth="yes"/>
      <point x="77.3486" y="698.937"/>
      <point x="97.0527" y="730.465"/>
    </contour>
  </outline>
</glyph>
<glyph name="bracketright" format="1">
  <advance width="338"/>
  <unicode hex="005D"/>
  <outline>
    <contour>
      <point x="127.739" y="720.101" type="qcurve" smooth="yes"/>
      <point x="139.004" y="735.656"/>
      <point x="170.847" y="758.179"/>
      <point x="181.575" y="758.179" type="qcurve" smooth="yes"/>
      <point x="333.575" y="758.179" type="line" smooth="yes"/>
      <point x="345.021" y="758.179"/>
      <point x="344.009" y="746.021" type="qcurve" smooth="yes"/>
      <point x="284.009" y="25.9209" type="line" smooth="yes"/>
      <point x="283.453" y="23.3203"/>
      <point x="281.006" y="14.6875"/>
      <point x="270.704" y="-7.37891"/>
      <point x="257.354" y="-24.2441"/>
      <point x="232.99" y="-38.0781"/>
      <point x="218.427" y="-38.0781" type="qcurve" smooth="yes"/>
      <point x="64.4248" y="-38.0791" type="line" smooth="yes"/>
      <point x="57.3955" y="-38.0791"/>
      <point x="52.7373" y="-27.7715"/>
      <point x="58.3574" y="-10.1934"/>
      <point x="65.7373" y="-0.000976562" type="qcurve" smooth="yes"/>
      <point x="77.002" y="15.5547"/>
      <point x="108.845" y="38.0781"/>
      <point x="119.573" y="38.0781" type="qcurve" smooth="yes"/>
      <point x="213.325" y="38.0791" type="line"/>
      <point x="266.979" y="682.021" type="line"/>
      <point x="126.426" y="682.021" type="line" smooth="yes"/>
      <point x="119.396" y="682.021"/>
      <point x="114.738" y="692.33"/>
      <point x="120.358" y="709.908"/>
    </contour>
  </outline>
</glyph>
<glyph name="asciicircum" format="1">
  <advance width="488"/>
  <unicode hex="005E"/>
  <outline>
    <contour>
      <point x="63.8863" y="14.8699"/>
      <point x="52.9098" y="27.5432"/>
      <point x="59.4453" y="42.0107" type="qcurve" smooth="yes"/>
      <point x="261.445" y="489.192" type="line"/>
      <point x="261.445" y="489.192"/>
      <point x="291.081" y="523.389" type="qcurve" smooth="yes"/>
      <point x="327.018" y="559.014"/>
      <point x="333.628" y="534.461" type="qcurve" smooth="yes"/>
      <point x="455.627" y="81.2793" type="line" smooth="yes"/>
      <point x="458.015" y="72.4073"/>
      <point x="439.217" y="41.0608"/>
      <point x="408.474" y="15.5053"/>
      <point x="382.76" y="9.84897"/>
      <point x="380.372" y="18.7207" type="qcurve" smooth="yes"/>
      <point x="277.691" y="400.142" type="line"/>
      <point x="128.556" y="69.9902" type="line" smooth="yes"/>
      <point x="122.02" y="55.522"/>
      <point x="92.1189" y="26.2993"/>
    </contour>
  </outline>
</glyph>
<glyph name="underscore" format="1">
  <advance width="404"/>
  <unicode hex="005F"/>
  <outline>
    <contour>
      <point x="19.7393" y="-0" type="qcurve" smooth="yes"/>
      <point x="31.0031" y="15.5551"/>
      <point x="62.8464" y="38.0781"/>
      <point x="73.5742" y="38.0781" type="qcurve" smooth="yes"/>
      <point x="374.574" y="38.0791" type="line" smooth="yes"/>
      <point x="381.604" y="38.0791"/>
      <point x="386.262" y="27.7708"/>
      <point x="380.642" y="10.1924"/>
      <point x="373.262" y="0" type="qcurve" smooth="yes"/>
      <point x="361.997" y="-15.556"/>
      <point x="330.154" y="-38.0791"/>
      <point x="319.426" y="-38.0791" type="qcurve" smooth="yes"/>
      <point x="18.4258" y="-38.0791" type="line" smooth="yes"/>
      <point x="11.3968" y="-38.0791"/>
      <point x="6.73851" y="-27.7709"/>
      <point x="12.3586" y="-10.1923"/>
    </contour>
  </outline>
</glyph>
<glyph name="grave" format="1">
  <advance width="244"/>
  <unicode hex="0060"/>
  <outline>
    <contour>
      <point x="124" y="765"/>
      <point x="152" y="776"/>
      <point x="157" y="769" type="qcurve" smooth="yes"/>
      <point x="266" y="619" type="line" smooth="yes"/>
      <point x="271" y="612"/>
      <point x="257" y="583"/>
      <point x="227" y="555"/>
      <point x="199" y="544"/>
      <point x="194" y="551" type="qcurve" smooth="yes"/>
      <point x="85" y="701" type="line" smooth="yes"/>
      <point x="80" y="708"/>
      <point x="94" y="737"/>
    </contour>
  </outline>
</glyph>
<glyph name="a" format="1">
  <advance width="516"/>
  <unicode hex="0061"/>
  <outline>
    <contour>
      <point x="511" y="51"/>
      <point x="490" y="19"/>
      <point x="440" y="-21"/>
      <point x="412" y="-32" type="qcurve" smooth="yes"/>
      <point x="357" y="-54"/>
      <point x="344" y="-12" type="qcurve" smooth="yes"/>
      <point x="338" y="5"/>
      <point x="339" y="51" type="qcurve"/>
      <point x="287" y="-12"/>
      <point x="181" y="-50"/>
      <point x="135" y="-37" type="qcurve" smooth="yes"/>
      <point x="-8" y="3"/>
      <point x="49" y="293" type="qcurve" smooth="yes"/>
      <point x="68" y="389"/>
      <point x="116" y="451" type="qcurve" smooth="yes"/>
      <point x="198" y="557"/>
      <point x="317" y="541" type="qcurve" smooth="yes"/>
      <point x="367" y="535"/>
      <point x="395" y="504" type="qcurve"/>
      <point x="418" y="535"/>
      <point x="443" y="541" type="qcurve" smooth="yes"/>
      <point x="451" y="543"/>
      <point x="460" y="536"/>
      <point x="459" y="528" type="qcurve" smooth="yes"/>
      <point x="401" y="105"/>
      <point x="418" y="52" type="qcurve" smooth="yes"/>
      <point x="426" y="28"/>
      <point x="444" y="37" type="qcurve" smooth="yes"/>
      <point x="452" y="41"/>
      <point x="482" y="66"/>
      <point x="507" y="70"/>
    </contour>
    <contour>
      <point x="344" y="151" type="qcurve"/>
      <point x="351" y="231"/>
      <point x="354" y="253" type="qcurve" smooth="yes"/>
      <point x="380" y="449"/>
      <point x="257" y="465" type="qcurve" smooth="yes"/>
      <point x="227" y="469"/>
      <point x="205" y="464" type="qcurve" smooth="yes"/>
      <point x="175" y="458"/>
      <point x="164" y="445" type="qcurve" smooth="yes"/>
      <point x="139" y="413"/>
      <point x="107" y="249"/>
      <point x="109" y="186" type="qcurve" smooth="yes"/>
      <point x="115" y="62"/>
      <point x="197" y="39" type="qcurve" smooth="yes"/>
      <point x="260" y="21"/>
      <point x="294" y="62" type="qcurve" smooth="yes"/>
      <point x="319" y="92"/>
    </contour>
  </outline>
</glyph>
<glyph name="b" format="1">
  <advance width="510"/>
  <unicode hex="0062"/>
  <outline>
    <contour>
      <point x="164.451" y="826.981" type="qcurve" smooth="yes"/>
      <point x="174.622" y="833.895"/>
      <point x="191.501" y="838.241"/>
      <point x="200.656" y="832.315"/>
      <point x="200" y="824.826" type="qcurve" smooth="yes"/>
      <point x="130" y="25.8271" type="line" smooth="yes"/>
      <point x="128.999" y="14.3955"/>
      <point x="105.072" y="-17.4307"/>
      <point x="89.5488" y="-27.9814" type="qcurve" smooth="yes"/>
      <point x="79.3779" y="-34.8945"/>
      <point x="62.499" y="-39.2412"/>
      <point x="53.3438" y="-33.3154"/>
      <point x="54" y="-25.8262" type="qcurve" smooth="yes"/>
      <point x="124" y="773.173" type="line" smooth="yes"/>
      <point x="125.001" y="784.604"/>
      <point x="148.928" y="816.431"/>
    </contour>
    <contour>
      <point x="120.106" y="251.559" type="qcurve"/>
      <point x="132" y="258"/>
      <point x="140.842" y="257.517" type="qcurve" smooth="yes"/>
      <point x="149" y="257"/>
      <point x="150.024" y="248.932" type="qcurve" smooth="yes"/>
      <point x="167" y="38"/>
      <point x="315.575" y="38.0801" type="qcurve" smooth="yes"/>
      <point x="335" y="38"/>
      <point x="341.295" y="43.751" type="qcurve" smooth="yes"/>
      <point x="345" y="47"/>
      <point x="351.443" y="56.2559" type="qcurve" smooth="yes"/>
      <point x="358" y="65"/>
      <point x="390" y="144"/>
      <point x="402.577" y="197.755" type="qcurve" smooth="yes"/>
      <point x="433" y="331"/>
      <point x="391.276" y="397.672" type="qcurve" smooth="yes"/>
      <point x="350" y="464"/>
      <point x="234.207" y="464.97" type="qcurve" smooth="yes"/>
      <point x="205" y="465"/>
      <point x="190.998" y="455.825" type="qcurve"/>
      <point x="182" y="445"/>
      <point x="169.106" y="402.597" type="qcurve" smooth="yes"/>
      <point x="155" y="356"/>
      <point x="153" y="303" type="qcurve" smooth="yes"/>
      <point x="152" y="277"/>
    </contour>
    <contour>
      <point x="108.735" y="243.814" type="qcurve"/>
      <point x="95.9941" y="236.936"/>
      <point x="79.5713" y="239.936"/>
      <point x="79.9355" y="249.171" type="qcurve" smooth="yes"/>
      <point x="81.5752" y="290.704"/>
      <point x="90.9385" y="353.873"/>
      <point x="113.743" y="425.626"/>
      <point x="159.415" y="486.237"/>
      <point x="193.342" y="510.023" type="qcurve" smooth="yes"/>
      <point x="238.222" y="541.488"/>
      <point x="289.609" y="541.127" type="qcurve" smooth="yes"/>
      <point x="416.36" y="540.055"/>
      <point x="510.995" y="389.65"/>
      <point x="477.422" y="242.244" type="qcurve" smooth="yes"/>
      <point x="456.621" y="150.719"/>
      <point x="389.435" y="18.9053"/>
      <point x="327.188" y="-18.0781" type="qcurve" smooth="yes"/>
      <point x="293.525" y="-38.0781"/>
      <point x="260.426" y="-38.0781" type="qcurve" smooth="yes"/>
      <point x="92.7236" y="-38.0781"/>
      <point x="73.9746" y="191.067" type="qcurve" smooth="yes"/>
      <point x="73.1406" y="201.26"/>
      <point x="93.3174" y="232.084"/>
    </contour>
  </outline>
</glyph>
<glyph name="c" format="1">
  <advance width="519"/>
  <unicode hex="0063"/>
  <outline>
    <contour>
      <point x="453.748" y="122.519"/>
      <point x="472.886" y="118.817"/>
      <point x="470.702" y="106.614" type="qcurve" smooth="yes"/>
      <point x="463.742" y="67.7266"/>
      <point x="438.794" y="34.8457" type="qcurve" smooth="yes"/>
      <point x="417.777" y="7.14551"/>
      <point x="368.917" y="-27.3408"/>
      <point x="325.478" y="-37.9199"/>
      <point x="279.731" y="-41.3545"/>
      <point x="261.829" y="-38.0039" type="qcurve" smooth="yes"/>
      <point x="29.957" y="-14.9199"/>
      <point x="73.2891" y="231.334" type="qcurve" smooth="yes"/>
      <point x="95.7275" y="357.302"/>
      <point x="148.653" y="432.626" type="qcurve" smooth="yes"/>
      <point x="187.533" y="487.959"/>
      <point x="285.727" y="543.874"/>
      <point x="331.884" y="545.566" type="qcurve" smooth="yes"/>
      <point x="492.651" y="551.461"/>
      <point x="499.065" y="393.278" type="qcurve" smooth="yes"/>
      <point x="499.488" y="382.859"/>
      <point x="477.585" y="351.05"/>
      <point x="462.034" y="339.498" type="qcurve" smooth="yes"/>
      <point x="451.846" y="331.93"/>
      <point x="433.994" y="325.779"/>
      <point x="423.213" y="329.897"/>
      <point x="422.936" y="336.724" type="qcurve" smooth="yes"/>
      <point x="417.347" y="474.539"/>
      <point x="278.117" y="469.435" type="qcurve" smooth="yes"/>
      <point x="254.847" y="468.581"/>
      <point x="222.775" y="456.95"/>
      <point x="209.912" y="445.022"/>
      <point x="202.869" y="434.999" type="qcurve" smooth="yes"/>
      <point x="167.623" y="384.835"/>
      <point x="148.705" y="278.635" type="qcurve" smooth="yes"/>
      <point x="129.354" y="168.666"/>
      <point x="214.146" y="48.5586"/>
      <point x="320.196" y="38.001" type="qcurve" smooth="yes"/>
      <point x="364.989" y="33.7002"/>
      <point x="391.081" y="43.4648" type="qcurve"/>
      <point x="393.69" y="50.3955"/>
      <point x="395.298" y="59.3848" type="qcurve" smooth="yes"/>
      <point x="397.481" y="71.5879"/>
      <point x="422.944" y="103.226"/>
    </contour>
  </outline>
</glyph>
<glyph name="d" format="1">
  <advance width="491"/>
  <unicode hex="0064"/>
  <outline>
    <contour>
      <point x="469.374" y="827.93" type="qcurve" smooth="yes"/>
      <point x="479.547" y="834.857"/>
      <point x="496.448" y="839.246"/>
      <point x="505.641" y="833.359"/>
      <point x="505.005" y="825.884" type="qcurve" smooth="yes"/>
      <point x="437.005" y="25.8828" type="line" smooth="yes"/>
      <point x="436.035" y="14.4736"/>
      <point x="412.151" y="-17.3555"/>
      <point x="396.626" y="-27.9297" type="qcurve" smooth="yes"/>
      <point x="386.454" y="-34.8574"/>
      <point x="369.552" y="-39.2461"/>
      <point x="360.359" y="-33.3594"/>
      <point x="360.995" y="-25.8838" type="qcurve" smooth="yes"/>
      <point x="428.996" y="774.117" type="line" smooth="yes"/>
      <point x="429.966" y="785.526"/>
      <point x="453.849" y="817.355"/>
    </contour>
    <contour>
      <point x="423.526" y="204.795" type="qcurve" smooth="yes"/>
      <point x="438" y="211"/>
      <point x="450" y="200"/>
      <point x="444.2" y="185.473" type="qcurve" smooth="yes"/>
      <point x="410" y="104"/>
      <point x="365.752" y="50.3252" type="qcurve" smooth="yes"/>
      <point x="314" y="-11"/>
      <point x="261.87" y="-30.7178" type="qcurve" smooth="yes"/>
      <point x="209" y="-50"/>
      <point x="162.575" y="-36.5879" type="qcurve" smooth="yes"/>
      <point x="21" y="4"/>
      <point x="77.3906" y="292.879" type="qcurve" smooth="yes"/>
      <point x="96" y="389"/>
      <point x="144.115" y="450.669" type="qcurve" smooth="yes"/>
      <point x="227" y="557"/>
      <point x="344.616" y="541.135" type="qcurve" smooth="yes"/>
      <point x="493" y="522"/>
      <point x="457.88" y="302.743" type="qcurve" smooth="yes"/>
      <point x="456" y="291"/>
      <point x="432" y="259"/>
      <point x="416.104" y="249.056" type="qcurve" smooth="yes"/>
      <point x="406" y="242"/>
      <point x="397.75" y="240.64" type="qcurve" smooth="yes"/>
      <point x="388" y="238"/>
      <point x="388.246" y="240.55" type="qcurve" smooth="yes"/>
      <point x="389" y="245"/>
      <point x="390" y="249" type="qcurve" smooth="yes"/>
      <point x="417" y="449"/>
      <point x="285.385" y="465.229" type="qcurve" smooth="yes"/>
      <point x="256" y="469"/>
      <point x="233.136" y="464.451" type="qcurve" smooth="yes"/>
      <point x="211" y="460"/>
      <point x="203.268" y="454.725" type="qcurve" smooth="yes"/>
      <point x="196" y="450"/>
      <point x="192.167" y="444.717" type="qcurve" smooth="yes"/>
      <point x="167" y="412"/>
      <point x="152.608" y="339.121" type="qcurve" smooth="yes"/>
      <point x="126" y="204"/>
      <point x="144.924" y="129.883" type="qcurve" smooth="yes"/>
      <point x="163" y="56"/>
      <point x="288" y="21"/>
      <point x="322.266" y="61.9541" type="qcurve" smooth="yes"/>
      <point x="348" y="93"/>
      <point x="373.801" y="154.529" type="qcurve" smooth="yes"/>
      <point x="380" y="169"/>
      <point x="394.44" y="183.609" type="qcurve" smooth="yes"/>
      <point x="409" y="198"/>
    </contour>
  </outline>
</glyph>
<glyph name="e" format="1">
  <advance width="526"/>
  <unicode hex="0065"/>
  <outline>
    <contour>
      <point x="150.368" y="308.971" type="qcurve"/>
      <point x="156.917" y="311.173"/>
      <point x="161.005" y="311.074" type="qcurve" smooth="yes"/>
      <point x="426.934" y="304.588" type="line"/>
      <point x="423.851" y="459.428"/>
      <point x="284.31" y="464.92" type="qcurve" smooth="yes"/>
      <point x="216.463" y="467.526"/>
      <point x="193.066" y="435.887" type="qcurve" smooth="yes"/>
      <point x="163.822" y="396.333"/>
    </contour>
    <contour>
      <point x="143.413" y="233.99" type="line"/>
      <point x="139.624" y="48.9248"/>
      <point x="303.794" y="38.0361" type="qcurve" smooth="yes"/>
      <point x="338.885" y="35.251"/>
      <point x="394.581" y="44.9258"/>
      <point x="405.538" y="51.6025" type="qcurve" smooth="yes"/>
      <point x="406.306" y="52.873"/>
      <point x="406.992" y="54.1914" type="qcurve" smooth="yes"/>
      <point x="414.748" y="69.1074"/>
      <point x="445.502" y="97.0977"/>
      <point x="472.47" y="105.928"/>
      <point x="480.764" y="90.7236"/>
      <point x="473.008" y="75.8076" type="qcurve" smooth="yes"/>
      <point x="465.484" y="61.3398"/>
      <point x="455.298" y="47.7256" type="qcurve" smooth="yes"/>
      <point x="432.295" y="16.9805"/>
      <point x="377.166" y="-22.3955"/>
      <point x="325.447" y="-36.3643"/>
      <point x="269.763" y="-41.5156"/>
      <point x="246.205" y="-38.0361" type="qcurve" smooth="yes"/>
      <point x="48.9053" y="-24.9482"/>
      <point x="68.9941" y="211.101" type="qcurve" smooth="yes"/>
      <point x="75.1074" y="283.659"/>
      <point x="107.372" y="391.042"/>
      <point x="141.78" y="437.575" type="qcurve" smooth="yes"/>
      <point x="221.678" y="545.629"/>
      <point x="340.825" y="541.052" type="qcurve" smooth="yes"/>
      <point x="529.498" y="533.624"/>
      <point x="498.908" y="289.961" type="qcurve" smooth="yes"/>
      <point x="498.301" y="287.349"/>
      <point x="495.691" y="278.693"/>
      <point x="485.051" y="256.665"/>
      <point x="471.54" y="239.96"/>
      <point x="447.293" y="226.578"/>
      <point x="432.996" y="226.927" type="qcurve" smooth="yes"/>
    </contour>
  </outline>
</glyph>
<glyph name="f" format="1">
  <advance width="400"/>
  <unicode hex="0066"/>
  <outline>
    <contour>
      <point x="35.7383" y="463.18" type="qcurve" smooth="yes"/>
      <point x="47.002" y="478.735"/>
      <point x="78.8457" y="501.259"/>
      <point x="89.5732" y="501.259" type="qcurve" smooth="yes"/>
      <point x="313.574" y="501.26" type="line" smooth="yes"/>
      <point x="320.604" y="501.26"/>
      <point x="325.263" y="490.951"/>
      <point x="319.643" y="473.373"/>
      <point x="312.262" y="463.182" type="qcurve" smooth="yes"/>
      <point x="300.997" y="447.626"/>
      <point x="269.154" y="425.103"/>
      <point x="258.426" y="425.103" type="qcurve" smooth="yes"/>
      <point x="34.4248" y="425.101" type="line" smooth="yes"/>
      <point x="27.3955" y="425.101"/>
      <point x="22.7373" y="435.409"/>
      <point x="28.3574" y="452.987"/>
    </contour>
    <contour>
      <point x="381.313" y="597.435"/>
      <point x="352.476" y="585.88"/>
      <point x="347.188" y="592.141" type="qcurve" smooth="yes"/>
      <point x="308.973" y="637.389"/>
      <point x="239.148" y="679.784"/>
      <point x="219.607" y="676.267" type="qcurve"/>
      <point x="211.079" y="646.644"/>
      <point x="207.024" y="576.076" type="qcurve" smooth="yes"/>
      <point x="154.986" y="25.6738" type="line" smooth="yes"/>
      <point x="153.9" y="14.1846"/>
      <point x="129.859" y="-17.6348"/>
      <point x="114.342" y="-28.1221" type="qcurve" smooth="yes"/>
      <point x="104.175" y="-34.9941"/>
      <point x="87.3584" y="-39.2324"/>
      <point x="78.3027" y="-33.2002"/>
      <point x="79.0146" y="-25.6729" type="qcurve" smooth="yes"/>
      <point x="130.977" y="523.926" type="line" smooth="yes"/>
      <point x="131.17" y="527.288"/>
      <point x="132.844" y="557.448"/>
      <point x="133.258" y="563.41"/>
      <point x="135.034" y="588.202"/>
      <point x="136.181" y="594.801"/>
      <point x="138.726" y="614.92"/>
      <point x="141.27" y="622.85"/>
      <point x="145.249" y="638.988"/>
      <point x="149.856" y="648.945"/>
      <point x="155.938" y="661.798"/>
      <point x="159.588" y="667.782" type="qcurve" smooth="yes"/>
      <point x="160.619" y="669.472"/>
      <point x="161.781" y="671.199" type="qcurve" smooth="yes"/>
      <point x="185.193" y="705.973"/>
      <point x="249.555" y="750.496"/>
      <point x="274.621" y="752.715" type="qcurve" smooth="yes"/>
      <point x="309.329" y="755.787"/>
      <point x="377.303" y="711.005"/>
      <point x="418.812" y="661.858" type="qcurve" smooth="yes"/>
      <point x="424.099" y="655.599"/>
      <point x="410.572" y="625.915"/>
    </contour>
  </outline>
</glyph>
<glyph name="g" format="1">
  <advance width="508"/>
  <unicode hex="0067"/>
  <outline>
    <contour>
      <point x="480.688" y="530.64" type="qcurve" smooth="yes"/>
      <point x="490.871" y="537.701"/>
      <point x="507.975" y="542.447"/>
      <point x="517.493" y="536.913"/>
      <point x="517.041" y="529.563" type="qcurve" smooth="yes"/>
      <point x="497.055" y="204.602"/>
      <point x="486.94" y="135.151" type="qcurve" smooth="yes"/>
      <point x="479.416" y="52.1245"/>
      <point x="443.486" y="-67.5486"/>
      <point x="406.395" y="-118.595" type="qcurve" smooth="yes"/>
      <point x="362.399" y="-179.142"/>
      <point x="253.838" y="-232.574"/>
      <point x="199.259" y="-232.078" type="qcurve" smooth="yes"/>
      <point x="85.9613" y="-231.019"/>
      <point x="44.4121" y="-161.773" type="qcurve" smooth="yes"/>
      <point x="40.101" y="-154.588"/>
      <point x="55.499" y="-124.208"/>
      <point x="85.392" y="-96.6144"/>
      <point x="113.275" y="-87.0419"/>
      <point x="117.586" y="-94.2275" type="qcurve" smooth="yes"/>
      <point x="154.039" y="-154.98"/>
      <point x="254.742" y="-155.922" type="qcurve" smooth="yes"/>
      <point x="326.275" y="-156.573"/>
      <point x="354.072" y="-118.319" type="qcurve" smooth="yes"/>
      <point x="372.317" y="-93.2096"/>
      <point x="404.745" y="13.7435"/>
      <point x="411.003" y="84.2012" type="qcurve" smooth="yes"/>
      <point x="411.059" y="84.8424"/>
      <point x="411.164" y="85.5645" type="qcurve" smooth="yes"/>
      <point x="421.016" y="152.549"/>
      <point x="440.959" y="476.799" type="qcurve" smooth="yes"/>
      <point x="441.648" y="488.016"/>
      <point x="465.148" y="519.862"/>
    </contour>
    <contour>
      <point x="477.906" y="211.115"/>
      <point x="490.134" y="199.686"/>
      <point x="484.2" y="185.472" type="qcurve" smooth="yes"/>
      <point x="450.033" y="103.631"/>
      <point x="405.752" y="50.3252" type="qcurve" smooth="yes"/>
      <point x="354.439" y="-11.4466"/>
      <point x="249.301" y="-49.9899"/>
      <point x="202.575" y="-36.5879" type="qcurve" smooth="yes"/>
      <point x="60.0025" y="3.84402"/>
      <point x="117.391" y="292.878" type="qcurve" smooth="yes"/>
      <point x="136.411" y="389.368"/>
      <point x="184.116" y="450.669" type="qcurve" smooth="yes"/>
      <point x="266.546" y="556.593"/>
      <point x="384.616" y="541.134" type="qcurve" smooth="yes"/>
      <point x="527.487" y="522.679"/>
      <point x="497.88" y="302.743" type="qcurve" smooth="yes"/>
      <point x="496.288" y="290.919"/>
      <point x="471.578" y="259.163"/>
      <point x="456.104" y="249.056" type="qcurve" smooth="yes"/>
      <point x="445.965" y="242.433"/>
      <point x="429.534" y="238.847"/>
      <point x="421.079" y="245.51"/>
      <point x="422.122" y="253.258" type="qcurve" smooth="yes"/>
      <point x="448.515" y="449.323"/>
      <point x="325.385" y="465.228" type="qcurve" smooth="yes"/>
      <point x="295.747" y="469.108"/>
      <point x="250.525" y="459.794"/>
      <point x="236.01" y="449.655"/>
      <point x="232.167" y="444.716" type="qcurve" smooth="yes"/>
      <point x="207.065" y="412.459"/>
      <point x="192.609" y="339.12" type="qcurve" smooth="yes"/>
      <point x="174.534" y="249.17"/>
      <point x="180.26" y="123.153"/>
      <point x="224.24" y="50.2659"/>
      <point x="265.424" y="38.5869" type="qcurve" smooth="yes"/>
      <point x="327.956" y="20.6506"/>
      <point x="362.267" y="61.9541" type="qcurve" smooth="yes"/>
      <point x="388.175" y="93.144"/>
      <point x="413.802" y="154.529" type="qcurve" smooth="yes"/>
      <point x="419.736" y="168.743"/>
      <point x="449.148" y="198.475"/>
    </contour>
  </outline>
</glyph>
<glyph name="h" format="1">
  <advance width="495"/>
  <unicode hex="0068"/>
  <outline>
    <contour>
      <point x="95.0684" y="287.2"/>
      <point x="80.0459" y="295.692"/>
      <point x="84.5576" y="309.226" type="qcurve" smooth="yes"/>
      <point x="108.792" y="381.932"/>
      <point x="144.607" y="432.291" type="qcurve" smooth="yes"/>
      <point x="182.787" y="485.975"/>
      <point x="277.173" y="540.817"/>
      <point x="319.364" y="541.259" type="qcurve" smooth="yes"/>
      <point x="490.324" y="543.214"/>
      <point x="464.983" y="305.636" type="qcurve"/>
      <point x="441.003" y="25.8672" type="line" smooth="yes"/>
      <point x="440.024" y="14.4512"/>
      <point x="416.13" y="-17.377"/>
      <point x="400.604" y="-27.9443" type="qcurve" smooth="yes"/>
      <point x="390.433" y="-34.8682"/>
      <point x="373.537" y="-39.2451"/>
      <point x="364.354" y="-33.3477"/>
      <point x="364.996" y="-25.8682" type="qcurve" smooth="yes"/>
      <point x="389.017" y="254.364" type="line" smooth="yes"/>
      <point x="400.523" y="362.246"/>
      <point x="337.821" y="465.94"/>
      <point x="264.635" y="465.104" type="qcurve" smooth="yes"/>
      <point x="235.582" y="464.8"/>
      <point x="209.371" y="449.489"/>
      <point x="198.155" y="433.72" type="qcurve" smooth="yes"/>
      <point x="176.076" y="402.675"/>
      <point x="157.442" y="346.772" type="qcurve" smooth="yes"/>
      <point x="152.931" y="333.238"/>
      <point x="124.843" y="302.538"/>
    </contour>
    <contour>
      <point x="161.585" y="832.072" type="qcurve" smooth="yes"/>
      <point x="171.753" y="838.959"/>
      <point x="188.592" y="843.236"/>
      <point x="197.684" y="837.243"/>
      <point x="196.992" y="829.729" type="qcurve" smooth="yes"/>
      <point x="122.991" y="25.7295" type="line" smooth="yes"/>
      <point x="121.936" y="14.2617"/>
      <point x="97.9365" y="-17.5605"/>
      <point x="82.417" y="-28.0713" type="qcurve" smooth="yes"/>
      <point x="72.248" y="-34.958"/>
      <point x="55.4092" y="-39.2354"/>
      <point x="46.3174" y="-33.2422"/>
      <point x="47.0098" y="-25.7285" type="qcurve" smooth="yes"/>
      <point x="121.01" y="778.271" type="line" smooth="yes"/>
      <point x="122.065" y="789.739"/>
      <point x="146.064" y="821.562"/>
    </contour>
  </outline>
</glyph>
<glyph name="i" format="1">
  <advance width="190"/>
  <unicode hex="0069"/>
  <outline>
    <contour>
      <point x="133" y="521"/>
      <point x="159" y="538"/>
      <point x="168" y="540" type="qcurve" smooth="yes"/>
      <point x="186" y="544"/>
      <point x="184" y="529" type="qcurve" smooth="yes"/>
      <point x="131" y="25" type="line" smooth="yes"/>
      <point x="130" y="13"/>
      <point x="106" y="-18"/>
      <point x="80" y="-35"/>
      <point x="71" y="-37" type="qcurve" smooth="yes"/>
      <point x="53" y="-41"/>
      <point x="55" y="-25" type="qcurve" smooth="yes"/>
      <point x="108" y="478" type="line" smooth="yes"/>
      <point x="109" y="489"/>
    </contour>
    <contour>
      <point x="137" y="693"/>
      <point x="163" y="711"/>
      <point x="172" y="713" type="qcurve" smooth="yes"/>
      <point x="190" y="718"/>
      <point x="189" y="702" type="qcurve" smooth="yes"/>
      <point x="184" y="632" type="line" smooth="yes"/>
      <point x="183" y="621"/>
      <point x="160" y="589"/>
      <point x="134" y="571"/>
      <point x="125" y="569" type="qcurve" smooth="yes"/>
      <point x="107" y="564"/>
      <point x="108" y="580" type="qcurve" smooth="yes"/>
      <point x="113" y="650" type="line" smooth="yes"/>
      <point x="114" y="661"/>
    </contour>
  </outline>
</glyph>
<glyph name="j" format="1">
  <advance width="326"/>
  <unicode hex="006A"/>
  <outline>
    <contour>
      <point x="292.975" y="732.655" type="qcurve" smooth="yes"/>
      <point x="303.153" y="739.662"/>
      <point x="320.173" y="744.258"/>
      <point x="329.556" y="738.577"/>
      <point x="329.027" y="731.174" type="qcurve" smooth="yes"/>
      <point x="324.027" y="661.175" type="line" smooth="yes"/>
      <point x="323.22" y="649.877"/>
      <point x="299.559" y="618.036"/>
      <point x="284.024" y="607.344" type="qcurve" smooth="yes"/>
      <point x="273.846" y="600.337"/>
      <point x="256.826" y="595.741"/>
      <point x="247.444" y="601.422"/>
      <point x="247.973" y="608.825" type="qcurve" smooth="yes"/>
      <point x="252.972" y="678.824" type="line" smooth="yes"/>
      <point x="253.779" y="690.123"/>
      <point x="277.44" y="721.963"/>
    </contour>
    <contour>
      <point x="60.9102" y="-53.6963"/>
      <point x="90.3057" y="-40.8711"/>
      <point x="96.2197" y="-46.5107" type="qcurve" smooth="yes"/>
      <point x="144.375" y="-92.4277"/>
      <point x="178.99" y="-97.3145" type="qcurve"/>
      <point x="187.182" y="-65.2471"/>
      <point x="192.008" y="-9.74121" type="qcurve" smooth="yes"/>
      <point x="244.018" y="531.859" type="line" smooth="yes"/>
      <point x="245.122" y="543.36"/>
      <point x="269.188" y="575.178"/>
      <point x="284.704" y="585.652" type="qcurve" smooth="yes"/>
      <point x="294.871" y="592.516"/>
      <point x="311.672" y="596.73"/>
      <point x="320.707" y="590.676"/>
      <point x="319.983" y="583.14" type="qcurve" smooth="yes"/>
      <point x="267.993" y="41.7402" type="line" smooth="yes"/>
      <point x="267.582" y="37.0137"/>
      <point x="263.693" y="-16.21"/>
      <point x="261.561" y="-30.8486"/>
      <point x="252.84" y="-73.415"/>
      <point x="240.863" y="-95.2451"/>
      <point x="218.876" y="-126.913"/>
      <point x="203.798" y="-140.182" type="qcurve" smooth="yes"/>
      <point x="180.962" y="-160.64"/>
      <point x="137.961" y="-177.499"/>
      <point x="106.81" y="-177.333"/>
      <point x="68.1445" y="-155.522"/>
      <point x="45.8018" y="-136.577"/>
      <point x="25.7812" y="-117.487" type="qcurve" smooth="yes"/>
      <point x="19.8672" y="-111.848"/>
      <point x="32.1348" y="-82.6914"/>
    </contour>
  </outline>
</glyph>
<glyph name="k" format="1">
  <advance width="495"/>
  <unicode hex="006B"/>
  <outline>
    <contour>
      <point x="228.004" y="320.467"/>
      <point x="256.393" y="331.064"/>
      <point x="261.208" y="324.35" type="qcurve" smooth="yes"/>
      <point x="469.208" y="34.3496" type="line" smooth="yes"/>
      <point x="474.023" y="27.6354"/>
      <point x="459.579" y="-2.40336"/>
      <point x="429.996" y="-30.4675"/>
      <point x="401.607" y="-41.0635"/>
      <point x="396.791" y="-34.3496" type="qcurve" smooth="yes"/>
      <point x="188.792" y="255.65" type="line" smooth="yes"/>
      <point x="183.976" y="262.364"/>
      <point x="198.421" y="292.403"/>
    </contour>
    <contour>
      <point x="483.394" y="527.08"/>
      <point x="465.742" y="496.012"/>
      <point x="450.49" y="482.857" type="qcurve" smooth="yes"/>
      <point x="124.491" y="201.677" type="line" smooth="yes"/>
      <point x="109.24" y="188.522"/>
      <point x="82.7259" y="181.496"/>
      <point x="76.6052" y="198.101"/>
      <point x="94.2567" y="229.168"/>
      <point x="109.509" y="242.323" type="qcurve" smooth="yes"/>
      <point x="435.508" y="523.504" type="line" smooth="yes"/>
      <point x="450.76" y="536.659"/>
      <point x="477.274" y="543.685"/>
    </contour>
    <contour>
      <point x="165.583" y="832.072" type="qcurve" smooth="yes"/>
      <point x="175.752" y="838.959"/>
      <point x="192.59" y="843.237"/>
      <point x="201.682" y="837.243"/>
      <point x="200.99" y="829.729" type="qcurve" smooth="yes"/>
      <point x="126.991" y="25.7285" type="line" smooth="yes"/>
      <point x="125.936" y="14.2611"/>
      <point x="101.936" y="-17.5612"/>
      <point x="86.416" y="-28.0723" type="qcurve" smooth="yes"/>
      <point x="76.2471" y="-34.9587"/>
      <point x="59.4089" y="-39.2366"/>
      <point x="50.3173" y="-33.2431"/>
      <point x="51.0088" y="-25.7295" type="qcurve" smooth="yes"/>
      <point x="125.009" y="778.271" type="line" smooth="yes"/>
      <point x="126.064" y="789.739"/>
      <point x="150.063" y="821.561"/>
    </contour>
  </outline>
</glyph>
<glyph name="l" format="1">
  <advance width="185"/>
  <unicode hex="006C"/>
  <outline>
    <contour>
      <point x="150" y="822"/>
      <point x="176" y="839"/>
      <point x="184" y="841" type="qcurve" smooth="yes"/>
      <point x="202" y="846"/>
      <point x="201" y="830" type="qcurve" smooth="yes"/>
      <point x="127" y="26" type="line" smooth="yes"/>
      <point x="126" y="15"/>
      <point x="102" y="-18"/>
      <point x="76" y="-35"/>
      <point x="68" y="-37" type="qcurve" smooth="yes"/>
      <point x="50" y="-42"/>
      <point x="51" y="-26" type="qcurve" smooth="yes"/>
      <point x="125" y="778" type="line" smooth="yes"/>
      <point x="126" y="790"/>
    </contour>
  </outline>
</glyph>
<glyph name="m" format="1">
  <advance width="771"/>
  <unicode hex="006D"/>
  <outline>
    <contour>
      <point x="392.07" y="287.202"/>
      <point x="377.047" y="295.693"/>
      <point x="381.559" y="309.228" type="qcurve" smooth="yes"/>
      <point x="405.794" y="381.936"/>
      <point x="441.607" y="432.291" type="qcurve" smooth="yes"/>
      <point x="479.785" y="485.972"/>
      <point x="574.174" y="540.817"/>
      <point x="616.349" y="541.258" type="qcurve" smooth="yes"/>
      <point x="688.146" y="542.271"/>
      <point x="744.454" y="422.54"/>
      <point x="731.984" y="305.637" type="qcurve" smooth="yes"/>
      <point x="708.004" y="25.8682" type="line" smooth="yes"/>
      <point x="707.025" y="14.4526"/>
      <point x="683.131" y="-17.376"/>
      <point x="667.605" y="-27.9434" type="qcurve" smooth="yes"/>
      <point x="657.433" y="-34.8672"/>
      <point x="640.538" y="-39.2439"/>
      <point x="631.356" y="-33.3468"/>
      <point x="631.997" y="-25.8672" type="qcurve" smooth="yes"/>
      <point x="656.018" y="254.365" type="line"/>
      <point x="678.672" y="466.755"/>
      <point x="561.685" y="465.103" type="qcurve" smooth="yes"/>
      <point x="532.579" y="464.799"/>
      <point x="506.377" y="449.497"/>
      <point x="495.155" y="433.72" type="qcurve" smooth="yes"/>
      <point x="473.077" y="402.676"/>
      <point x="454.443" y="346.774" type="qcurve" smooth="yes"/>
      <point x="449.932" y="333.24"/>
      <point x="421.845" y="302.54"/>
    </contour>
    <contour>
      <point x="103.069" y="287.201"/>
      <point x="88.0459" y="295.692"/>
      <point x="92.5576" y="309.226" type="qcurve" smooth="yes"/>
      <point x="116.792" y="381.932"/>
      <point x="152.607" y="432.291" type="qcurve" smooth="yes"/>
      <point x="190.786" y="485.973"/>
      <point x="285.173" y="540.818"/>
      <point x="327.358" y="541.259" type="qcurve" smooth="yes"/>
      <point x="478.329" y="543.235"/>
      <point x="452.984" y="305.637" type="qcurve"/>
      <point x="429.004" y="25.8682" type="line" smooth="yes"/>
      <point x="428.025" y="14.4534"/>
      <point x="404.13" y="-17.376"/>
      <point x="388.605" y="-27.9434" type="qcurve" smooth="yes"/>
      <point x="378.433" y="-34.8672"/>
      <point x="361.538" y="-39.2439"/>
      <point x="352.356" y="-33.3468"/>
      <point x="352.997" y="-25.8672" type="qcurve" smooth="yes"/>
      <point x="377.017" y="254.365" type="line" smooth="yes"/>
      <point x="388.543" y="362.418"/>
      <point x="335.207" y="465.922"/>
      <point x="272.666" y="465.104" type="qcurve" smooth="yes"/>
      <point x="243.58" y="464.8"/>
      <point x="217.375" y="449.495"/>
      <point x="206.155" y="433.72" type="qcurve" smooth="yes"/>
      <point x="184.076" y="402.674"/>
      <point x="165.442" y="346.772" type="qcurve" smooth="yes"/>
      <point x="160.931" y="333.239"/>
      <point x="132.843" y="302.538"/>
    </contour>
    <contour>
      <point x="148.986" y="531.522" type="qcurve" smooth="yes"/>
      <point x="159.147" y="538.33"/>
      <point x="175.863" y="542.397"/>
      <point x="184.761" y="536.197"/>
      <point x="183.962" y="528.611" type="qcurve" smooth="yes"/>
      <point x="130.962" y="25.4316" type="line" smooth="yes"/>
      <point x="129.742" y="13.8533"/>
      <point x="105.523" y="-17.9533"/>
      <point x="90.0146" y="-28.3418" type="qcurve" smooth="yes"/>
      <point x="79.854" y="-35.1485"/>
      <point x="63.1382" y="-39.2154"/>
      <point x="54.24" y="-33.0158"/>
      <point x="55.0391" y="-25.4297" type="qcurve" smooth="yes"/>
      <point x="108.039" y="477.75" type="line" smooth="yes"/>
      <point x="109.259" y="489.328"/>
      <point x="133.478" y="521.134"/>
    </contour>
  </outline>
</glyph>
<glyph name="n" format="1">
  <advance width="502"/>
  <unicode hex="006E"/>
  <outline>
    <contour>
      <point x="133" y="521"/>
      <point x="159" y="538"/>
      <point x="168" y="540" type="qcurve" smooth="yes"/>
      <point x="186" y="544"/>
      <point x="184" y="529" type="qcurve" smooth="yes"/>
      <point x="177" y="463" type="line"/>
      <point x="205" y="495"/>
      <point x="285" y="541"/>
      <point x="327" y="541" type="qcurve" smooth="yes"/>
      <point x="498" y="543"/>
      <point x="473" y="306" type="qcurve"/>
      <point x="449" y="26" type="line" smooth="yes"/>
      <point x="448" y="15"/>
      <point x="424" y="-17"/>
      <point x="398" y="-35"/>
      <point x="390" y="-37" type="qcurve" smooth="yes"/>
      <point x="372" y="-42"/>
      <point x="373" y="-26" type="qcurve" smooth="yes"/>
      <point x="397" y="254" type="line"/>
      <point x="420" y="466"/>
      <point x="273" y="465" type="qcurve" smooth="yes"/>
      <point x="244" y="465"/>
      <point x="230" y="457" type="qcurve" smooth="yes"/>
      <point x="195" y="437"/>
      <point x="165" y="347" type="qcurve" smooth="yes"/>
      <point x="165" y="346"/>
      <point x="165" y="344" type="qcurve" smooth="yes"/>
      <point x="131" y="25" type="line" smooth="yes"/>
      <point x="130" y="13"/>
      <point x="106" y="-18"/>
      <point x="80" y="-35"/>
      <point x="71" y="-37" type="qcurve" smooth="yes"/>
      <point x="53" y="-41"/>
      <point x="55" y="-25" type="qcurve" smooth="yes"/>
      <point x="108" y="478" type="line" smooth="yes"/>
      <point x="109" y="489"/>
    </contour>
  </outline>
</glyph>
<glyph name="o" format="1">
  <advance width="538"/>
  <unicode hex="006F"/>
  <outline>
    <contour>
      <point x="360" y="541" type="qcurve" smooth="yes"/>
      <point x="544" y="525"/>
      <point x="508" y="240" type="qcurve" smooth="yes"/>
      <point x="493" y="126"/>
      <point x="441" y="57" type="qcurve" smooth="yes"/>
      <point x="361" y="-49"/>
      <point x="242" y="-38" type="qcurve" smooth="yes"/>
      <point x="40" y="-20"/>
      <point x="71" y="222" type="qcurve" smooth="yes"/>
      <point x="80" y="291"/>
      <point x="115" y="395"/>
      <point x="150" y="440" type="qcurve" smooth="yes"/>
      <point x="235" y="552"/>
    </contour>
    <contour>
      <point x="302" y="465" type="qcurve" smooth="yes"/>
      <point x="226" y="472"/>
      <point x="199" y="436" type="qcurve" smooth="yes"/>
      <point x="184" y="417"/>
      <point x="154" y="330"/>
      <point x="147" y="272" type="qcurve" smooth="yes"/>
      <point x="119" y="54"/>
      <point x="300" y="38" type="qcurve" smooth="yes"/>
      <point x="369" y="32"/>
      <point x="391" y="61" type="qcurve" smooth="yes"/>
      <point x="402" y="76"/>
      <point x="426" y="145"/>
      <point x="432" y="190" type="qcurve" smooth="yes"/>
      <point x="466" y="451"/>
    </contour>
  </outline>
</glyph>
<glyph name="p" format="1">
  <advance width="526"/>
  <unicode hex="0070"/>
  <outline>
    <contour>
      <point x="138.45" y="532.981" type="qcurve" smooth="yes"/>
      <point x="148.621" y="539.894"/>
      <point x="165.5" y="544.242"/>
      <point x="174.655" y="538.316"/>
      <point x="173.999" y="530.826" type="qcurve" smooth="yes"/>
      <point x="104" y="-268.174" type="line" smooth="yes"/>
      <point x="102.998" y="-279.605"/>
      <point x="79.0717" y="-311.432"/>
      <point x="63.5488" y="-321.982" type="qcurve" smooth="yes"/>
      <point x="53.3776" y="-328.895"/>
      <point x="36.4992" y="-333.243"/>
      <point x="27.344" y="-327.317"/>
      <point x="28" y="-319.827" type="qcurve" smooth="yes"/>
      <point x="97.999" y="479.173" type="line" smooth="yes"/>
      <point x="99.0002" y="490.604"/>
      <point x="122.927" y="522.431"/>
    </contour>
    <contour>
      <point x="115.934" y="248.977" type="qcurve" smooth="yes"/>
      <point x="105.746" y="241.796"/>
      <point x="88.4628" y="236.726"/>
      <point x="78.651" y="241.939"/>
      <point x="78.9365" y="249.172" type="qcurve" smooth="yes"/>
      <point x="81.4078" y="311.779"/>
      <point x="105.918" y="403.96"/>
      <point x="136.421" y="446.017" type="qcurve" smooth="yes"/>
      <point x="205.864" y="541.763"/>
      <point x="311.614" y="541.127" type="qcurve" smooth="yes"/>
      <point x="559.966" y="538.964"/>
      <point x="492.436" y="239.303" type="qcurve" smooth="yes"/>
      <point x="466.805" y="125.796"/>
      <point x="418.845" y="59.3955" type="qcurve" smooth="yes"/>
      <point x="383.584" y="10.5787"/>
      <point x="297.686" y="-38.0781"/>
      <point x="260.426" y="-38.0781" type="qcurve" smooth="yes"/>
      <point x="175.69" y="-38.0789"/>
      <point x="83.2686" y="77.4712"/>
      <point x="73.9746" y="191.066" type="qcurve" smooth="yes"/>
      <point x="73.147" y="201.18"/>
      <point x="94.4397" y="232.937"/>
      <point x="109.974" y="244.756" type="qcurve" smooth="yes"/>
      <point x="120.152" y="252.5"/>
      <point x="138.253" y="259.154"/>
      <point x="149.482" y="255.558"/>
      <point x="150.024" y="248.932" type="qcurve" smooth="yes"/>
      <point x="167.276" y="38.0791"/>
      <point x="315.574" y="38.0791" type="qcurve" smooth="yes"/>
      <point x="332.747" y="38.0791"/>
      <point x="354.994" y="45.8154"/>
      <point x="360.999" y="52.027"/>
      <point x="366.175" y="59.1924" type="qcurve" smooth="yes"/>
      <point x="396.421" y="101.07"/>
      <point x="417.564" y="194.698" type="qcurve" smooth="yes"/>
      <point x="448.054" y="329.995"/>
      <point x="367.904" y="463.997"/>
      <point x="256.177" y="464.971" type="qcurve" smooth="yes"/>
      <point x="202.912" y="465.291"/>
      <point x="188.853" y="445.891" type="qcurve" smooth="yes"/>
      <point x="178.167" y="431.158"/>
      <point x="157.068" y="353.582"/>
      <point x="155.064" y="302.828" type="qcurve" smooth="yes"/>
      <point x="154.629" y="291.788"/>
      <point x="131.483" y="259.936"/>
    </contour>
  </outline>
</glyph>
<glyph name="q" format="1">
  <advance width="481"/>
  <unicode hex="0071"/>
  <outline>
    <contour>
      <point x="440.477" y="531.93" type="qcurve" smooth="yes"/>
      <point x="450.648" y="538.857"/>
      <point x="467.551" y="543.246"/>
      <point x="476.743" y="537.359"/>
      <point x="476.107" y="529.884" type="qcurve" smooth="yes"/>
      <point x="408.106" y="-270.117" type="line" smooth="yes"/>
      <point x="407.137" y="-281.526"/>
      <point x="383.254" y="-313.355"/>
      <point x="367.729" y="-323.93" type="qcurve" smooth="yes"/>
      <point x="357.556" y="-330.857"/>
      <point x="340.654" y="-335.246"/>
      <point x="331.462" y="-329.359"/>
      <point x="332.098" y="-321.884" type="qcurve" smooth="yes"/>
      <point x="400.098" y="478.117" type="line" smooth="yes"/>
      <point x="401.067" y="489.526"/>
      <point x="424.95" y="521.355"/>
    </contour>
    <contour>
      <point x="434.904" y="211.114"/>
      <point x="447.132" y="199.686"/>
      <point x="441.198" y="185.472" type="qcurve" smooth="yes"/>
      <point x="407.032" y="103.63"/>
      <point x="362.752" y="50.3252" type="qcurve" smooth="yes"/>
      <point x="311.439" y="-11.4463"/>
      <point x="206.302" y="-49.9893"/>
      <point x="159.575" y="-36.5879" type="qcurve" smooth="yes"/>
      <point x="17.001" y="3.84375"/>
      <point x="74.3906" y="292.88" type="qcurve" smooth="yes"/>
      <point x="93.4121" y="389.369"/>
      <point x="141.116" y="450.669" type="qcurve" smooth="yes"/>
      <point x="223.547" y="556.593"/>
      <point x="341.615" y="541.133" type="qcurve" smooth="yes"/>
      <point x="484.484" y="522.679"/>
      <point x="454.878" y="302.742" type="qcurve" smooth="yes"/>
      <point x="453.286" y="290.917"/>
      <point x="428.577" y="259.162"/>
      <point x="413.103" y="249.055" type="qcurve" smooth="yes"/>
      <point x="402.964" y="242.432"/>
      <point x="386.533" y="238.846"/>
      <point x="378.077" y="245.51"/>
      <point x="379.12" y="253.257" type="qcurve" smooth="yes"/>
      <point x="405.515" y="449.321"/>
      <point x="282.384" y="465.227" type="qcurve" smooth="yes"/>
      <point x="252.746" y="469.107"/>
      <point x="207.524" y="459.793"/>
      <point x="193.011" y="449.654"/>
      <point x="189.167" y="444.716" type="qcurve" smooth="yes"/>
      <point x="164.065" y="412.459"/>
      <point x="149.608" y="339.121" type="qcurve" smooth="yes"/>
      <point x="131.532" y="249.17"/>
      <point x="137.26" y="123.152"/>
      <point x="181.24" y="50.2656"/>
      <point x="222.424" y="38.5869" type="qcurve" smooth="yes"/>
      <point x="284.957" y="20.6523"/>
      <point x="319.266" y="61.9541" type="qcurve" smooth="yes"/>
      <point x="345.171" y="93.1387"/>
      <point x="370.8" y="154.528" type="qcurve" smooth="yes"/>
      <point x="376.733" y="168.741"/>
      <point x="406.145" y="198.473"/>
    </contour>
  </outline>
</glyph>
<glyph name="r" format="1">
  <advance width="319"/>
  <unicode hex="0072"/>
  <outline>
    <contour>
      <point x="133" y="521"/>
      <point x="159" y="538"/>
      <point x="168" y="540" type="qcurve" smooth="yes"/>
      <point x="186" y="544"/>
      <point x="184" y="529" type="qcurve" smooth="yes"/>
      <point x="179" y="485" type="line"/>
      <point x="256" y="550"/>
      <point x="338" y="541" type="qcurve" smooth="yes"/>
      <point x="352" y="539"/>
      <point x="345" y="520" type="qcurve" smooth="yes"/>
      <point x="335" y="494"/>
      <point x="289" y="464"/>
      <point x="280" y="465" type="qcurve" smooth="yes"/>
      <point x="229" y="471"/>
      <point x="193" y="444" type="qcurve" smooth="yes"/>
      <point x="176" y="431"/>
      <point x="169" y="383" type="qcurve"/>
      <point x="131" y="25" type="line" smooth="yes"/>
      <point x="130" y="13"/>
      <point x="106" y="-18"/>
      <point x="80" y="-35"/>
      <point x="71" y="-37" type="qcurve" smooth="yes"/>
      <point x="53" y="-41"/>
      <point x="55" y="-25" type="qcurve" smooth="yes"/>
      <point x="92" y="325" type="line" smooth="yes"/>
      <point x="92" y="327"/>
      <point x="93" y="333" type="qcurve" smooth="yes"/>
      <point x="108" y="478" type="line" smooth="yes"/>
      <point x="109" y="489"/>
    </contour>
  </outline>
</glyph>
<glyph name="s" format="1">
  <advance width="511"/>
  <unicode hex="0073"/>
  <outline>
    <contour>
      <point x="426.2" y="346.499"/>
      <point x="399.704" y="339.504"/>
      <point x="396.658" y="347.819" type="qcurve" smooth="yes"/>
      <point x="379.81" y="393.827"/>
      <point x="343.168" y="425.666" type="qcurve" smooth="yes"/>
      <point x="304.848" y="458.962"/>
      <point x="259.266" y="465.243" type="qcurve" smooth="yes"/>
      <point x="224.149" y="470.085"/>
      <point x="201.335" y="457.977" type="qcurve" smooth="yes"/>
      <point x="200.465" y="457.505" type="line" smooth="yes"/>
      <point x="198.847" y="454.099"/>
      <point x="197.605" y="450.368" type="qcurve" smooth="yes"/>
      <point x="195.025" y="442.617"/>
      <point x="194.161" y="433.512" type="qcurve" smooth="yes"/>
      <point x="193.206" y="423.458"/>
      <point x="194.496" y="413.064" type="qcurve" smooth="yes"/>
      <point x="195.832" y="402.299"/>
      <point x="199.503" y="392.004" type="qcurve" smooth="yes"/>
      <point x="203.66" y="380.331"/>
      <point x="210.829" y="369.289" type="qcurve" smooth="yes"/>
      <point x="217.767" y="358.598"/>
      <point x="227.193" y="348.96" type="qcurve" smooth="yes"/>
      <point x="236.184" y="339.773"/>
      <point x="247.199" y="331.828" type="qcurve" smooth="yes"/>
      <point x="257.245" y="324.586"/>
      <point x="269.718" y="317.88" type="qcurve" smooth="yes"/>
      <point x="280.516" y="312.076"/>
      <point x="294.055" y="306.187" type="qcurve" smooth="yes"/>
      <point x="303.874" y="301.917"/>
      <point x="319.4" y="295.841" type="qcurve" smooth="yes"/>
      <point x="341.071" y="287.357"/>
      <point x="345.308" y="285.638" type="qcurve" smooth="yes"/>
      <point x="360.095" y="279.639"/>
      <point x="371.282" y="274.304" type="qcurve" smooth="yes"/>
      <point x="385.195" y="267.669"/>
      <point x="396.445" y="260.717" type="qcurve" smooth="yes"/>
      <point x="409.227" y="252.815"/>
      <point x="419.922" y="243.721" type="qcurve" smooth="yes"/>
      <point x="431.411" y="233.951"/>
      <point x="440.403" y="222.927" type="qcurve" smooth="yes"/>
      <point x="450.004" y="211.154"/>
      <point x="456.455" y="198.286" type="qcurve" smooth="yes"/>
      <point x="463.343" y="184.536"/>
      <point x="466.722" y="169.406" type="qcurve" smooth="yes"/>
      <point x="470.209" y="153.783"/>
      <point x="469.774" y="137.654" type="qcurve" smooth="yes"/>
      <point x="469.301" y="120.167"/>
      <point x="464.171" y="102.921" type="qcurve" smooth="yes"/>
      <point x="458.293" y="83.1541"/>
      <point x="446.266" y="63.4629" type="qcurve" smooth="yes"/>
      <point x="432.426" y="40.8053"/>
      <point x="412.248" y="20.7607" type="qcurve" smooth="yes"/>
      <point x="392.425" y="1.06561"/>
      <point x="369.935" y="-12.6133" type="qcurve" smooth="yes"/>
      <point x="351.665" y="-23.725"/>
      <point x="332.267" y="-30.3242" type="qcurve" smooth="yes"/>
      <point x="315.75" y="-35.9408"/>
      <point x="298.581" y="-38.252" type="qcurve" smooth="yes"/>
      <point x="282.869" y="-40.369"/>
      <point x="266.837" y="-39.6719" type="qcurve" smooth="yes"/>
      <point x="251.919" y="-39.0204"/>
      <point x="236.716" y="-35.9277" type="qcurve" smooth="yes"/>
      <point x="222.336" y="-33.0034"/>
      <point x="208.005" y="-27.96" type="qcurve" smooth="yes"/>
      <point x="194.439" y="-23.1862"/>
      <point x="180.962" y="-16.5283" type="qcurve" smooth="yes"/>
      <point x="156.66" y="-4.51687"/>
      <point x="134.4" y="12.6406" type="qcurve" smooth="yes"/>
      <point x="112.847" y="29.25"/>
      <point x="94.1289" y="50.0459" type="qcurve" smooth="yes"/>
      <point x="75.7935" y="70.4175"/>
      <point x="61.0908" y="93.7764" type="qcurve" smooth="yes"/>
      <point x="56.6457" y="100.838"/>
      <point x="71.7945" y="131.132"/>
      <point x="101.609" y="158.853"/>
      <point x="129.629" y="168.695"/>
      <point x="134.073" y="161.633" type="qcurve" smooth="yes"/>
      <point x="148.013" y="139.485"/>
      <point x="165.419" y="120.146" type="qcurve" smooth="yes"/>
      <point x="183.163" y="100.432"/>
      <point x="203.553" y="84.7197" type="qcurve" smooth="yes"/>
      <point x="224.492" y="68.5806"/>
      <point x="247.239" y="57.3379" type="qcurve" smooth="yes"/>
      <point x="259.673" y="51.194"/>
      <point x="272.124" y="46.8115" type="qcurve" smooth="yes"/>
      <point x="285.028" y="42.2704"/>
      <point x="297.829" y="39.668" type="qcurve" smooth="yes"/>
      <point x="310.928" y="37.003"/>
      <point x="336.158" y="35.9019"/>
      <point x="348.063" y="37.5049" type="qcurve" smooth="yes"/>
      <point x="359.451" y="39.039"/>
      <point x="369.322" y="42.3955" type="qcurve" smooth="yes"/>
      <point x="377.239" y="45.0883"/>
      <point x="382.554" y="48.3213" type="qcurve" smooth="yes"/>
      <point x="383.724" y="49.033"/>
      <point x="384.51" y="49.623" type="qcurve" smooth="yes"/>
      <point x="385.017" y="50.3302"/>
      <point x="385.492" y="51.1084" type="qcurve" smooth="yes"/>
      <point x="388.427" y="55.9127"/>
      <point x="390.487" y="62.8438" type="qcurve" smooth="yes"/>
      <point x="393.33" y="72.3972"/>
      <point x="393.63" y="83.5146" type="qcurve" smooth="yes"/>
      <point x="393.956" y="95.5991"/>
      <point x="391.225" y="107.837" type="qcurve" smooth="yes"/>
      <point x="388.428" y="120.351"/>
      <point x="382.633" y="131.922" type="qcurve" smooth="yes"/>
      <point x="377.043" y="143.074"/>
      <point x="368.603" y="153.424" type="qcurve" smooth="yes"/>
      <point x="360.537" y="163.312"/>
      <point x="350.163" y="172.132" type="qcurve" smooth="yes"/>
      <point x="340.41" y="180.426"/>
      <point x="328.706" y="187.66" type="qcurve" smooth="yes"/>
      <point x="318.268" y="194.111"/>
      <point x="305.238" y="200.324" type="qcurve" smooth="yes"/>
      <point x="294.576" y="205.41"/>
      <point x="280.304" y="211.2" type="qcurve" smooth="yes"/>
      <point x="276.235" y="212.851"/>
      <point x="254.621" y="221.313" type="qcurve" smooth="yes"/>
      <point x="238.743" y="227.528"/>
      <point x="228.608" y="231.936" type="qcurve" smooth="yes"/>
      <point x="214.361" y="238.132"/>
      <point x="202.892" y="244.297" type="qcurve" smooth="yes"/>
      <point x="189.424" y="251.536"/>
      <point x="178.468" y="259.435" type="qcurve" smooth="yes"/>
      <point x="166.32" y="268.196"/>
      <point x="156.361" y="278.372" type="qcurve" smooth="yes"/>
      <point x="145.804" y="289.166"/>
      <point x="137.974" y="301.233" type="qcurve" smooth="yes"/>
      <point x="129.666" y="314.03"/>
      <point x="124.757" y="327.81" type="qcurve" smooth="yes"/>
      <point x="120.249" y="340.457"/>
      <point x="118.572" y="353.973" type="qcurve" smooth="yes"/>
      <point x="116.839" y="367.944"/>
      <point x="118.191" y="382.186" type="qcurve" smooth="yes"/>
      <point x="119.652" y="397.593"/>
      <point x="124.707" y="412.78" type="qcurve" smooth="yes"/>
      <point x="137.114" y="450.062"/>
      <point x="167.981" y="482.314" type="qcurve" smooth="yes"/>
      <point x="192.315" y="507.74"/>
      <point x="221.903" y="523.441" type="qcurve" smooth="yes"/>
      <point x="268.311" y="548.07"/>
      <point x="318.733" y="541.118" type="qcurve" smooth="yes"/>
      <point x="370.688" y="533.958"/>
      <point x="413.058" y="497.142" type="qcurve" smooth="yes"/>
      <point x="452.911" y="462.513"/>
      <point x="471.343" y="412.183" type="qcurve" smooth="yes"/>
      <point x="474.388" y="403.867"/>
      <point x="456.71" y="372.793"/>
    </contour>
  </outline>
</glyph>
<glyph name="t" format="1">
  <advance width="370"/>
  <unicode hex="0074"/>
  <outline>
    <contour>
      <point x="63.7383" y="466.43" type="qcurve" smooth="yes"/>
      <point x="75.002" y="481.985"/>
      <point x="106.846" y="504.509"/>
      <point x="117.573" y="504.509" type="qcurve" smooth="yes"/>
      <point x="303.574" y="504.511" type="line" smooth="yes"/>
      <point x="310.604" y="504.511"/>
      <point x="315.263" y="494.202"/>
      <point x="309.643" y="476.624"/>
      <point x="302.262" y="466.432" type="qcurve" smooth="yes"/>
      <point x="290.997" y="450.876"/>
      <point x="259.154" y="428.353"/>
      <point x="248.426" y="428.353" type="qcurve" smooth="yes"/>
      <point x="62.4248" y="428.352" type="line" smooth="yes"/>
      <point x="55.3955" y="428.352"/>
      <point x="50.7373" y="438.66"/>
      <point x="56.3574" y="456.238"/>
    </contour>
    <contour>
      <point x="344.746" y="65.4785"/>
      <point x="325.268" y="33.9922"/>
      <point x="309.838" y="21.4551" type="qcurve" smooth="yes"/>
      <point x="267.443" y="-12.9902"/>
      <point x="195.822" y="-42.4961"/>
      <point x="145.481" y="-34.2285"/>
      <point x="129.161" y="-13.8281" type="qcurve" smooth="yes"/>
      <point x="96.709" y="23.3252"/>
      <point x="112.064" y="126.912" type="qcurve"/>
      <point x="159.999" y="676.166" type="line" smooth="yes"/>
      <point x="160.996" y="687.594"/>
      <point x="184.918" y="719.421"/>
      <point x="200.441" y="729.976" type="qcurve" smooth="yes"/>
      <point x="210.612" y="736.891"/>
      <point x="227.494" y="741.242"/>
      <point x="236.653" y="735.321"/>
      <point x="236" y="727.834" type="qcurve" smooth="yes"/>
      <point x="188.001" y="177.834" type="line" smooth="yes"/>
      <point x="187.938" y="177.104"/>
      <point x="187.819" y="176.325" type="qcurve" smooth="yes"/>
      <point x="174.185" y="86.3457"/>
      <point x="200.84" y="55.8301" type="qcurve" smooth="yes"/>
      <point x="213.839" y="39.5811"/>
      <point x="245.354" y="33.6465"/>
      <point x="278.438" y="48.8955"/>
      <point x="300.159" y="66.543" type="qcurve" smooth="yes"/>
      <point x="315.589" y="79.0801"/>
      <point x="340.792" y="83.8975"/>
    </contour>
  </outline>
</glyph>
<glyph name="u" format="1">
  <advance width="509"/>
  <unicode hex="0075"/>
  <outline>
    <contour>
      <point x="417" y="-18"/>
      <point x="391" y="-35"/>
      <point x="382" y="-37" type="qcurve" smooth="yes"/>
      <point x="364" y="-41"/>
      <point x="366" y="-25" type="qcurve" smooth="yes"/>
      <point x="373" y="40" type="line"/>
      <point x="345" y="8"/>
      <point x="265" y="-38"/>
      <point x="223" y="-38" type="qcurve" smooth="yes"/>
      <point x="52" y="-40"/>
      <point x="77" y="198" type="qcurve"/>
      <point x="101" y="477" type="line" smooth="yes"/>
      <point x="102" y="488"/>
      <point x="126" y="521"/>
      <point x="152" y="538"/>
      <point x="160" y="540" type="qcurve" smooth="yes"/>
      <point x="178" y="545"/>
      <point x="177" y="529" type="qcurve" smooth="yes"/>
      <point x="153" y="249" type="line"/>
      <point x="130" y="37"/>
      <point x="277" y="38" type="qcurve" smooth="yes"/>
      <point x="306" y="38"/>
      <point x="320" y="46" type="qcurve" smooth="yes"/>
      <point x="355" y="66"/>
      <point x="385" y="156" type="qcurve" smooth="yes"/>
      <point x="385" y="157"/>
      <point x="385" y="159" type="qcurve" smooth="yes"/>
      <point x="419" y="478" type="line" smooth="yes"/>
      <point x="420" y="490"/>
      <point x="444" y="521"/>
      <point x="470" y="538"/>
      <point x="479" y="540" type="qcurve" smooth="yes"/>
      <point x="497" y="544"/>
      <point x="495" y="529" type="qcurve" smooth="yes"/>
      <point x="442" y="25" type="line" smooth="yes"/>
      <point x="441" y="14"/>
    </contour>
  </outline>
</glyph>
<glyph name="v" format="1">
  <advance width="494"/>
  <unicode hex="0076"/>
  <outline>
    <contour>
      <point x="490.042" y="544.301"/>
      <point x="502.133" y="532.733"/>
      <point x="496.132" y="518.49" type="qcurve" smooth="yes"/>
      <point x="284.131" y="15.3086" type="line" smooth="yes"/>
      <point x="278.13" y="1.06543"/>
      <point x="248.661" y="-28.6123"/>
      <point x="219.958" y="-41.1201"/>
      <point x="207.867" y="-29.5527"/>
      <point x="213.868" y="-15.3096" type="qcurve" smooth="yes"/>
      <point x="425.869" y="487.872" type="line" smooth="yes"/>
      <point x="431.871" y="502.115"/>
      <point x="461.339" y="531.793"/>
    </contour>
    <contour>
      <point x="116.281" y="537.538"/>
      <point x="142.108" y="543.385"/>
      <point x="144.591" y="534.591" type="qcurve" smooth="yes"/>
      <point x="286.591" y="31.4102" type="line" smooth="yes"/>
      <point x="289.072" y="22.6162"/>
      <point x="270.431" y="-8.69434"/>
      <point x="239.718" y="-34.3584"/>
      <point x="213.891" y="-40.2051"/>
      <point x="211.408" y="-31.4111" type="qcurve" smooth="yes"/>
      <point x="69.4082" y="471.77" type="line" smooth="yes"/>
      <point x="66.9268" y="480.563"/>
      <point x="85.5684" y="511.875"/>
    </contour>
  </outline>
</glyph>
<glyph name="w" format="1">
  <advance width="738"/>
  <unicode hex="0077"/>
  <outline>
    <contour>
      <point x="753.054" y="544.301"/>
      <point x="765.134" y="532.722"/>
      <point x="759.127" y="518.477" type="qcurve" smooth="yes"/>
      <point x="546.125" y="13.2949" type="line"/>
      <point x="546.125" y="13.2949"/>
      <point x="515.83" y="-21.6807" type="qcurve" smooth="yes"/>
      <point x="479.958" y="-57.2822"/>
      <point x="473.387" y="-33.332" type="qcurve" smooth="yes"/>
      <point x="387.386" y="280.134" type="line"/>
      <point x="276.152" y="15.3604" type="line" smooth="yes"/>
      <point x="270.173" y="1.12695"/>
      <point x="240.723" y="-28.5684"/>
      <point x="212.002" y="-41.1182"/>
      <point x="199.867" y="-29.5947"/>
      <point x="205.847" y="-15.3613" type="qcurve" smooth="yes"/>
      <point x="368.848" y="372.64" type="line" smooth="yes"/>
      <point x="379.963" y="399.099"/>
      <point x="416.347" y="422.445"/>
      <point x="428.98" y="420.889" type="qcurve" smooth="yes"/>
      <point x="441.614" y="419.332" type="line"/>
      <point x="527.689" y="105.596" type="line"/>
      <point x="688.875" y="487.885" type="line" smooth="yes"/>
      <point x="694.882" y="502.131"/>
      <point x="724.354" y="531.805"/>
    </contour>
    <contour>
      <point x="108.281" y="537.538"/>
      <point x="134.108" y="543.385"/>
      <point x="136.591" y="534.591" type="qcurve" smooth="yes"/>
      <point x="278.591" y="31.4102" type="line" smooth="yes"/>
      <point x="281.072" y="22.6162"/>
      <point x="262.431" y="-8.69434"/>
      <point x="231.718" y="-34.3584"/>
      <point x="205.891" y="-40.2051"/>
      <point x="203.408" y="-31.4111" type="qcurve" smooth="yes"/>
      <point x="61.4082" y="471.77" type="line" smooth="yes"/>
      <point x="58.9268" y="480.563"/>
      <point x="77.5684" y="511.875"/>
    </contour>
    <contour>
      <point x="432.999" y="429.118"/>
      <point x="445.134" y="417.595"/>
      <point x="439.153" y="403.36" type="qcurve" smooth="yes"/>
      <point x="276.152" y="15.3604" type="line" smooth="yes"/>
      <point x="270.173" y="1.12695"/>
      <point x="240.723" y="-28.5684"/>
      <point x="212.002" y="-41.1182"/>
      <point x="199.867" y="-29.5947"/>
      <point x="205.847" y="-15.3613" type="qcurve" smooth="yes"/>
      <point x="368.848" y="372.64" type="line" smooth="yes"/>
      <point x="374.827" y="386.873"/>
      <point x="404.278" y="416.568"/>
    </contour>
    <contour>
      <point x="108.281" y="537.538"/>
      <point x="134.108" y="543.385"/>
      <point x="136.591" y="534.591" type="qcurve" smooth="yes"/>
      <point x="278.591" y="31.4102" type="line" smooth="yes"/>
      <point x="281.072" y="22.6162"/>
      <point x="262.431" y="-8.69434"/>
      <point x="231.718" y="-34.3584"/>
      <point x="205.891" y="-40.2051"/>
      <point x="203.408" y="-31.4111" type="qcurve" smooth="yes"/>
      <point x="61.4082" y="471.77" type="line" smooth="yes"/>
      <point x="58.9268" y="480.563"/>
      <point x="77.5684" y="511.875"/>
    </contour>
    <contour>
      <point x="241.495" y="28.7793"/>
      <point x="270.5" y="41.21"/>
      <point x="282.21" y="29.5"/>
      <point x="269.779" y="0.495117"/>
      <point x="240.505" y="-28.7793"/>
      <point x="211.499" y="-41.21"/>
      <point x="199.79" y="-29.501"/>
      <point x="212.221" y="-0.495117"/>
    </contour>
    <contour>
      <point x="108.281" y="537.538"/>
      <point x="134.108" y="543.385"/>
      <point x="136.591" y="534.591" type="qcurve" smooth="yes"/>
      <point x="278.591" y="31.4102" type="line" smooth="yes"/>
      <point x="281.072" y="22.6162"/>
      <point x="262.431" y="-8.69434"/>
      <point x="231.718" y="-34.3584"/>
      <point x="205.891" y="-40.2051"/>
      <point x="203.408" y="-31.4111" type="qcurve" smooth="yes"/>
      <point x="61.4082" y="471.77" type="line" smooth="yes"/>
      <point x="58.9268" y="480.563"/>
      <point x="77.5684" y="511.875"/>
    </contour>
  </outline>
</glyph>
<glyph name="x" format="1">
  <advance width="516"/>
  <unicode hex="0078"/>
  <outline>
    <contour>
      <point x="112" y="534"/>
      <point x="140" y="544"/>
      <point x="144" y="537" type="qcurve" smooth="yes"/>
      <point x="295" y="298" type="line"/>
      <point x="469" y="509" type="line" smooth="yes"/>
      <point x="482" y="524"/>
      <point x="513" y="543"/>
      <point x="531" y="539"/>
      <point x="526" y="513"/>
      <point x="513" y="498" type="qcurve" smooth="yes"/>
      <point x="318" y="261" type="line"/>
      <point x="461" y="34" type="line" smooth="yes"/>
      <point x="465" y="27"/>
      <point x="451" y="-3"/>
      <point x="421" y="-31"/>
      <point x="393" y="-41"/>
      <point x="389" y="-34" type="qcurve" smooth="yes"/>
      <point x="253" y="181" type="line"/>
      <point x="99" y="-5" type="line" smooth="yes"/>
      <point x="86" y="-20"/>
      <point x="55" y="-40"/>
      <point x="37" y="-35"/>
      <point x="42" y="-10"/>
      <point x="55" y="5" type="qcurve" smooth="yes"/>
      <point x="230" y="218" type="line"/>
      <point x="72" y="469" type="line" smooth="yes"/>
      <point x="68" y="476"/>
      <point x="82" y="507"/>
    </contour>
  </outline>
</glyph>
<glyph name="y" format="1">
  <advance width="528"/>
  <unicode hex="0079"/>
  <outline>
    <contour>
      <point x="459" y="520"/>
      <point x="485" y="538"/>
      <point x="493" y="540" type="qcurve" smooth="yes"/>
      <point x="512" y="545"/>
      <point x="511" y="530" type="qcurve" smooth="yes"/>
      <point x="491" y="205"/>
      <point x="481" y="135" type="qcurve" smooth="yes"/>
      <point x="473" y="52"/>
      <point x="437" y="-68"/>
      <point x="356" y="-179"/>
      <point x="248" y="-233"/>
      <point x="193" y="-232" type="qcurve" smooth="yes"/>
      <point x="80" y="-231"/>
      <point x="38" y="-162" type="qcurve" smooth="yes"/>
      <point x="34" y="-155"/>
      <point x="49" y="-124"/>
      <point x="79" y="-97"/>
      <point x="107" y="-87"/>
      <point x="112" y="-94" type="qcurve" smooth="yes"/>
      <point x="148" y="-155"/>
      <point x="249" y="-156" type="qcurve" smooth="yes"/>
      <point x="321" y="-157"/>
      <point x="348" y="-118" type="qcurve" smooth="yes"/>
      <point x="385" y="-66"/>
      <point x="401" y="48" type="qcurve"/>
      <point x="303" y="-70"/>
      <point x="197" y="-36" type="qcurve" smooth="yes"/>
      <point x="57" y="8"/>
      <point x="129" y="479" type="qcurve" smooth="yes"/>
      <point x="131" y="491"/>
      <point x="156" y="522"/>
      <point x="181" y="539"/>
      <point x="198" y="542"/>
      <point x="206" y="535"/>
      <point x="205" y="528" type="qcurve" smooth="yes"/>
      <point x="161" y="227"/>
      <point x="202" y="107" type="qcurve" smooth="yes"/>
      <point x="222" y="50"/>
      <point x="260" y="38" type="qcurve" smooth="yes"/>
      <point x="322" y="18"/>
      <point x="357" y="59" type="qcurve" smooth="yes"/>
      <point x="384" y="90"/>
      <point x="410" y="154" type="qcurve" smooth="yes"/>
      <point x="411" y="157"/>
      <point x="413" y="161" type="qcurve" smooth="yes"/>
      <point x="422" y="263"/>
      <point x="435" y="477" type="qcurve" smooth="yes"/>
      <point x="436" y="488"/>
    </contour>
  </outline>
</glyph>
<glyph name="z" format="1">
  <advance width="530"/>
  <unicode hex="007A"/>
  <outline>
    <contour>
      <point x="109.737" y="503.181" type="qcurve" smooth="yes"/>
      <point x="121.002" y="518.736"/>
      <point x="152.846" y="541.259"/>
      <point x="163.573" y="541.259" type="qcurve" smooth="yes"/>
      <point x="499.573" y="541.259" type="line" smooth="yes"/>
      <point x="506.493" y="541.259"/>
      <point x="511.817" y="531.737"/>
      <point x="505.689" y="512.798"/>
      <point x="496.494" y="500.812" type="qcurve" smooth="yes"/>
      <point x="141.522" y="38.0791" type="line"/>
      <point x="471.574" y="38.0791" type="line" smooth="yes"/>
      <point x="478.604" y="38.0791"/>
      <point x="483.262" y="27.7705"/>
      <point x="477.642" y="10.1924"/>
      <point x="470.261" y="0" type="qcurve" smooth="yes"/>
      <point x="458.997" y="-15.5557"/>
      <point x="427.153" y="-38.0791"/>
      <point x="416.426" y="-38.0791" type="qcurve" smooth="yes"/>
      <point x="58.4248" y="-38.0791" type="line" smooth="yes"/>
      <point x="46.2002" y="-37.0957"/>
      <point x="49.4658" y="-13.3232"/>
      <point x="61.5039" y="2.36816" type="qcurve" smooth="yes"/>
      <point x="416.476" y="465.102" type="line"/>
      <point x="108.425" y="465.102" type="line" smooth="yes"/>
      <point x="101.396" y="465.102"/>
      <point x="96.7363" y="475.41"/>
      <point x="102.356" y="492.988"/>
    </contour>
  </outline>
</glyph>
<glyph name="braceleft" format="1">
  <advance width="298"/>
  <unicode hex="007B"/>
  <outline>
    <contour>
      <point x="132" y="326" type="line"/>
      <point x="160" y="298"/>
      <point x="155" y="284" type="qcurve" smooth="yes"/>
      <point x="152.876" y="275.792"/>
      <point x="152.076" y="107.302" type="qcurve" smooth="yes"/>
      <point x="151" y="39"/>
      <point x="187.273" y="7.51153" type="qcurve" smooth="yes"/>
      <point x="226" y="-27"/>
      <point x="298.099" y="-17.9785" type="qcurve" smooth="yes"/>
      <point x="306" y="-17"/>
      <point x="308.388" y="-22.0883" type="qcurve" smooth="yes"/>
      <point x="311" y="-27"/>
      <point x="308.984" y="-35.2493" type="qcurve" smooth="yes"/>
      <point x="307" y="-44"/>
      <point x="299.728" y="-53.9209" type="qcurve" smooth="yes"/>
      <point x="289" y="-69"/>
      <point x="273.147" y="-81.313" type="qcurve" smooth="yes"/>
      <point x="257" y="-93"/>
      <point x="245.9" y="-94.0225" type="qcurve" smooth="yes"/>
      <point x="74" y="-107"/>
      <point x="75.9229" y="52.6963" type="qcurve" smooth="yes"/>
      <point x="79" y="248"/>
      <point x="79.668" y="286.272" type="qcurve"/>
      <point x="34.7207" y="298.373" type="line" smooth="yes"/>
      <point x="27" y="300"/>
      <point x="28.1689" y="311.591" type="qcurve" smooth="yes"/>
      <point x="31" y="328"/>
      <point x="52.6314" y="353.897" type="qcurve" smooth="yes"/>
      <point x="75" y="380"/>
      <point x="96.0664" y="388.407" type="qcurve"/>
      <point x="124.12" y="597.252" type="line" smooth="yes"/>
      <point x="124" y="600"/>
      <point x="124.558" y="599.669" type="qcurve" smooth="yes"/>
      <point x="136" y="651"/>
      <point x="168.068" y="689.269" type="qcurve" smooth="yes"/>
      <point x="193" y="720"/>
      <point x="220.241" y="736.708" type="qcurve" smooth="yes"/>
      <point x="247" y="754"/>
      <point x="274.377" y="756.265" type="qcurve" smooth="yes"/>
      <point x="302" y="759"/>
      <point x="322.754" y="756.296" type="qcurve" smooth="yes"/>
      <point x="344" y="754"/>
      <point x="371.474" y="745.572" type="qcurve" smooth="yes"/>
      <point x="380" y="743"/>
      <point x="377.26" y="730.104" type="qcurve" smooth="yes"/>
      <point x="374" y="717"/>
      <point x="361.434" y="701.813" type="qcurve" smooth="yes"/>
      <point x="349" y="686"/>
      <point x="332.929" y="677.182" type="qcurve" smooth="yes"/>
      <point x="317" y="668"/>
      <point x="308.526" y="670.426" type="qcurve" smooth="yes"/>
      <point x="244" y="689"/>
      <point x="209.919" y="674.785" type="qcurve"/>
      <point x="201.352" y="657.708"/>
      <point x="199.72" y="645.557" type="qcurve" smooth="yes"/>
      <point x="163.88" y="378.75" type="line"/>
    </contour>
  </outline>
</glyph>
<glyph name="bar" format="1">
  <advance width="193"/>
  <unicode hex="007C"/>
  <outline>
    <contour>
      <point x="167.771" y="748.298" type="qcurve" smooth="yes"/>
      <point x="177.936" y="755.147"/>
      <point x="194.718" y="759.327"/>
      <point x="203.719" y="753.237"/>
      <point x="202.978" y="745.689" type="qcurve" smooth="yes"/>
      <point x="122.978" y="-68.4102" type="line" smooth="yes"/>
      <point x="121.845" y="-79.93"/>
      <point x="97.743" y="-111.746"/>
      <point x="82.2285" y="-122.199" type="qcurve" smooth="yes"/>
      <point x="72.0635" y="-129.049"/>
      <point x="55.282" y="-133.228"/>
      <point x="46.2801" y="-127.139"/>
      <point x="47.0215" y="-119.591" type="qcurve" smooth="yes"/>
      <point x="127.021" y="694.509" type="line" smooth="yes"/>
      <point x="128.154" y="706.028"/>
      <point x="152.256" y="737.843"/>
    </contour>
  </outline>
</glyph>
<glyph name="braceright" format="1">
  <advance width="298"/>
  <unicode hex="007D"/>
  <outline>
    <contour>
      <point x="217.551" y="299.389" type="line"/>
      <point x="186.252" y="275.132"/>
      <point x="189.452" y="260.614" type="qcurve" smooth="yes"/>
      <point x="190.527" y="252.204"/>
      <point x="170.132" y="84.9512" type="qcurve" smooth="yes"/>
      <point x="162.61" y="17.0566"/>
      <point x="122.666" y="-9.62109" type="qcurve" smooth="yes"/>
      <point x="79.9062" y="-38.9883"/>
      <point x="9.51465" y="-20.9717" type="qcurve" smooth="yes"/>
      <point x="1.79883" y="-19.0078"/>
      <point x="-1.20996" y="-23.7549" type="qcurve" smooth="yes"/>
      <point x="-4.41895" y="-28.2988"/>
      <point x="-3.45703" y="-36.7363" type="qcurve" smooth="yes"/>
      <point x="-2.58887" y="-45.667"/>
      <point x="3.37793" y="-56.4238" type="qcurve" smooth="yes"/>
      <point x="12.124" y="-72.7324"/>
      <point x="26.3037" y="-86.9414" type="qcurve" smooth="yes"/>
      <point x="40.8525" y="-100.566"/>
      <point x="51.7354" y="-102.977" type="qcurve" smooth="yes"/>
      <point x="220.639" y="-137.468"/>
      <point x="238.813" y="21.2021" type="qcurve" smooth="yes"/>
      <point x="260.321" y="215.343"/>
      <point x="264.472" y="253.396" type="qcurve"/>
      <point x="310.584" y="259.747" type="line" smooth="yes"/>
      <point x="318.448" y="260.391"/>
      <point x="318.746" y="272.036" type="qcurve" smooth="yes"/>
      <point x="318.001" y="288.672"/>
      <point x="299.798" y="317.084" type="qcurve" smooth="yes"/>
      <point x="280.89" y="345.792"/>
      <point x="261.047" y="356.781" type="qcurve"/>
      <point x="259.479" y="567.496" type="line" smooth="yes"/>
      <point x="259.944" y="570.207"/>
      <point x="259.35" y="569.949" type="qcurve" smooth="yes"/>
      <point x="254.453" y="622.312"/>
      <point x="227.451" y="664.309" type="qcurve" smooth="yes"/>
      <point x="206.582" y="697.932"/>
      <point x="181.658" y="717.933" type="qcurve" smooth="yes"/>
      <point x="157.287" y="738.452"/>
      <point x="130.412" y="744.142" type="qcurve" smooth="yes"/>
      <point x="103.353" y="750.329"/>
      <point x="82.4229" y="750.257" type="qcurve" smooth="yes"/>
      <point x="61.0566" y="750.65"/>
      <point x="32.7412" y="745.745" type="qcurve" smooth="yes"/>
      <point x="23.959" y="744.265"/>
      <point x="25.0557" y="731.128" type="qcurve" smooth="yes"/>
      <point x="26.6426" y="717.717"/>
      <point x="37.1992" y="701.07" type="qcurve" smooth="yes"/>
      <point x="47.5449" y="683.819"/>
      <point x="62.3799" y="673.05" type="qcurve" smooth="yes"/>
      <point x="77.0273" y="661.938"/>
      <point x="85.7393" y="663.279" type="qcurve" smooth="yes"/>
      <point x="152.089" y="673.591"/>
      <point x="184.112" y="655.203" type="qcurve"/>
      <point x="190.463" y="637.185"/>
      <point x="190.555" y="624.924" type="qcurve" smooth="yes"/>
      <point x="192.558" y="355.729" type="line"/>
    </contour>
  </outline>
</glyph>
<glyph name="asciitilde" format="1">
  <advance width="447"/>
  <unicode hex="007E"/>
  <outline>
    <contour>
      <point x="460" y="477"/>
      <point x="480" y="474"/>
      <point x="474" y="442"/>
      <point x="471" y="429" type="qcurve" smooth="yes"/>
      <point x="461" y="392"/>
      <point x="410" y="337"/>
      <point x="373" y="314"/>
      <point x="343" y="304"/>
      <point x="305" y="308"/>
      <point x="280" y="316"/>
      <point x="260" y="327" type="qcurve" smooth="yes"/>
      <point x="234" y="342"/>
      <point x="145" y="405"/>
      <point x="113" y="408" type="qcurve"/>
      <point x="100" y="373" type="line" smooth="yes"/>
      <point x="94" y="359"/>
      <point x="65" y="329"/>
      <point x="36" y="316"/>
      <point x="23" y="326"/>
      <point x="28" y="341" type="qcurve" smooth="yes"/>
      <point x="50" y="397" type="line" smooth="yes"/>
      <point x="59" y="420"/>
      <point x="111" y="471"/>
      <point x="147" y="484"/>
      <point x="174" y="485"/>
      <point x="197" y="481"/>
      <point x="210" y="474" type="qcurve" smooth="yes"/>
      <point x="232" y="464"/>
      <point x="264" y="441" type="qcurve" smooth="yes"/>
      <point x="348" y="381"/>
      <point x="395" y="386" type="qcurve"/>
      <point x="399" y="398"/>
      <point x="404" y="426"/>
      <point x="429" y="458"/>
    </contour>
  </outline>
</glyph>
<glyph name="exclamdown" format="1">
  <advance width="198"/>
  <unicode hex="00A1"/>
  <outline>
    <contour>
      <point x="147.489" y="568.008" type="qcurve" smooth="yes"/>
      <point x="157.66" y="574.913"/>
      <point x="174.526" y="579.24"/>
      <point x="183.663" y="573.295"/>
      <point x="182.997" y="565.799" type="qcurve" smooth="yes"/>
      <point x="134.997" y="25.7979" type="line" smooth="yes"/>
      <point x="133.98" y="14.3563"/>
      <point x="110.033" y="-17.4689"/>
      <point x="94.5107" y="-28.0088" type="qcurve" smooth="yes"/>
      <point x="84.3399" y="-34.914"/>
      <point x="67.4731" y="-39.2412"/>
      <point x="58.3364" y="-33.2957"/>
      <point x="59.0029" y="-25.7988" type="qcurve" smooth="yes"/>
      <point x="107.002" y="514.201" type="line" smooth="yes"/>
      <point x="108.019" y="525.643"/>
      <point x="131.967" y="557.469"/>
    </contour>
    <contour>
      <point x="168.695" y="734.813" type="qcurve" smooth="yes"/>
      <point x="178.839" y="741.477"/>
      <point x="195.334" y="745.17"/>
      <point x="203.889" y="738.609"/>
      <point x="202.9" y="730.897" type="qcurve" smooth="yes"/>
      <point x="192.898" y="652.896" type="line" smooth="yes"/>
      <point x="191.39" y="641.127"/>
      <point x="166.788" y="609.358"/>
      <point x="151.306" y="599.188" type="qcurve" smooth="yes"/>
      <point x="141.161" y="592.524"/>
      <point x="124.666" y="588.831"/>
      <point x="116.112" y="595.392"/>
      <point x="117.101" y="603.104" type="qcurve" smooth="yes"/>
      <point x="127.102" y="681.104" type="line" smooth="yes"/>
      <point x="128.61" y="692.875"/>
      <point x="153.213" y="724.643"/>
    </contour>
  </outline>
</glyph>
<glyph name="cent" format="1">
  <advance width="501"/>
  <unicode hex="00A2"/>
  <outline>
    <contour>
      <point x="286" y="595" type="qcurve" smooth="yes"/>
      <point x="298" y="611"/>
      <point x="311" y="620" type="qcurve" smooth="yes"/>
      <point x="324" y="629"/>
      <point x="332" y="631" type="qcurve" smooth="yes"/>
      <point x="350" y="636"/>
      <point x="349" y="619" type="qcurve" smooth="yes"/>
      <point x="285" y="-71" type="line" smooth="yes"/>
      <point x="284" y="-82"/>
      <point x="272" y="-99" type="qcurve" smooth="yes"/>
      <point x="260" y="-115"/>
      <point x="247" y="-123" type="qcurve" smooth="yes"/>
      <point x="234" y="-132"/>
      <point x="226" y="-134" type="qcurve" smooth="yes"/>
      <point x="208" y="-139"/>
      <point x="209" y="-123" type="qcurve" smooth="yes"/>
      <point x="273" y="568" type="line" smooth="yes"/>
      <point x="274" y="579"/>
    </contour>
    <component base="c"/>
  </outline>
</glyph>
<glyph name="sterling" format="1">
  <advance width="565"/>
  <unicode hex="00A3"/>
  <outline>
    <contour>
      <point x="54.5156" y="339.691" type="qcurve" smooth="yes"/>
      <point x="65.6934" y="355.247"/>
      <point x="97.541" y="377.951"/>
      <point x="108.36" y="378.077" type="qcurve" smooth="yes"/>
      <point x="452.361" y="382.077" type="line" smooth="yes"/>
      <point x="459.45" y="382.16"/>
      <point x="464.269" y="371.994"/>
      <point x="458.807" y="354.499"/>
      <point x="451.483" y="344.308" type="qcurve" smooth="yes"/>
      <point x="440.306" y="328.752"/>
      <point x="408.458" y="306.048"/>
      <point x="397.639" y="305.922" type="qcurve" smooth="yes"/>
      <point x="53.6377" y="301.922" type="line" smooth="yes"/>
      <point x="46.5488" y="301.839"/>
      <point x="41.7305" y="312.005"/>
      <point x="47.1924" y="329.5"/>
    </contour>
    <contour>
      <point x="502.533" y="28.8223"/>
      <point x="483.121" y="10.4902"/>
      <point x="463.153" y="-1.16309"/>
      <point x="455.567" y="-1.96191" type="qcurve" smooth="yes"/>
      <point x="113.568" y="-37.9609" type="line" smooth="yes"/>
      <point x="105.095" y="-38.8535"/>
      <point x="99.4102" y="-26.6641"/>
      <point x="102.953" y="-17.6396" type="qcurve" smooth="yes"/>
      <point x="152.968" y="119.9"/>
      <point x="156.922" y="404.681" type="qcurve" smooth="yes"/>
      <point x="158.207" y="497.14"/>
      <point x="184.84" y="620.525"/>
      <point x="220.892" y="670.782" type="qcurve" smooth="yes"/>
      <point x="237.018" y="693.264"/>
      <point x="257.207" y="711.358" type="qcurve" smooth="yes"/>
      <point x="309.401" y="758.138"/>
      <point x="368.433" y="758.179" type="qcurve" smooth="yes"/>
      <point x="505.491" y="760.197"/>
      <point x="558.512" y="589.181" type="qcurve" smooth="yes"/>
      <point x="561.188" y="580.55"/>
      <point x="542.874" y="549.314"/>
      <point x="512.228" y="523.432"/>
      <point x="486.165" y="517.189"/>
      <point x="483.489" y="525.819" type="qcurve" smooth="yes"/>
      <point x="434.509" y="683.803"/>
      <point x="313.566" y="682.021" type="qcurve" smooth="yes"/>
      <point x="288.062" y="682.003"/>
      <point x="275.649" y="673.721" type="qcurve" smooth="yes"/>
      <point x="268.827" y="665.764"/>
      <point x="251.13" y="616.489"/>
      <point x="233.869" y="516.372"/>
      <point x="233.076" y="459.318" type="qcurve" smooth="yes"/>
      <point x="229.295" y="186.882"/>
      <point x="182.608" y="39.876" type="qcurve"/>
      <point x="506.433" y="73.9619" type="line" smooth="yes"/>
      <point x="514.019" y="74.7607"/>
      <point x="520.217" y="65.8613"/>
      <point x="516.148" y="49.1445"/>
    </contour>
  </outline>
</glyph>
<glyph name="currency" format="1">
  <advance width="495"/>
  <unicode hex="00A4"/>
  <outline>
    <contour>
      <point x="165" y="192" type="qcurve" smooth="yes"/>
      <point x="184" y="190"/>
      <point x="179.312" y="183.704" type="qcurve" smooth="yes"/>
      <point x="160" y="157"/>
      <point x="157.89" y="154.623" type="qcurve" smooth="yes"/>
      <point x="85.8896" y="84.6221" type="line" smooth="yes"/>
      <point x="71" y="70"/>
      <point x="56.8429" y="64.6366" type="qcurve" smooth="yes"/>
      <point x="42" y="59"/>
      <point x="37.1689" y="65.1641" type="qcurve" smooth="yes"/>
      <point x="31" y="72"/>
      <point x="38.6882" y="86.296" type="qcurve" smooth="yes"/>
      <point x="50.8036" y="106.329"/>
      <point x="60.1104" y="115.377" type="qcurve" smooth="yes"/>
      <point x="132.111" y="185.378" type="line" smooth="yes"/>
      <point x="162" y="211"/>
      <point x="161.157" y="205.363" type="qcurve" smooth="yes"/>
      <point x="159" y="193"/>
    </contour>
    <contour>
      <point x="376" y="193" type="qcurve" smooth="yes"/>
      <point x="382" y="217"/>
      <point x="401.757" y="225.781" type="qcurve" smooth="yes"/>
      <point x="416" y="232"/>
      <point x="422.281" y="226.43" type="qcurve" smooth="yes"/>
      <point x="499.28" y="151.43" type="line" smooth="yes"/>
      <point x="505" y="146"/>
      <point x="498.937" y="131.123" type="qcurve" smooth="yes"/>
      <point x="493" y="117"/>
      <point x="478.328" y="102.044" type="qcurve" smooth="yes"/>
      <point x="464" y="88"/>
      <point x="449.244" y="81.2199" type="qcurve" smooth="yes"/>
      <point x="434.612" y="74.8307"/>
      <point x="428.72" y="80.5703" type="qcurve" smooth="yes"/>
      <point x="351.72" y="155.571" type="line" smooth="yes"/>
      <point x="340" y="167"/>
      <point x="352.064" y="175.878" type="qcurve" smooth="yes"/>
      <point x="376" y="192"/>
    </contour>
    <contour>
      <point x="378" y="405" type="qcurve" smooth="yes"/>
      <point x="364" y="414"/>
      <point x="367.297" y="419.564" type="qcurve" smooth="yes"/>
      <point x="375" y="434"/>
      <point x="390.417" y="448.477" type="qcurve" smooth="yes"/>
      <point x="471.416" y="521.657" type="line" smooth="yes"/>
      <point x="486" y="535"/>
      <point x="500.204" y="539.642" type="qcurve" smooth="yes"/>
      <point x="514" y="544"/>
      <point x="517.853" y="536.477" type="qcurve" smooth="yes"/>
      <point x="521" y="530"/>
      <point x="513.703" y="513.617" type="qcurve" smooth="yes"/>
      <point x="507.42" y="499.916"/>
      <point x="490.583" y="484.704" type="qcurve" smooth="yes"/>
      <point x="409.584" y="411.524" type="line" smooth="yes"/>
      <point x="377" y="379"/>
      <point x="380.796" y="393.539" type="qcurve" smooth="yes"/>
      <point x="383" y="402"/>
    </contour>
    <contour>
      <point x="171.212" y="405.927" type="qcurve" smooth="yes"/>
      <point x="161" y="392"/>
      <point x="142.129" y="385.17" type="qcurve" smooth="yes"/>
      <point x="127.245" y="379.1"/>
      <point x="121.673" y="384.617" type="qcurve" smooth="yes"/>
      <point x="37.6729" y="467.798" type="line" smooth="yes"/>
      <point x="32" y="474"/>
      <point x="38.1126" y="488.173" type="qcurve" smooth="yes"/>
      <point x="44" y="503"/>
      <point x="58.7891" y="517.254" type="qcurve" smooth="yes"/>
      <point x="73" y="532"/>
      <point x="87.8715" y="538.011" type="qcurve" smooth="yes"/>
      <point x="102.885" y="543.954"/>
      <point x="108.328" y="538.564" type="qcurve" smooth="yes"/>
      <point x="192.328" y="455.383" type="line" smooth="yes"/>
      <point x="179" y="429" type="line" smooth="yes"/>
      <point x="174" y="409"/>
    </contour>
    <component base="o" xScale="0.841309" yScale="0.677126" xOffset="22.654" yOffset="135.622"/>
  </outline>
</glyph>
<glyph name="yen" format="1">
  <advance width="630"/>
  <unicode hex="00A5"/>
  <outline>
    <contour>
      <point x="89" y="236" type="qcurve" smooth="yes"/>
      <point x="92" y="245"/>
      <point x="102" y="258" type="qcurve" smooth="yes"/>
      <point x="111" y="271"/>
      <point x="127" y="282" type="qcurve" smooth="yes"/>
      <point x="143" y="293"/>
      <point x="153" y="293" type="qcurve" smooth="yes"/>
      <point x="461" y="295" type="line" smooth="yes"/>
      <point x="476" y="295"/>
      <point x="471" y="276" type="qcurve" smooth="yes"/>
      <point x="463" y="251"/>
      <point x="440" y="235" type="qcurve" smooth="yes"/>
      <point x="417" y="219"/>
      <point x="407" y="219" type="qcurve" smooth="yes"/>
      <point x="99" y="217" type="line" smooth="yes"/>
      <point x="83" y="217"/>
    </contour>
    <contour>
      <point x="82" y="140" type="qcurve" smooth="yes"/>
      <point x="85" y="149"/>
      <point x="94" y="162" type="qcurve" smooth="yes"/>
      <point x="103" y="175"/>
      <point x="119" y="186" type="qcurve" smooth="yes"/>
      <point x="135" y="197"/>
      <point x="146" y="197" type="qcurve" smooth="yes"/>
      <point x="452" y="193" type="line" smooth="yes"/>
      <point x="467" y="193"/>
      <point x="460" y="174" type="qcurve" smooth="yes"/>
      <point x="452" y="149"/>
      <point x="429" y="133" type="qcurve" smooth="yes"/>
      <point x="406" y="117"/>
      <point x="396" y="117" type="qcurve" smooth="yes"/>
      <point x="90" y="121" type="line" smooth="yes"/>
      <point x="76" y="121"/>
    </contour>
    <component base="Y"/>
  </outline>
</glyph>
<glyph name="brokenbar" format="1">
  <advance width="193"/>
  <unicode hex="00A6"/>
  <outline>
    <contour>
      <point x="117.859" y="246.258" type="qcurve" smooth="yes"/>
      <point x="128.023" y="253.09"/>
      <point x="144.777" y="257.223"/>
      <point x="153.736" y="251.088"/>
      <point x="152.971" y="243.524" type="qcurve" smooth="yes"/>
      <point x="118.972" y="-92.4746" type="line" smooth="yes"/>
      <point x="117.803" y="-104.018"/>
      <point x="93.6524" y="-135.83"/>
      <point x="78.1406" y="-146.257" type="qcurve" smooth="yes"/>
      <point x="67.9776" y="-153.089"/>
      <point x="51.223" y="-157.222"/>
      <point x="42.2639" y="-151.087"/>
      <point x="43.0293" y="-143.523" type="qcurve" smooth="yes"/>
      <point x="77.0283" y="192.476" type="line" smooth="yes"/>
      <point x="78.1965" y="204.019"/>
      <point x="102.347" y="235.83"/>
    </contour>
    <contour>
      <point x="159.505" y="748.118" type="qcurve" smooth="yes"/>
      <point x="169.675" y="755.02"/>
      <point x="186.537" y="759.339"/>
      <point x="195.667" y="753.385"/>
      <point x="194.996" y="745.886" type="qcurve" smooth="yes"/>
      <point x="166.996" y="432.786" type="line" smooth="yes"/>
      <point x="165.972" y="421.34"/>
      <point x="142.015" y="389.515"/>
      <point x="126.493" y="378.981" type="qcurve" smooth="yes"/>
      <point x="116.323" y="372.079"/>
      <point x="99.4618" y="367.76"/>
      <point x="90.3325" y="373.714"/>
      <point x="91.0029" y="381.214" type="qcurve" smooth="yes"/>
      <point x="119.003" y="694.313" type="line" smooth="yes"/>
      <point x="120.027" y="705.759"/>
      <point x="143.984" y="737.585"/>
    </contour>
  </outline>
</glyph>
